DBRep_DrawableShape

CASCADE Topology V1, (c) Matra-Datavision
Locations 3
1
              1               0               0               0 
              0               1               0               0 
              0               0               1               0 
1
              1               0               0               0 
              0               1               0             1.4 
              0               0               1               0 
2  2 -1 0
Curve2ds 102
1 0 0 1 0 
1 0 0 1 0 
1 44 0 0 -1 
1 0 0 0 1 
1 0 -3 1 0 
1 0 0 1 0 
1 0 0 0 -1 
1 0 0 0 1 
1 0 0 0 1 
1 0 0 1 0 
1 0 44 1 0 
1 0 0 1 0 
1 44 0 0 1 
1 0 0 1 0 
2 6 6 1 0 -0 1 1.7
1 0 1 1 0 
8 6.5 24.5
1 27 6.5 0 1 
8 6.5 24.5
1 -6.5 1 1 0 
8 -18.5 -8.5
1 8.5 13 -1 0 
8 -18.5 -8.5
1 -8.5 -1 -1 -0 
8 -18.5 -8.5
1 8.5 31 -1 0 
8 -18.5 -8.5
1 -8.5 -1 -1 -0 
8 6.5 24.5
1 17 6.5 0 1 
8 6.5 24.5
1 -6.5 1 1 0 
2 38 6 1 0 -0 1 1.7
1 0 1 1 0 
2 6 38 1 0 -0 1 1.7
1 0 1 1 0 
2 38 38 1 0 -0 1 1.7
1 0 1 1 0 
1 0 3 1 0 
1 44 0 0 1 
1 44 0 0 1 
1 44 0 0 -1 
1 0 0 0 1 
1 0 3 1 0 
1 0 44 1 0 
1 0 -3 1 0 
2 6 6 1 0 -0 1 1.7
1 0 4 1 0 
1 33 9 -1 0 
1 0 -0 1 0 
1 33 30 0 -1 
1 0 0 1 0 
1 11 9 0 1 
1 0 0 1 0 
1 28 35 0.70710678118654757 -0.70710678118654757 
1 0 0 1 0 
1 11 35 1 0 
1 0 0 1 0 
2 38 6 1 0 -0 1 1.7
1 0 4 1 0 
2 6 38 1 0 -0 1 1.7
1 0 4 1 0 
2 38 38 1 0 -0 1 1.7
1 0 4 1 0 
1 44 0 0 1 
1 0 0 0 -1 
1 6.2831853071795862 -0 0 1 
1 0 -0 0 1 
1 0 0 0 1 
1 10 0 0 -1 
8 -13.73236967723872 4.2676303227612795
1 4.2676303227612795 5.3999999999999986 -1 0 
8 -13.73236967723872 4.2676303227612795
1 -5.4017996621113014 -4.2676303227612795 0 -1 
1 18 0 0 1 
1 10 0 0 -1 
8 -2.2991001689443351 7.7008998310556649
1 2.2991001689443351 -5.3999999999999986 1 0 
8 -2.2991001689443351 7.7008998310556649
1 2.2991001689443635 -8.535260645522559 -1 0 
1 0 0 0 -1 
1 0 0 0 1 
8 -2.2991001689443351 7.7008998310556649
1 2.2991001689443351 -5.3999999999999986 1 0 
8 -2.2991001689443351 7.7008998310556649
1 2.2991001689443635 9.464739354477441 -1 0 
1 0 0 0 -1 
1 18 0 0 1 
8 -13.73236967723872 4.2676303227612795
1 4.2676303227612795 5.3999999999999986 -1 0 
8 -13.73236967723872 4.2676303227612795
1 4.5982003378886986 -4.2676303227612795 0 -1 
1 6.2831853071795862 -0 0 1 
1 0 -0 0 1 
1 6.2831853071795862 -0 0 1 
1 0 -0 0 1 
1 6.2831853071795862 -0 0 1 
1 0 -0 0 1 
1 0 -0 0 -1 
1 21 0 0 -1 
1 22 0 0 -1 
1 0 0 0 -1 
1 0 -1.3999999999999986 1 0 
1 -11.401799662111301 -12.535260645522559 1 0 
1 0 0 0 -1 
1 7.0710678118654755 0 0 -1 
1 0 -1.3999999999999986 1 0 
1 -11.401799662111301 8.464739354477441 0 -1 
1 26 0 0 -1 
1 0 0 0 -1 
1 0 -1.3999999999999986 1 0 
1 10.598200337888699 -12.535260645522559 0 1 
1 0 0 0 -1 
1 17 0 0 -1 
1 0 -1.3999999999999986 1 0 
1 -6.4017996621113014 13.464739354477441 -0.70710678118654757 -0.70710678118654757 
1 0 -1.3999999999999986 1 0 
1 10.598200337888699 13.464739354477441 -1 0 
Curves 51
1 -22 -55 155 0 0 1 
1 -22 -55 199 -0 1 0 
1 -22 -52 155 0 0 1 
1 -22 -55 155 -0 1 0 
1 -22 -55 155 1 0 -0 
1 22 -55 155 0 0 1 
1 -22 -55 199 1 0 -0 
2 -16 -55 161 0 1 0 0 -0 1 1 0 -0 1.7
1 -15.5 -55 182 1 0 -0 
1 -9 -55 163.5 -0 0 -1 
1 9 -55 163.5 -0 0 -1 
1 -15.5 -55 172 1 0 -0 
2 -16 -55 193 0 1 0 0 -0 1 1 0 -0 1.7
2 16 -55 161 0 1 0 0 -0 1 1 0 -0 1.7
2 16 -55 193 0 1 0 0 -0 1 1 0 -0 1.7
1 -22 -52 199 1 0 -0 
1 22 -55 199 -0 1 0 
1 -22 -52 155 1 0 -0 
1 22 -52 155 0 0 1 
2 -16 -52 161 0 1 0 0 -0 1 1 0 -0 1.7
1 -13 -52 188 0 0 -1 
1 8 -52 188 -1 0 0 
1 -13 -52 166 1 0 0 
1 13 -52 183 -0.70710678118654746 0 0.70710678118654746 
1 13 -52 166 0 0 1 
2 -16 -52 193 0 1 0 0 -0 1 1 0 -0 1.7
2 16 -52 161 0 1 0 0 -0 1 1 0 -0 1.7
2 16 -52 193 0 1 0 0 -0 1 1 0 -0 1.7
1 22 -55 155 -0 1 0 
1 -16 -56 162.69999999999999 0 1 0 
1 -9 -56 182 -0 1 0 
1 -4.7323696772387205 -50.600000000000001 182 -1 0 0 
1 9 -56 182 -0 1 0 
1 -9 -50.600000000000001 174.29910016894434 0 -0 1 
1 -9 -56 172 -0 1 0 
1 9 -50.600000000000001 174.29910016894434 0 -0 1 
1 9 -56 172 -0 1 0 
1 -4.7323696772387205 -50.600000000000001 172 -1 0 0 
1 -16 -56 194.69999999999999 0 1 0 
1 16 -56 162.69999999999999 0 1 0 
1 16 -56 194.69999999999999 0 1 0 
1 -13 -52 188 0 1 0 
1 -13 -52 166 0 1 0 
1 -13 -52 188 0 0 -1 
1 8 -52 188 0 1 0 
1 8 -52 188 -1 0 0 
1 13 -52 166 0 1 0 
1 -13 -52 166 1 0 0 
1 13 -52 183 0 1 0 
1 13 -52 183 -0.70710678118654746 0 0.70710678118654746 
1 13 -52 166 0 0 1 
Polygon3D 0
PolygonOnTriangulations 0
Surfaces 20
1 -22 -55 155 1 0 -0 0 0 1 0 -1 0 
1 -22 -55 155 -0 1 0 0 0 1 1 0 -0 
1 -22 -55 199 0 0 1 1 0 -0 -0 1 0 
1 -22 -52 155 -0 1 0 0 0 1 1 0 -0 
1 -22 -55 155 0 0 1 1 0 -0 -0 1 0 
1 22 -55 155 1 0 -0 0 0 1 0 -1 0 
2 -16 -56 161 0 1 0 0 -0 1 1 0 -0 1.7
1 -9 -56 182 0 0 1 1 0 -0 -0 1 0 
1 -9 -56 172 1 0 -0 0 0 1 0 -1 0 
1 9 -56 172 1 0 -0 0 0 1 0 -1 0 
1 -9 -56 172 0 0 1 1 0 -0 -0 1 0 
2 -16 -56 193 0 1 0 0 -0 1 1 0 -0 1.7
2 16 -56 161 0 1 0 0 -0 1 1 0 -0 1.7
2 16 -56 193 0 1 0 0 -0 1 1 0 -0 1.7
1 -13 -52 188 -1 0 0 0 0 -1 -0 -1 -0 
1 8 -52 188 0 -0 1 -1 0 0 -0 -1 0 
1 -13 -52 166 0 0 -1 1 0 0 0 -1 0 
1 13 -52 183 0.70710678118654757 -0 0.70710678118654757 -0.70710678118654757 0 0.70710678118654757 -0 -1 0 
1 13 -52 166 1 0 0 0 0 1 0 -1 0 
1 -0.4647393544774408 -52 176.5982003378887 -0 -1 -0 0 0 -1 1 -0 0 
Triangulations 0

TShapes 139
Ve
1e-07
-22 -55 199
0 0

0101101
*
Ve
1e-07
-22 -55 155
0 0

0101101
*
Ed
 1e-07 1 1 0
1  1 0 0 44
2  1 1 0 0 44
2  2 2 0 0 44
0

0101000
-139 0 +138 0 *
Ve
1e-07
-22 -52 199
0 0

0101101
*
Ed
 1e-07 1 1 0
1  2 0 0 3
2  3 1 0 0 3
2  4 3 0 0 3
0

0101000
-136 0 +139 0 *
Ve
1e-07
-22 -52 155
0 0

0101101
*
Ed
 1e-07 1 1 0
1  3 0 0 44
2  5 1 0 0 44
2  6 4 0 0 44
0

0101000
-136 0 +134 0 *
Ed
 1e-07 1 1 0
1  4 0 0 3
2  7 1 0 0 3
2  8 5 0 0 3
0

0101000
-134 0 +138 0 *
Wi

0101100
-137 0 -135 0 +133 0 +132 0 *
Fa
0  1e-07 1 0

0111000
+131 0 *
Ve
1e-07
22 -55 155
0 0

0101101
*
Ed
 1e-07 1 1 0
1  5 0 0 44
2  9 2 0 0 44
2  10 5 0 0 44
0

0101000
-129 0 +138 0 *
Ve
1e-07
22 -55 199
0 0

0101101
*
Ed
 1e-07 1 1 0
1  6 0 0 44
2  11 2 0 0 44
2  12 6 0 0 44
0

0101000
-127 0 +129 0 *
Ed
 1e-07 1 1 0
1  7 0 0 44
2  13 2 0 0 44
2  14 3 0 0 44
0

0101000
-127 0 +139 0 *
Wi

0101100
-128 0 -126 0 +137 0 +125 0 *
Ve
1e-07
-16 -55 162.7
0 0

0101101
*
Ed
 1e-07 1 1 0
1  8 0 0 6.28318530717959
2  15 2 0 0 6.28318530717959
2  16 7 0 0 6.28318530717959
0

0101000
+123 0 -123 0 *
Wi

0101100
-122 0 *
Ve
1.5e-07
-9 -55 182
0 0

0101101
*
Ve
1.5e-07
9 -55 182
0 0

0101101
*
Ed
 1.5e-07 1 1 0
1  9 0 6.5 24.5
2  17 2 0 6.5 24.5
2  18 8 0 6.5 24.5
0

0101000
+120 0 -119 0 *
Ve
1.5e-07
-9 -55 172
0 0

0101101
*
Ed
 1.5e-07 1 1 0
1  10 0 -18.5 -8.5
2  19 2 0 -18.5 -8.5
2  20 9 0 -18.5 -8.5
0

0101000
+120 0 -117 0 *
Ve
1.5e-07
9 -55 172
0 0

0101101
*
Ed
 1.5e-07 1 1 0
1  11 0 -18.5 -8.5
2  21 2 0 -18.5 -8.5
2  22 10 0 -18.5 -8.5
0

0101000
+119 0 -115 0 *
Ed
 1.5e-07 1 1 0
1  12 0 6.5 24.5
2  23 2 0 6.5 24.5
2  24 11 0 6.5 24.5
0

0101000
+117 0 -115 0 *
Wi

0101100
-118 0 +116 0 -114 0 +113 0 *
Ve
1e-07
-16 -55 194.7
0 0

0101101
*
Ed
 1e-07 1 1 0
1  13 0 0 6.28318530717959
2  25 2 0 0 6.28318530717959
2  26 12 0 0 6.28318530717959
0

0101000
+111 0 -111 0 *
Wi

0101100
-110 0 *
Ve
1e-07
16 -55 162.7
0 0

0101101
*
Ed
 1e-07 1 1 0
1  14 0 0 6.28318530717959
2  27 2 0 0 6.28318530717959
2  28 13 0 0 6.28318530717959
0

0101000
+108 0 -108 0 *
Wi

0101100
-107 0 *
Ve
1e-07
16 -55 194.7
0 0

0101101
*
Ed
 1e-07 1 1 0
1  15 0 0 6.28318530717959
2  29 2 0 0 6.28318530717959
2  30 14 0 0 6.28318530717959
0

0101000
+105 0 -105 0 *
Wi

0101100
-104 0 *
Fa
0  1e-07 2 0

0101000
+124 0 +121 0 +112 0 +109 0 +106 0 +103 0 *
Ve
1e-07
22 -52 199
0 0

0101101
*
Ed
 1e-07 1 1 0
1  16 0 0 44
2  31 3 0 0 44
2  32 4 0 0 44
0

0101000
-101 0 +136 0 *
Ed
 1e-07 1 1 0
1  17 0 0 3
2  33 3 0 0 3
2  34 6 0 0 3
0

0101000
-101 0 +127 0 *
Wi

0101100
-135 0 -100 0 +99 0 +125 0 *
Fa
0  1e-07 3 0

0111000
+98 0 *
Ve
1e-07
22 -52 155
0 0

0101101
*
Ed
 1e-07 1 1 0
1  18 0 0 44
2  35 4 0 0 44
2  36 5 0 0 44
0

0101000
-96 0 +134 0 *
Ed
 1e-07 1 1 0
1  19 0 0 44
2  37 4 0 0 44
2  38 6 0 0 44
0

0101000
-101 0 +96 0 *
Wi

0101100
-95 0 -94 0 +133 0 +100 0 *
Ve
1e-07
-16 -52 162.7
0 0

0101101
*
Ed
 1e-07 1 1 0
1  20 0 0 6.28318530717959
2  39 4 0 0 6.28318530717959
2  40 7 0 0 6.28318530717959
0

0101000
+92 0 -92 0 *
Wi

0101100
-91 0 *
Ve
1e-07
-13 -52 188
0 0

0101101
*
Ve
1e-07
-13 -52 166
0 0

0101101
*
Ed
 1e-07 1 1 0
1  21 0 0 22
2  41 4 0 0 22
2  42 15 0 0 22
0

0101000
+89 0 -88 0 *
Ve
1e-07
8 -52 188
0 0

0101101
*
Ed
 1e-07 1 1 0
1  22 0 0 21
2  43 4 0 0 21
2  44 16 0 0 21
0

0101000
+86 0 -89 0 *
Ve
1e-07
13 -52 166
0 0

0101101
*
Ed
 1e-07 1 1 0
1  23 0 0 26
2  45 4 0 0 26
2  46 17 0 0 26
0

0101000
+88 0 -84 0 *
Ve
1e-07
13 -52 183
0 0

0101101
*
Ed
 1e-07 1 1 0
1  24 0 0 7.07106781186548
2  47 4 0 0 7.07106781186548
2  48 18 0 0 7.07106781186548
0

0101000
+82 0 -86 0 *
Ed
 1e-07 1 1 0
1  25 0 0 17
2  49 4 0 0 17
2  50 19 0 0 17
0

0101000
+84 0 -82 0 *
Wi

0101100
+87 0 +85 0 +83 0 +81 0 +80 0 *
Ve
1e-07
-16 -52 194.7
0 0

0101101
*
Ed
 1e-07 1 1 0
1  26 0 0 6.28318530717959
2  51 4 0 0 6.28318530717959
2  52 12 0 0 6.28318530717959
0

0101000
+78 0 -78 0 *
Wi

0101100
-77 0 *
Ve
1e-07
16 -52 162.7
0 0

0101101
*
Ed
 1e-07 1 1 0
1  27 0 0 6.28318530717959
2  53 4 0 0 6.28318530717959
2  54 13 0 0 6.28318530717959
0

0101000
+75 0 -75 0 *
Wi

0101100
-74 0 *
Ve
1e-07
16 -52 194.7
0 0

0101101
*
Ed
 1e-07 1 1 0
1  28 0 0 6.28318530717959
2  55 4 0 0 6.28318530717959
2  56 14 0 0 6.28318530717959
0

0101000
+72 0 -72 0 *
Wi

0101100
-71 0 *
Fa
0  1e-07 4 0

0101000
+93 0 +90 0 +79 0 +76 0 +73 0 +70 0 *
Ed
 1e-07 1 1 0
1  29 0 0 3
2  57 5 0 0 3
2  58 6 0 0 3
0

0101000
-96 0 +129 0 *
Wi

0101100
-132 0 -95 0 +68 0 +128 0 *
Fa
0  1e-07 5 0

0111000
+67 0 *
Wi

0101100
-126 0 -99 0 +94 0 +68 0 *
Fa
0  1e-07 6 0

0111000
+65 0 *
Ed
 1e-07 1 1 0
1  30 0 1 4
3  59 60CN 7 0 1 4
0

0101000
+123 0 -92 0 *
Wi

0101100
-91 0 +63 0 +122 0 -63 0 *
Fa
0  1e-07 7 0

0101000
+62 0 *
Ve
1.5e-07
-9 -50.6 182
0 0

0101101
*
Ed
 1e-07 1 1 0
1  31 0 1 5.4
2  61 8 0 1 5.4
2  62 9 0 1 5.4
0

0101000
+120 0 -60 0 *
Ve
1.5e-07
9 -50.6 182
0 0

0101101
*
Ed
 1.5e-07 1 1 0
1  32 0 -13.7323696772387 4.26763032276128
2  63 8 0 -13.7323696772387 4.26763032276128
2  64 20 2 -13.7323696772387 4.26763032276128
0

0101000
+58 0 -60 0 *
Ed
 1e-07 1 1 0
1  33 0 1 5.4
2  65 8 0 1 5.4
2  66 10 0 1 5.4
0

0101000
+119 0 -58 0 *
Wi

0101100
-59 0 +57 0 +56 0 +118 0 *
Fa
0  1e-07 8 0

0101000
+55 0 *
Ve
1.5e-07
-9 -50.6 172
0 0

0101101
*
Ed
 1.5e-07 1 1 0
1  34 0 -2.29910016894434 7.70089983105566
2  67 9 0 -2.29910016894434 7.70089983105566
2  68 20 2 -2.29910016894434 7.70089983105566
0

0101000
+53 0 -60 0 *
Ed
 1e-07 1 1 0
1  35 0 1 5.4
2  69 9 0 1 5.4
2  70 11 0 1 5.4
0

0101000
+117 0 -53 0 *
Wi

0101100
-59 0 +52 0 +51 0 +116 0 *
Fa
0  1e-07 9 0

0101000
+50 0 *
Ve
1.5e-07
9 -50.6 172
0 0

0101101
*
Ed
 1.5e-07 1 1 0
1  36 0 -2.29910016894434 7.70089983105566
2  71 10 0 -2.29910016894434 7.70089983105566
2  72 20 2 -2.29910016894434 7.70089983105566
0

0101000
+48 0 -58 0 *
Ed
 1e-07 1 1 0
1  37 0 1 5.4
2  73 10 0 1 5.4
2  74 11 0 1 5.4
0

0101000
+115 0 -48 0 *
Wi

0101100
-56 0 +47 0 +46 0 +114 0 *
Fa
0  1e-07 10 0

0101000
+45 0 *
Ed
 1.5e-07 1 1 0
1  38 0 -13.7323696772387 4.26763032276128
2  75 11 0 -13.7323696772387 4.26763032276128
2  76 20 2 -13.7323696772387 4.26763032276128
0

0101000
+48 0 -53 0 *
Wi

0101100
-51 0 +43 0 +46 0 +113 0 *
Fa
0  1e-07 11 0

0101000
+42 0 *
Ed
 1e-07 1 1 0
1  39 0 1 4
3  77 78CN 12 0 1 4
0

0101000
+111 0 -78 0 *
Wi

0101100
-77 0 +40 0 +110 0 -40 0 *
Fa
0  1e-07 12 0

0101000
+39 0 *
Ed
 1e-07 1 1 0
1  40 0 1 4
3  79 80CN 13 0 1 4
0

0101000
+108 0 -75 0 *
Wi

0101100
-74 0 +37 0 +107 0 -37 0 *
Fa
0  1e-07 13 0

0101000
+36 0 *
Ed
 1e-07 1 1 0
1  41 0 1 4
3  81 82CN 14 0 1 4
0

0101000
+105 0 -72 0 *
Wi

0101100
-71 0 +34 0 +104 0 -34 0 *
Fa
0  1e-07 14 0

0101000
+33 0 *
Ve
1e-07
-13 -50.6 188
0 0

0101101
*
Ed
 1e-07 1 1 0
1  42 0 0 1.4
2  83 15 0 0 1.4
2  84 16 0 0 1.4
0

0101000
+89 0 -31 0 *
Ve
1e-07
-13 -50.6 166
0 0

0101101
*
Ed
 1e-07 1 1 0
1  43 0 0 1.4
2  85 15 0 0 1.4
2  86 17 0 0 1.4
0

0101000
+88 0 -29 0 *
Ed
 1e-07 1 1 0
1  44 0 0 22
2  87 15 3 0 22
2  88 20 0 0 22
0

0101000
+31 3 -29 3 *
Wi

0101100
+30 0 -28 0 -87 0 +27 2 *
Fa
0  1e-07 15 0

0101000
+26 0 *
Ve
1e-07
8 -50.6 188
0 0

0101101
*
Ed
 1e-07 1 1 0
1  45 0 0 1.4
2  89 16 0 0 1.4
2  90 18 0 0 1.4
0

0101000
+86 0 -24 0 *
Ed
 1e-07 1 1 0
1  46 0 0 21
2  91 16 3 0 21
2  92 20 0 0 21
0

0101000
+24 3 -31 3 *
Wi

0101100
+23 0 -30 0 -85 0 +22 2 *
Fa
0  1e-07 16 0

0101000
+21 0 *
Ve
1e-07
13 -50.6 166
0 0

0101101
*
Ed
 1e-07 1 1 0
1  47 0 0 1.4
2  93 17 0 0 1.4
2  94 19 0 0 1.4
0

0101000
+84 0 -19 0 *
Ed
 1e-07 1 1 0
1  48 0 0 26
2  95 17 3 0 26
2  96 20 0 0 26
0

0101000
+29 3 -19 3 *
Wi

0101100
+28 0 -18 0 -83 0 +17 2 *
Fa
0  1e-07 17 0

0101000
+16 0 *
Ve
1e-07
13 -50.6 183
0 0

0101101
*
Ed
 1e-07 1 1 0
1  49 0 0 1.4
2  97 18 0 0 1.4
2  98 19 0 0 1.4
0

0101000
+82 0 -14 0 *
Ed
 1e-07 1 1 0
1  50 0 0 7.07106781186548
2  99 18 3 0 7.07106781186548
2  100 20 0 0 7.07106781186548
0

0101000
+14 3 -24 3 *
Wi

0101100
+13 0 -23 0 -81 0 +12 2 *
Fa
0  1e-07 18 0

0101000
+11 0 *
Ed
 1e-07 1 1 0
1  51 0 0 17
2  101 19 3 0 17
2  102 20 0 0 17
0

0101000
+19 3 -14 3 *
Wi

0101100
+18 0 -13 0 -80 0 +9 2 *
Fa
0  1e-07 19 0

0101000
+8 0 *
Wi

0101100
+17 2 +27 2 +9 2 +22 2 +12 2 *
Wi

0101100
+43 0 -47 0 -57 0 +52 0 *
Fa
0  1e-07 20 2

0101000
+6 0 +5 0 *
Sh

0101100
-130 0 -102 0 +97 0 +69 0 -66 0 +64 0 -61 0 -54 0 +49 0 -44 0 
+41 0 -38 0 -35 0 -32 0 +25 0 +20 0 +15 0 +10 0 +7 0 -4 0 
*
So

0100000
+3 0 *
Co

0100000
+2 0 *

+1 1 