DBRep_DrawableShape

CASCADE Topology V1, (c) Matra-Datavision
Locations 6
1
              1               0               0               0 
              0               1               0               0 
              0               0               1               0 
1
              1               0               0               0 
              0               1               0               0 
              0               0               1               0 
2  2 -1 0
1
              1               0               0               0 
              0               1               0             1.7 
              0               0               1               0 
2  4 -1 0
2  2 -1 4 -1 0
Curve2ds 246
1 0 0 1 0 
1 0 0 1 0 
1 44 0 0 -1 
1 0 0 0 1 
1 0 -4 1 0 
1 0 0 1 0 
1 0 0 0 -1 
1 0 0 0 1 
1 0 0 0 1 
1 0 0 1 0 
1 0 44 1 0 
1 0 0 1 0 
1 44 0 0 1 
1 0 0 1 0 
2 6 6 1 0 -0 1 1.7
1 0 1 1 0 
8 -30.800000000000001 -4.4000000000000021
1 10.800000000000011 4.3999999999999986 0 -1 
8 -30.800000000000001 -4.4000000000000021
1 -4.4000000000000021 -0.10000000000000142 -1 -0 
8 -22.799999999999983 -5.4000000000000057
1 5.4000000000000057 35.200000000000003 -1 0 
8 -22.799999999999983 -5.4000000000000057
1 -5.4000000000000057 -0.10000000000000142 -1 0 
8 -5.7999999999999829 16.599999999999994
1 16.599999999999994 8.8000000000000007 1 0 
8 -5.7999999999999829 16.599999999999994
1 16.599999999999994 -0.10000000000000142 -1 -0 
8 -4.5961940777125578 2.4748737341529177
1 29.949999999999989 33.449999999999996 -0.70710678118654757 0.70710678118654757 
8 -4.5961940777125578 2.4748737341529177
1 2.4748737341529177 -0.10000000000000142 -1 -0 
8 -6.2999999999999989 15.1
1 33.199999999999989 15.1 0 1 
8 -6.2999999999999989 15.1
1 15.1 -0.10000000000000142 -1 0 
2 38 6 1 0 -0 1 1.7
1 0 1 1 0 
2 6 38 1 0 -0 1 1.7
1 0 1 1 0 
2 38 38 1 0 -0 1 1.7
1 0 1 1 0 
1 0 4 1 0 
1 44 0 0 1 
1 44 0 0 1 
1 44 0 0 -1 
1 0 0 0 1 
1 0 4 1 0 
1 0 44 1 0 
1 0 -4 1 0 
8 -3.5662486121389567 -0.27535207775809456
1 5.7615381056766637 9.4285725732599168 -0.86602540378443826 0.50000000000000078 
8 -3.5662486121389567 -0.27535207775809456
1 -0.27535207775809456 -2.6000000000000014 -1 -0 
8 0.53182759921435263 3.8227241335952176
1 8.8499999999999943 3.8227241335952158 0 1 
8 0.53182759921435263 3.8227241335952176
1 3.8227241335952176 -2.6000000000000014 -1 0 
8 -6.5662486121389616 -3.2753520777580993
1 0.31346189432335336 6.0077722283113744 -0.86602540378443826 -0.50000000000000078 
8 -6.5662486121389616 -3.2753520777580993
1 -3.2753520777580993 -2.6000000000000014 -1 -0 
8 1.6299038105676549 4.9208003449485176
1 4.588461894323359 1.8941515603352919 0.86602540378443804 0.50000000000000111 
8 1.6299038105676549 4.9208003449485176
1 4.9208003449485176 -2.6000000000000014 -1 0 
8 -5.4681724007856491 -2.1772758664047807
1 3.1500000000000057 2.1772758664047842 0 -1 
8 -5.4681724007856491 -2.1772758664047807
1 -2.1772758664047807 -2.6000000000000014 -1 -0 
8 -1.3700961894323234 1.9208003449485376
1 4.3365381056766523 3.6695036380933992 0.86602540378443849 -0.50000000000000033 
8 -1.3700961894323234 1.9208003449485376
1 1.9208003449485376 -2.6000000000000014 -1 0 
8 -17.422655072689981 -14.131758538309118
1 25.761538105676664 16.356775803535434 -0.86602540378443826 0.50000000000000078 
8 -17.422655072689981 -14.131758538309118
1 -14.131758538309118 -2.6000000000000014 -1 -0 
8 0.53182759921435263 3.8227241335952176
1 40.849999999999994 3.8227241335952158 0 1 
8 0.53182759921435263 3.8227241335952176
1 3.8227241335952176 -2.6000000000000014 -1 0 
8 -20.422655072689984 -17.131758538309121
1 20.313461894323353 -0.92043100196413974 -0.86602540378443826 -0.50000000000000078 
8 -20.422655072689984 -17.131758538309121
1 -17.131758538309121 -2.6000000000000014 -1 -0 
8 15.486310271118679 18.777206805499542
1 24.588461894323359 -5.0340516699402258 0.86602540378443804 0.50000000000000111 
8 15.486310271118679 18.777206805499542
1 18.777206805499542 -2.6000000000000014 -1 0 
8 -5.4681724007856491 -2.1772758664047807
1 35.150000000000006 2.1772758664047842 0 -1 
8 -5.4681724007856491 -2.1772758664047807
1 -2.1772758664047807 -2.6000000000000014 -1 -0 
8 12.486310271118699 15.77720680549956
1 24.336538105676652 10.597706868368915 0.86602540378443849 -0.50000000000000033 
8 12.486310271118699 15.77720680549956
1 15.77720680549956 -2.6000000000000014 -1 0 
8 4.4337513878610633 7.7246479222419246
1 12.689741335952192 37.428572573259913 -0.86602540378443849 0.50000000000000033 
8 4.4337513878610633 7.7246479222419246
1 7.7246479222419246 -2.6000000000000014 -1 -0 
8 16.531827599214346 19.822724133595216
1 8.8499999999999943 19.822724133595216 0 1 
8 16.531827599214346 19.822724133595216
1 19.822724133595216 -2.6000000000000014 -1 0 
8 -14.566248612138951 -11.27535207775809
1 -6.6147413359521465 34.007772228311381 -0.86602540378443849 -0.50000000000000033 
8 -14.566248612138951 -11.27535207775809
1 -11.27535207775809 -2.6000000000000014 -1 -0 
8 9.6299038105676722 12.920800344948535
1 -2.3397413359521693 29.894151560335288 0.86602540378443826 0.50000000000000078 
8 9.6299038105676722 12.920800344948535
1 12.920800344948535 -2.6000000000000014 -1 0 
8 -21.468172400785654 -18.177275866404784
1 3.1500000000000057 18.177275866404784 0 -1 
8 -21.468172400785654 -18.177275866404784
1 -18.177275866404784 -2.6000000000000014 -1 -0 
8 -9.370096189432342 -6.0791996550514806
1 11.264741335952181 31.669503638093396 0.86602540378443849 -0.50000000000000033 
8 -9.370096189432342 -6.0791996550514806
1 -6.0791996550514806 -2.6000000000000014 -1 0 
8 6.5 24.5
1 27 6.5 0 1 
8 6.5 24.5
1 -6.5 5 1 0 
8 -18.5 -8.5
1 8.5 13 -1 0 
8 -18.5 -8.5
1 -8.5 -5 -1 -0 
8 -18.5 -8.5
1 8.5 31 -1 0 
8 -18.5 -8.5
1 -8.5 -5 -1 -0 
8 6.5 24.5
1 17 6.5 0 1 
8 6.5 24.5
1 -6.5 5 1 0 
8 -9.4226550726899543 -6.1317585383090938
1 32.689741335952192 44.35677580353542 -0.86602540378443849 0.50000000000000033 
8 -9.4226550726899543 -6.1317585383090938
1 -6.1317585383090938 -2.6000000000000014 -1 -0 
8 -28.42265507268997 -25.131758538309111
1 13.385258664047853 27.079568998035867 -0.86602540378443849 -0.50000000000000033 
8 -28.42265507268997 -25.131758538309111
1 -25.131758538309111 -2.6000000000000014 -1 -0 
8 -21.468172400785654 -18.177275866404784
1 35.150000000000006 18.177275866404784 0 -1 
8 -21.468172400785654 -18.177275866404784
1 -18.177275866404784 -2.6000000000000014 -1 -0 
8 4.4863102711186791 7.7772068054995405
1 31.264741335952181 38.59770686836891 0.86602540378443849 -0.50000000000000033 
8 4.4863102711186791 7.7772068054995405
1 7.7772068054995405 -2.6000000000000014 -1 0 
8 23.486310271118697 26.77720680549956
1 17.660258664047831 22.965948330059767 0.86602540378443826 0.50000000000000078 
8 23.486310271118697 26.77720680549956
1 26.77720680549956 -2.6000000000000014 -1 0 
8 16.531827599214346 19.822724133595216
1 40.849999999999994 19.822724133595216 0 1 
8 16.531827599214346 19.822724133595216
1 19.822724133595216 -2.6000000000000014 -1 0 
1 44 0 0 1 
1 0 0 0 -1 
1 0 2.4000000000000057 1 0 
2 0 -3.5527136788005009e-15 -1 0 0 1 1.7
1 6.2831853071795862 -0 0 1 
1 0 -0 0 1 
1 26.399999999999999 0 0 -1 
1 0 0 0 -1 
1 0 -1.7000000000000028 1 0 
1 10.798803405151716 -12.736927432780631 0 1 
1 0 0 0 -1 
1 22.399999999999977 0 0 -1 
1 17.399999999999977 0 0 -1 
1 0 0 0 -1 
1 0 -1.7000000000000028 1 0 
1 10.798803405151716 13.663072567219368 -1 0 
1 0 -1.7000000000000028 1 0 
1 -11.601196594848261 -12.736927432780631 1 0 
1 0 -0 0 -1 
1 21.399999999999999 0 0 -1 
1 7.0710678118654755 0 0 -1 
1 0 0 0 -1 
1 0 -1.7000000000000028 1 0 
1 -6.6011965948482612 13.663072567219368 -0.70710678118654757 -0.70710678118654757 
1 0 -1.7000000000000028 1 0 
1 -11.601196594848261 8.663072567219368 0 -1 
1 0 2.4000000000000057 1 0 
2 -2.8421709430404007e-14 -3.5527136788005009e-15 -1 0 0 1 1.7
1 6.2831853071795862 -0 0 1 
1 0 -0 0 1 
1 0 2.4000000000000128 1 0 
2 -2.8421709430404007e-14 0 -1 0 0 1 1.7
1 6.2831853071795862 -0 0 1 
1 0 -0 0 1 
1 0 2.4000000000000128 1 0 
2 -5.6843418860808015e-14 0 -1 0 0 1 1.7
1 6.2831853071795862 -0 0 1 
1 0 -0 0 1 
1 0 0 1 0 
1 0 3.2908965343808632 -0.86602540378443826 -0.50000000000000078 
1 3.2908965343808623 0 0 -1 
1 0 0 0 -1 
1 0 0 0 -1 
1 3.2908965343808623 0 0 -1 
1 0 0 1 0 
1 -2.8499999999999943 1.6454482671904298 0 -1 
1 3.2908965343808649 0 0 -1 
1 0 0 0 -1 
1 0 0 1 0 
1 2.8499999999999943 1.6454482671904298 -0.86602540378443826 0.50000000000000078 
1 0 0 0 -1 
1 3.2908965343808685 0 0 -1 
1 0 0 1 0 
1 -2.8499999999999943 -1.6454482671904351 0.86602540378443804 -0.50000000000000111 
1 3.2908965343808627 0 0 -1 
1 0 0 0 -1 
1 0 0 1 0 
1 2.8499999999999943 -1.6454482671904387 0 1 
1 0 0 0 -1 
1 3.2908965343808609 0 0 -1 
1 0 0 1 0 
1 0 -3.2908965343808703 0.86602540378443849 0.50000000000000033 
1 0 0 1 0 
1 -2.8421709430404007e-14 3.2908965343808632 -0.86602540378443826 -0.50000000000000078 
1 3.2908965343808623 0 0 -1 
1 0 0 0 -1 
1 0 0 0 -1 
1 3.2908965343808623 0 0 -1 
1 0 0 1 0 
1 -2.8500000000000227 1.6454482671904298 0 -1 
1 3.2908965343808649 0 0 -1 
1 0 0 0 -1 
1 0 0 1 0 
1 2.8499999999999659 1.6454482671904298 -0.86602540378443826 0.50000000000000078 
1 0 0 0 -1 
1 3.2908965343808685 0 0 -1 
1 0 0 1 0 
1 -2.8500000000000227 -1.6454482671904351 0.86602540378443804 -0.50000000000000111 
1 3.2908965343808627 0 0 -1 
1 0 0 0 -1 
1 0 0 1 0 
1 2.8499999999999659 -1.6454482671904387 0 1 
1 0 0 0 -1 
1 3.2908965343808609 0 0 -1 
1 0 0 1 0 
1 -2.8421709430404007e-14 -3.2908965343808703 0.86602540378443849 0.50000000000000033 
1 0 0 1 0 
1 -2.8421709430404007e-14 3.2908965343808667 -0.86602540378443849 -0.50000000000000033 
1 3.2908965343808609 0 0 -1 
1 0 0 0 -1 
1 0 0 0 -1 
1 3.2908965343808609 0 0 -1 
1 0 0 1 0 
1 -2.8500000000000227 1.6454482671904351 0 -1 
1 3.2908965343808685 0 0 -1 
1 0 0 0 -1 
1 0 0 1 0 
1 2.8499999999999659 1.6454482671904351 -0.86602540378443849 0.50000000000000033 
1 0 0 0 -1 
1 3.2908965343808703 0 0 -1 
1 0 0 1 0 
1 -2.8500000000000227 -1.6454482671904334 0.86602540378443826 -0.50000000000000078 
1 3.2908965343808623 0 0 -1 
1 0 0 0 -1 
1 0 0 1 0 
1 2.8499999999999659 -1.6454482671904351 0 1 
1 0 0 0 -1 
1 3.2908965343808609 0 0 -1 
1 0 0 1 0 
1 -2.8421709430404007e-14 -3.2908965343808667 0.86602540378443849 0.50000000000000033 
1 0 0 0 1 
1 10 0 0 -1 
1 18 0 0 1 
1 10 0 0 -1 
8 -13.731536283609685 4.2684637163903156
1 4.2684637163903156 2.5999999999999943 -1 0 
8 -13.731536283609685 4.2684637163903156
1 -5.4011965948482725 -4.2684637163903165 0 -1 
1 0 0 0 -1 
1 0 0 0 1 
8 -2.2994017025758637 7.7005982974241363
1 2.2994017025758637 -2.5999999999999943 1 0 
8 -2.2994017025758637 7.7005982974241363
1 2.2994017025758637 -8.5369274327806313 -1 0 
1 0 0 0 -1 
1 18 0 0 1 
8 -2.2994017025758637 7.7005982974241363
1 2.2994017025758637 -2.5999999999999943 1 0 
8 -2.2994017025758637 7.7005982974241363
1 2.2994017025758637 9.4630725672193687 -1 0 
8 -13.731536283609685 4.2684637163903156
1 4.2684637163903156 2.5999999999999943 -1 0 
8 -13.731536283609685 4.2684637163903156
1 4.5988034051517275 -4.2684637163903165 0 -1 
1 0 0 1 0 
1 -5.6843418860808015e-14 3.2908965343808667 -0.86602540378443849 -0.50000000000000033 
1 3.2908965343808609 0 0 -1 
1 0 0 0 -1 
1 0 0 0 -1 
1 3.2908965343808609 0 0 -1 
1 0 0 1 0 
1 2.8499999999999375 1.6454482671904351 -0.86602540378443849 0.50000000000000033 
1 0 0 0 -1 
1 3.2908965343808703 0 0 -1 
1 0 0 1 0 
1 2.8499999999999375 -1.6454482671904351 0 1 
1 0 0 0 -1 
1 3.2908965343808609 0 0 -1 
1 0 0 1 0 
1 -5.6843418860808015e-14 -3.2908965343808667 0.86602540378443849 0.50000000000000033 
1 0 0 0 -1 
1 3.2908965343808623 0 0 -1 
1 0 0 1 0 
1 -2.8500000000000512 -1.6454482671904334 0.86602540378443826 -0.50000000000000078 
1 0 0 0 -1 
1 3.2908965343808685 0 0 -1 
1 0 0 1 0 
1 -2.8500000000000512 1.6454482671904351 0 -1 
Curves 123
1 -22 -52 155 0 0 1 
1 -22 -52 199 -0 1 0 
1 -22 -48 155 0 0 1 
1 -22 -52 155 -0 1 0 
1 -22 -52 155 1 0 -0 
1 22 -52 155 0 0 1 
1 -22 -52 199 1 0 -0 
2 -16 -52 161 0 1 0 0 -0 1 1 0 -0 1.7
1 -17.600000000000001 -52 165.80000000000001 -1 0 -0 
1 13.200000000000001 -52 160.40000000000001 0 0 -1 
1 -13.199999999999999 -52 171.59999999999999 0 0 1 
1 11.449999999999998 -52 184.94999999999999 0.70710678118654757 0 -0.70710678118654757 
1 -6.9000000000000004 -52 188.19999999999999 1 0 0 
2 -16 -52 193 0 1 0 0 -0 1 1 0 -0 1.7
2 16 -52 161 0 1 0 0 -0 1 1 0 -0 1.7
2 16 -52 193 0 1 0 0 -0 1 1 0 -0 1.7
1 -22 -48 199 1 0 -0 
1 22 -52 199 -0 1 0 
1 -22 -48 155 1 0 -0 
1 22 -48 155 0 0 1 
1 -12.571427426740083 -48 160.76153810567666 0.50000000000000078 0 -0.86602540378443826 
1 -18.177275866404784 -48 163.84999999999999 1 0 0 
1 -15.992227771688626 -48 155.31346189432335 -0.50000000000000078 0 -0.86602540378443826 
1 -20.105848439664708 -48 159.58846189432336 0.50000000000000111 0 0.86602540378443804 
1 -19.822724133595216 -48 158.15000000000001 -1 0 -0 
1 -18.330496361906601 -48 159.33653810567665 -0.50000000000000033 -0 0.86602540378443849 
1 -5.6432241964645637 -48 180.76153810567666 0.50000000000000078 0 -0.86602540378443826 
1 -18.177275866404784 -48 195.84999999999999 1 0 0 
1 -22.92043100196414 -48 175.31346189432335 -0.50000000000000078 0 -0.86602540378443826 
1 -27.034051669940226 -48 179.58846189432336 0.50000000000000111 0 0.86602540378443804 
1 -19.822724133595216 -48 190.15000000000001 -1 0 -0 
1 -11.402293131631085 -48 179.33653810567665 -0.50000000000000033 -0 0.86602540378443849 
1 15.428572573259911 -48 167.68974133595219 0.50000000000000033 0 -0.86602540378443849 
1 -2.1772758664047824 -48 163.84999999999999 1 0 0 
1 12.00777222831138 -48 148.38525866404785 -0.50000000000000033 0 -0.86602540378443849 
1 7.8941515603352874 -48 152.66025866404783 0.50000000000000078 0 0.86602540378443826 
1 -3.8227241335952176 -48 158.15000000000001 -1 0 -0 
1 9.6695036380933956 -48 166.26474133595218 -0.50000000000000033 -0 0.86602540378443849 
1 -15.5 -48 182 1 0 -0 
1 -9 -48 163.5 -0 0 -1 
1 9 -48 163.5 -0 0 -1 
1 -15.5 -48 172 1 0 -0 
1 22.35677580353542 -48 187.68974133595219 0.50000000000000033 0 -0.86602540378443849 
1 5.0795689980358683 -48 168.38525866404785 -0.50000000000000033 0 -0.86602540378443849 
1 -3.8227241335952176 -48 190.15000000000001 -1 0 -0 
1 16.59770686836891 -48 186.26474133595218 -0.50000000000000033 -0 0.86602540378443849 
1 0.96594833005976888 -48 172.66025866404783 0.50000000000000078 0 0.86602540378443826 
1 -2.1772758664047824 -48 195.84999999999999 1 0 0 
1 22 -52 155 -0 1 0 
2 -16 -50.599999999999994 161 0 1 0 0 -0 1 1 0 -0 1.7
1 -16 -53 162.69999999999999 0 1 0 
1 13.199999999999999 -52.100000000000001 165.80000000000001 0 1 0 
1 -13.199999999999999 -52.100000000000001 165.80000000000001 1 0 0 
1 -13.199999999999999 -52.100000000000001 165.80000000000001 0 1 0 
1 13.199999999999999 -52.100000000000001 183.19999999999999 0 1 0 
1 13.199999999999999 -52.100000000000001 165.80000000000001 0 0 1 
1 -13.199999999999999 -52.100000000000001 188.19999999999999 0 0 -1 
1 -13.199999999999999 -52.100000000000001 188.19999999999999 0 1 0 
1 8.1999999999999993 -52.100000000000001 188.19999999999999 0 1 0 
1 13.199999999999999 -52.100000000000001 183.19999999999999 -0.70710678118654746 0 0.70710678118654746 
1 8.1999999999999993 -52.100000000000001 188.19999999999999 -1 0 0 
2 -16 -50.599999999999994 193 0 1 0 0 -0 1 1 0 -0 1.7
1 -16 -53 194.69999999999999 0 1 0 
2 16 -50.599999999999987 161 0 1 0 0 -0 1 1 0 -0 1.7
1 16 -53 162.69999999999999 0 1 0 
2 16 -50.599999999999987 193 0 1 0 0 -0 1 1 0 -0 1.7
1 16 -53 194.69999999999999 0 1 0 
1 -12.709103465619133 -50.600000000000001 161 -0.50000000000000078 0 0.86602540378443826 
1 -14.354551732809567 -50.600000000000001 163.84999999999999 0 1 0 
1 -12.709103465619133 -50.600000000000001 161 0 1 0 
1 -14.354551732809567 -50.600000000000001 163.84999999999999 -1 0 0 
1 -17.645448267190432 -50.600000000000001 163.84999999999999 0 1 0 
1 -14.354551732809567 -50.600000000000001 158.15000000000001 0.50000000000000078 0 0.86602540378443826 
1 -14.354551732809567 -50.600000000000001 158.15000000000001 0 1 0 
1 -17.645448267190432 -50.600000000000001 163.84999999999999 -0.50000000000000111 0 -0.86602540378443804 
1 -19.290896534380867 -50.600000000000001 161 0 1 0 
1 -17.645448267190435 -50.600000000000001 158.15000000000001 1 0 0 
1 -17.645448267190435 -50.600000000000001 158.15000000000001 0 1 0 
1 -19.290896534380867 -50.600000000000001 161 0.50000000000000033 0 -0.86602540378443849 
1 -12.709103465619133 -50.600000000000001 193 -0.50000000000000078 0 0.86602540378443826 
1 -14.354551732809567 -50.600000000000001 195.84999999999999 0 1 0 
1 -12.709103465619133 -50.600000000000001 193 0 1 0 
1 -14.354551732809567 -50.600000000000001 195.84999999999999 -1 0 0 
1 -17.645448267190432 -50.600000000000001 195.84999999999999 0 1 0 
1 -14.354551732809567 -50.600000000000001 190.15000000000001 0.50000000000000078 0 0.86602540378443826 
1 -14.354551732809567 -50.600000000000001 190.15000000000001 0 1 0 
1 -17.645448267190432 -50.600000000000001 195.84999999999999 -0.50000000000000111 0 -0.86602540378443804 
1 -19.290896534380867 -50.600000000000001 193 0 1 0 
1 -17.645448267190435 -50.600000000000001 190.15000000000001 1 0 0 
1 -17.645448267190435 -50.600000000000001 190.15000000000001 0 1 0 
1 -19.290896534380867 -50.600000000000001 193 0.50000000000000033 0 -0.86602540378443849 
1 19.290896534380867 -50.600000000000001 161 -0.50000000000000033 0 0.86602540378443849 
1 17.645448267190435 -50.600000000000001 163.84999999999999 0 1 0 
1 19.290896534380867 -50.600000000000001 161 0 1 0 
1 17.645448267190435 -50.600000000000001 163.84999999999999 -1 0 0 
1 14.354551732809567 -50.600000000000001 163.84999999999999 0 1 0 
1 17.645448267190435 -50.600000000000001 158.15000000000001 0.50000000000000033 0 0.86602540378443849 
1 17.645448267190435 -50.600000000000001 158.15000000000001 0 1 0 
1 14.354551732809567 -50.600000000000001 163.84999999999999 -0.50000000000000078 0 -0.86602540378443826 
1 12.709103465619133 -50.600000000000001 161 0 1 0 
1 14.354551732809565 -50.600000000000001 158.15000000000001 1 0 0 
1 14.354551732809565 -50.600000000000001 158.15000000000001 0 1 0 
1 12.709103465619133 -50.600000000000001 161 0.50000000000000033 0 -0.86602540378443849 
1 -9 -53 182 -0 1 0 
1 9 -53 182 -0 1 0 
1 -4.7315362836096844 -50.400000000000006 182 -1 0 0 
1 -9 -53 172 -0 1 0 
1 -9 -50.400000000000006 174.29940170257586 0 -0 1 
1 9 -53 172 -0 1 0 
1 9 -50.400000000000006 174.29940170257586 0 -0 1 
1 -4.7315362836096844 -50.400000000000006 172 -1 0 0 
1 19.290896534380867 -50.600000000000001 193 -0.50000000000000033 0 0.86602540378443849 
1 17.645448267190435 -50.600000000000001 195.84999999999999 0 1 0 
1 19.290896534380867 -50.600000000000001 193 0 1 0 
1 17.645448267190435 -50.600000000000001 190.15000000000001 0.50000000000000033 0 0.86602540378443849 
1 17.645448267190435 -50.600000000000001 190.15000000000001 0 1 0 
1 14.354551732809565 -50.600000000000001 190.15000000000001 1 0 0 
1 14.354551732809565 -50.600000000000001 190.15000000000001 0 1 0 
1 12.709103465619133 -50.600000000000001 193 0.50000000000000033 0 -0.86602540378443849 
1 12.709103465619133 -50.600000000000001 193 0 1 0 
1 14.354551732809567 -50.600000000000001 195.84999999999999 -0.50000000000000078 0 -0.86602540378443826 
1 14.354551732809567 -50.600000000000001 195.84999999999999 0 1 0 
1 17.645448267190435 -50.600000000000001 195.84999999999999 -1 0 0 
Polygon3D 0
PolygonOnTriangulations 0
Surfaces 48
1 -22 -52 155 1 0 -0 0 0 1 0 -1 0 
1 -22 -52 155 -0 1 0 0 0 1 1 0 -0 
1 -22 -52 199 0 0 1 1 0 -0 -0 1 0 
1 -22 -48 155 -0 1 0 0 0 1 1 0 -0 
1 -22 -52 155 0 0 1 1 0 -0 -0 1 0 
1 22 -52 155 1 0 -0 0 0 1 0 -1 0 
2 -16 -53 161 0 1 0 0 -0 1 1 0 -0 1.7
1 -13.199999999999999 -52.100000000000001 165.80000000000001 0 0 -1 1 0 0 0 -1 0 
1 13.199999999999999 -52.100000000000001 165.80000000000001 1 0 0 0 0 1 0 -1 0 
1 -13.199999999999999 -52.100000000000001 188.19999999999999 -1 0 0 0 0 -1 -0 -1 -0 
1 13.199999999999999 -52.100000000000001 183.19999999999999 0.70710678118654757 -0 0.70710678118654757 -0.70710678118654757 0 0.70710678118654757 -0 -1 0 
1 8.1999999999999993 -52.100000000000001 188.19999999999999 0 -0 1 -1 0 0 -0 -1 0 
2 -16 -53 193 0 1 0 0 -0 1 1 0 -0 1.7
2 16 -53 161 0 1 0 0 -0 1 1 0 -0 1.7
2 16 -53 193 0 1 0 0 -0 1 1 0 -0 1.7
1 -12.709103465619133 -50.600000000000001 161 0.86602540378443826 -0 0.50000000000000078 -0.50000000000000078 0 0.86602540378443826 -0 -1 0 
1 -14.354551732809567 -50.600000000000001 163.84999999999999 0 -0 1 -1 0 0 -0 -1 0 
1 -14.354551732809567 -50.600000000000001 158.15000000000001 0.86602540378443826 0 -0.50000000000000078 0.50000000000000078 0 0.86602540378443826 0 -1 0 
1 -17.645448267190432 -50.600000000000001 163.84999999999999 -0.86602540378443804 0 0.50000000000000111 -0.50000000000000111 0 -0.86602540378443804 -0 -1 0 
1 -17.645448267190435 -50.600000000000001 158.15000000000001 0 0 -1 1 0 0 0 -1 0 
1 -19.290896534380867 -50.600000000000001 161 -0.86602540378443849 0 -0.50000000000000033 0.50000000000000033 0 -0.86602540378443849 0 -1 -0 
1 -12.709103465619133 -50.600000000000001 193 0.86602540378443826 -0 0.50000000000000078 -0.50000000000000078 0 0.86602540378443826 -0 -1 0 
1 -14.354551732809567 -50.600000000000001 195.84999999999999 0 -0 1 -1 0 0 -0 -1 0 
1 -14.354551732809567 -50.600000000000001 190.15000000000001 0.86602540378443826 0 -0.50000000000000078 0.50000000000000078 0 0.86602540378443826 0 -1 0 
1 -17.645448267190432 -50.600000000000001 195.84999999999999 -0.86602540378443804 0 0.50000000000000111 -0.50000000000000111 0 -0.86602540378443804 -0 -1 0 
1 -17.645448267190435 -50.600000000000001 190.15000000000001 0 0 -1 1 0 0 0 -1 0 
1 -19.290896534380867 -50.600000000000001 193 -0.86602540378443849 0 -0.50000000000000033 0.50000000000000033 0 -0.86602540378443849 0 -1 -0 
1 19.290896534380867 -50.600000000000001 161 0.86602540378443849 -0 0.50000000000000033 -0.50000000000000033 0 0.86602540378443849 -0 -1 0 
1 17.645448267190435 -50.600000000000001 163.84999999999999 0 -0 1 -1 0 0 -0 -1 0 
1 17.645448267190435 -50.600000000000001 158.15000000000001 0.86602540378443849 0 -0.50000000000000033 0.50000000000000033 0 0.86602540378443849 0 -1 0 
1 14.354551732809567 -50.600000000000001 163.84999999999999 -0.86602540378443826 0 0.50000000000000078 -0.50000000000000078 0 -0.86602540378443826 -0 -1 0 
1 14.354551732809565 -50.600000000000001 158.15000000000001 0 0 -1 1 0 0 0 -1 0 
1 12.709103465619133 -50.600000000000001 161 -0.86602540378443849 0 -0.50000000000000033 0.50000000000000033 0 -0.86602540378443849 0 -1 -0 
1 -9 -53 182 0 0 1 1 0 -0 -0 1 0 
1 -9 -53 172 1 0 -0 0 0 1 0 -1 0 
1 9 -53 172 1 0 -0 0 0 1 0 -1 0 
1 -9 -53 172 0 0 1 1 0 -0 -0 1 0 
1 19.290896534380867 -50.600000000000001 193 0.86602540378443849 -0 0.50000000000000033 -0.50000000000000033 0 0.86602540378443849 -0 -1 0 
1 17.645448267190435 -50.600000000000001 190.15000000000001 0.86602540378443849 0 -0.50000000000000033 0.50000000000000033 0 0.86602540378443849 0 -1 0 
1 14.354551732809565 -50.600000000000001 190.15000000000001 0 0 -1 1 0 0 0 -1 0 
1 12.709103465619133 -50.600000000000001 193 -0.86602540378443849 0 -0.50000000000000033 0.50000000000000033 0 -0.86602540378443849 0 -1 -0 
1 14.354551732809567 -50.600000000000001 195.84999999999999 -0.86602540378443826 0 0.50000000000000078 -0.50000000000000078 0 -0.86602540378443826 -0 -1 0 
1 17.645448267190435 -50.600000000000001 195.84999999999999 0 -0 1 -1 0 0 -0 -1 0 
1 -15.999999999999996 -50.599999999999994 161 -0 -1 -0 0 0 -1 1 -0 0 
1 -0.46307256721936801 -52.100000000000009 176.59880340515173 -0 -1 -0 0 0 -1 1 -0 0 
1 -15.999999999999996 -50.599999999999994 192.99999999999997 -0 -1 -0 0 0 -1 1 -0 0 
1 16 -50.599999999999987 160.99999999999997 -0 -1 -0 0 0 -1 1 -0 0 
1 16 -50.599999999999987 192.99999999999994 -0 -1 -0 0 0 -1 1 -0 0 
Triangulations 0

TShapes 319
Ve
1e-07
-22 -52 199
0 0

0101101
*
Ve
1e-07
-22 -52 155
0 0

0101101
*
Ed
 1e-07 1 1 0
1  1 0 0 44
2  1 1 0 0 44
2  2 2 0 0 44
0

0101000
-319 3 +318 3 *
Ve
1e-07
-22 -48 199
0 0

0101101
*
Ed
 1e-07 1 1 0
1  2 0 0 4
2  3 1 0 0 4
2  4 3 0 0 4
0

0101000
-316 3 +319 3 *
Ve
1e-07
-22 -48 155
0 0

0101101
*
Ed
 1e-07 1 1 0
1  3 0 0 44
2  5 1 0 0 44
2  6 4 0 0 44
0

0101000
-316 3 +314 3 *
Ed
 1e-07 1 1 0
1  4 0 0 4
2  7 1 0 0 4
2  8 5 0 0 4
0

0101000
-314 3 +318 3 *
Wi

0101100
-317 0 -315 0 +313 0 +312 0 *
Fa
0  1e-07 1 0

0111000
+311 0 *
Ve
1e-07
22 -52 155
0 0

0101101
*
Ed
 1e-07 1 1 0
1  5 0 0 44
2  9 2 0 0 44
2  10 5 0 0 44
0

0101000
-309 3 +318 3 *
Ve
1e-07
22 -52 199
0 0

0101101
*
Ed
 1e-07 1 1 0
1  6 0 0 44
2  11 2 0 0 44
2  12 6 0 0 44
0

0101000
-307 3 +309 3 *
Ed
 1e-07 1 1 0
1  7 0 0 44
2  13 2 0 0 44
2  14 3 0 0 44
0

0101000
-307 3 +319 3 *
Wi

0101100
-308 0 -306 0 +317 0 +305 0 *
Ve
1e-07
-16 -52 162.7
0 0

0101101
*
Ed
 1e-07 1 1 0
1  8 0 0 6.28318530717959
2  15 2 0 0 6.28318530717959
2  16 7 0 0 6.28318530717959
0

0101000
+303 3 -303 3 *
Wi

0101100
-302 0 *
Ve
1.50000001776357e-07
13.2 -52 165.8
0 0

0101101
*
Ve
1.5e-07
-13.2 -52 165.8
0 0

0101101
*
Ed
 1.5e-07 1 1 0
1  9 0 -30.8 -4.4
2  17 2 0 -30.8 -4.4
2  18 8 0 -30.8 -4.4
0

0101000
+300 3 -299 3 *
Ve
1.50000001776357e-07
13.2 -52 183.2
0 0

0101101
*
Ed
 1.5e-07 1 1 0
1  10 0 -22.8 -5.40000000000001
2  19 2 0 -22.8 -5.40000000000001
2  20 9 0 -22.8 -5.40000000000001
0

0101000
+297 3 -300 3 *
Ve
1.5e-07
-13.2 -52 188.2
0 0

0101101
*
Ed
 1.5e-07 1 1 0
1  11 0 -5.79999999999998 16.6
2  21 2 0 -5.79999999999998 16.6
2  22 10 0 -5.79999999999998 16.6
0

0101000
+299 3 -295 3 *
Ve
1.50000001776357e-07
8.2 -52 188.2
0 0

0101101
*
Ed
 1.5e-07 1 1 0
1  12 0 -4.59619407771256 2.47487373415292
2  23 2 0 -4.59619407771256 2.47487373415292
2  24 11 0 -4.59619407771256 2.47487373415292
0

0101000
+293 3 -297 3 *
Ed
 1.5e-07 1 1 0
1  13 0 -6.3 15.1
2  25 2 0 -6.3 15.1
2  26 12 0 -6.3 15.1
0

0101000
+295 3 -293 3 *
Wi

0101100
-298 0 -296 0 -294 0 -292 0 -291 0 *
Ve
1e-07
-16 -52 194.7
0 0

0101101
*
Ed
 1e-07 1 1 0
1  14 0 0 6.28318530717959
2  27 2 0 0 6.28318530717959
2  28 13 0 0 6.28318530717959
0

0101000
+289 3 -289 3 *
Wi

0101100
-288 0 *
Ve
1e-07
16 -52 162.7
0 0

0101101
*
Ed
 1e-07 1 1 0
1  15 0 0 6.28318530717959
2  29 2 0 0 6.28318530717959
2  30 14 0 0 6.28318530717959
0

0101000
+286 3 -286 3 *
Wi

0101100
-285 0 *
Ve
1e-07
16 -52 194.7
0 0

0101101
*
Ed
 1e-07 1 1 0
1  16 0 0 6.28318530717959
2  31 2 0 0 6.28318530717959
2  32 15 0 0 6.28318530717959
0

0101000
+283 3 -283 3 *
Wi

0101100
-282 0 *
Fa
0  1e-07 2 0

0101000
+304 0 +301 0 +290 0 +287 0 +284 0 +281 0 *
Ve
1e-07
22 -48 199
0 0

0101101
*
Ed
 1e-07 1 1 0
1  17 0 0 44
2  33 3 0 0 44
2  34 4 0 0 44
0

0101000
-279 3 +316 3 *
Ed
 1e-07 1 1 0
1  18 0 0 4
2  35 3 0 0 4
2  36 6 0 0 4
0

0101000
-279 3 +307 3 *
Wi

0101100
-315 0 -278 0 +277 0 +305 0 *
Fa
0  1e-07 3 0

0111000
+276 0 *
Ve
1e-07
22 -48 155
0 0

0101101
*
Ed
 1e-07 1 1 0
1  19 0 0 44
2  37 4 0 0 44
2  38 5 0 0 44
0

0101000
-274 3 +314 3 *
Ed
 1e-07 1 1 0
1  20 0 0 44
2  39 4 0 0 44
2  40 6 0 0 44
0

0101000
-279 3 +274 3 *
Wi

0101100
-273 0 -272 0 +313 0 +278 0 *
Ve
1.50000001776357e-07
-14.3545517328096 -48 163.85
0 0

0101101
*
Ve
1.50000007105427e-07
-12.7091034656191 -48 161
0 0

0101101
*
Ed
 1.5e-07 1 1 0
1  21 0 -3.56624861213896 -0.275352077758095
2  41 4 0 -3.56624861213896 -0.275352077758095
2  42 16 0 -3.56624861213896 -0.275352077758095
0

0101000
+270 3 -269 3 *
Ve
1.50000014210855e-07
-17.6454482671904 -48 163.85
0 0

0101101
*
Ed
 1.5e-07 1 1 0
1  22 0 0.531827599214353 3.82272413359522
2  43 4 0 0.531827599214353 3.82272413359522
2  44 17 0 0.531827599214353 3.82272413359522
0

0101000
+267 3 -270 3 *
Ve
1.50000007105427e-07
-14.3545517328096 -48 158.15
0 0

0101101
*
Ed
 1.5e-07 1 1 0
1  23 0 -6.56624861213896 -3.2753520777581
2  45 4 0 -6.56624861213896 -3.2753520777581
2  46 18 0 -6.56624861213896 -3.2753520777581
0

0101000
+269 3 -265 3 *
Ve
1.50000010658141e-07
-19.2908965343809 -48 161
0 0

0101101
*
Ed
 1.5e-07 1 1 0
1  24 0 1.62990381056765 4.92080034494852
2  47 4 0 1.62990381056765 4.92080034494852
2  48 19 0 1.62990381056765 4.92080034494852
0

0101000
+263 3 -267 3 *
Ve
1.50000003552714e-07
-17.6454482671904 -48 158.15
0 0

0101101
*
Ed
 1.5e-07 1 1 0
1  25 0 -5.46817240078565 -2.17727586640478
2  49 4 0 -5.46817240078565 -2.17727586640478
2  50 20 0 -5.46817240078565 -2.17727586640478
0

0101000
+265 3 -261 3 *
Ed
 1.5e-07 1 1 0
1  26 0 -1.37009618943232 1.92080034494854
2  51 4 0 -1.37009618943232 1.92080034494854
2  52 21 0 -1.37009618943232 1.92080034494854
0

0101000
+261 3 -263 3 *
Wi

0101100
-268 0 -266 0 -264 0 -262 0 -260 0 -259 0 *
Ve
1.50000001776357e-07
-14.3545517328096 -48 195.85
0 0

0101101
*
Ve
1.50000001776357e-07
-12.7091034656191 -48 193
0 0

0101101
*
Ed
 1.5e-07 1 1 0
1  27 0 -17.42265507269 -14.1317585383091
2  53 4 0 -17.42265507269 -14.1317585383091
2  54 22 0 -17.42265507269 -14.1317585383091
0

0101000
+257 3 -256 3 *
Ve
1.5e-07
-17.6454482671904 -48 195.85
0 0

0101101
*
Ed
 1.5e-07 1 1 0
1  28 0 0.531827599214353 3.82272413359522
2  55 4 0 0.531827599214353 3.82272413359522
2  56 23 0 0.531827599214353 3.82272413359522
0

0101000
+254 3 -257 3 *
Ve
1.5e-07
-14.3545517328096 -48 190.15
0 0

0101101
*
Ed
 1.5e-07 1 1 0
1  29 0 -20.42265507269 -17.1317585383091
2  57 4 0 -20.42265507269 -17.1317585383091
2  58 24 0 -20.42265507269 -17.1317585383091
0

0101000
+256 3 -252 3 *
Ve
1.50000003552714e-07
-19.2908965343809 -48 193
0 0

0101101
*
Ed
 1.5e-07 1 1 0
1  30 0 15.4863102711187 18.7772068054995
2  59 4 0 15.4863102711187 18.7772068054995
2  60 25 0 15.4863102711187 18.7772068054995
0

0101000
+250 3 -254 3 *
Ve
1.50000003552714e-07
-17.6454482671904 -48 190.15
0 0

0101101
*
Ed
 1.5e-07 1 1 0
1  31 0 -5.46817240078565 -2.17727586640478
2  61 4 0 -5.46817240078565 -2.17727586640478
2  62 26 0 -5.46817240078565 -2.17727586640478
0

0101000
+252 3 -248 3 *
Ed
 1.5e-07 1 1 0
1  32 0 12.4863102711187 15.7772068054996
2  63 4 0 12.4863102711187 15.7772068054996
2  64 27 0 12.4863102711187 15.7772068054996
0

0101000
+248 3 -250 3 *
Wi

0101100
-255 0 -253 0 -251 0 -249 0 -247 0 -246 0 *
Ve
1.50000010658141e-07
17.6454482671904 -48 163.85
0 0

0101101
*
Ve
1.50000010658141e-07
19.2908965343809 -48 161
0 0

0101101
*
Ed
 1.5e-07 1 1 0
1  33 0 4.43375138786106 7.72464792224192
2  65 4 0 4.43375138786106 7.72464792224192
2  66 28 0 4.43375138786106 7.72464792224192
0

0101000
+244 3 -243 3 *
Ve
1.50000003552714e-07
14.3545517328096 -48 163.85
0 0

0101101
*
Ed
 1.5e-07 1 1 0
1  34 0 16.5318275992143 19.8227241335952
2  67 4 0 16.5318275992143 19.8227241335952
2  68 29 0 16.5318275992143 19.8227241335952
0

0101000
+241 3 -244 3 *
Ve
1.50000007105427e-07
17.6454482671904 -48 158.15
0 0

0101101
*
Ed
 1.5e-07 1 1 0
1  35 0 -14.566248612139 -11.2753520777581
2  69 4 0 -14.566248612139 -11.2753520777581
2  70 30 0 -14.566248612139 -11.2753520777581
0

0101000
+243 3 -239 3 *
Ve
1.50000005329071e-07
12.7091034656191 -48 161
0 0

0101101
*
Ed
 1.5e-07 1 1 0
1  36 0 9.62990381056767 12.9208003449485
2  71 4 0 9.62990381056767 12.9208003449485
2  72 31 0 9.62990381056767 12.9208003449485
0

0101000
+237 3 -241 3 *
Ve
1.50000005329071e-07
14.3545517328096 -48 158.15
0 0

0101101
*
Ed
 1.5e-07 1 1 0
1  37 0 -21.4681724007857 -18.1772758664048
2  73 4 0 -21.4681724007857 -18.1772758664048
2  74 32 0 -21.4681724007857 -18.1772758664048
0

0101000
+239 3 -235 3 *
Ed
 1.5e-07 1 1 0
1  38 0 -9.37009618943234 -6.07919965505148
2  75 4 0 -9.37009618943234 -6.07919965505148
2  76 33 0 -9.37009618943234 -6.07919965505148
0

0101000
+235 3 -237 3 *
Wi

0101100
-242 0 -240 0 -238 0 -236 0 -234 0 -233 0 *
Ve
1.5e-07
-9 -48 182
0 0

0101101
*
Ve
1.5e-07
9 -48 182
0 0

0101101
*
Ed
 1.5e-07 1 1 0
1  39 0 6.5 24.5
2  77 4 0 6.5 24.5
2  78 34 0 6.5 24.5
0

0101000
+231 3 -230 3 *
Ve
1.5e-07
-9 -48 172
0 0

0101101
*
Ed
 1.5e-07 1 1 0
1  40 0 -18.5 -8.5
2  79 4 0 -18.5 -8.5
2  80 35 0 -18.5 -8.5
0

0101000
+231 3 -228 3 *
Ve
1.5e-07
9 -48 172
0 0

0101101
*
Ed
 1.5e-07 1 1 0
1  41 0 -18.5 -8.5
2  81 4 0 -18.5 -8.5
2  82 36 0 -18.5 -8.5
0

0101000
+230 3 -226 3 *
Ed
 1.5e-07 1 1 0
1  42 0 6.5 24.5
2  83 4 0 6.5 24.5
2  84 37 0 6.5 24.5
0

0101000
+228 3 -226 3 *
Wi

0101100
-229 0 +227 0 -225 0 +224 0 *
Ve
1.50000003552714e-07
17.6454482671904 -48 195.85
0 0

0101101
*
Ve
1.50000003552714e-07
19.2908965343809 -48 193
0 0

0101101
*
Ed
 1.5e-07 1 1 0
1  43 0 -9.42265507268995 -6.13175853830909
2  85 4 0 -9.42265507268995 -6.13175853830909
2  86 38 0 -9.42265507268995 -6.13175853830909
0

0101000
+222 3 -221 3 *
Ve
1.50000003552714e-07
17.6454482671904 -48 190.15
0 0

0101101
*
Ed
 1.5e-07 1 1 0
1  44 0 -28.42265507269 -25.1317585383091
2  87 4 0 -28.42265507269 -25.1317585383091
2  88 39 0 -28.42265507269 -25.1317585383091
0

0101000
+221 3 -219 3 *
Ve
1.50000003552714e-07
14.3545517328096 -48 190.15
0 0

0101101
*
Ed
 1.5e-07 1 1 0
1  45 0 -21.4681724007857 -18.1772758664048
2  89 4 0 -21.4681724007857 -18.1772758664048
2  90 40 0 -21.4681724007857 -18.1772758664048
0

0101000
+219 3 -217 3 *
Ve
1.50000003552714e-07
12.7091034656191 -48 193
0 0

0101101
*
Ed
 1.5e-07 1 1 0
1  46 0 4.48631027111868 7.77720680549954
2  91 4 0 4.48631027111868 7.77720680549954
2  92 41 0 4.48631027111868 7.77720680549954
0

0101000
+217 3 -215 3 *
Ve
1.50000003552714e-07
14.3545517328096 -48 195.85
0 0

0101101
*
Ed
 1.5e-07 1 1 0
1  47 0 23.4863102711187 26.7772068054996
2  93 4 0 23.4863102711187 26.7772068054996
2  94 42 0 23.4863102711187 26.7772068054996
0

0101000
+215 3 -213 3 *
Ed
 1.5e-07 1 1 0
1  48 0 16.5318275992143 19.8227241335952
2  95 4 0 16.5318275992143 19.8227241335952
2  96 43 0 16.5318275992143 19.8227241335952
0

0101000
+213 3 -222 3 *
Wi

0101100
-220 0 -218 0 -216 0 -214 0 -212 0 -211 0 *
Fa
0  1e-07 4 0

0101000
+271 0 +258 0 +245 0 +232 0 +223 0 +210 0 *
Ed
 1e-07 1 1 0
1  49 0 0 4
2  97 5 0 0 4
2  98 6 0 0 4
0

0101000
-274 3 +309 3 *
Wi

0101100
-312 0 -273 0 +208 0 +308 0 *
Fa
0  1e-07 5 0

0111000
+207 0 *
Wi

0101100
-306 0 -277 0 +272 0 +208 0 *
Fa
0  1e-07 6 0

0111000
+205 0 *
Ve
1e-07
-16 -50.6 162.7
0 0

0101101
*
Ed
 1e-07 1 1 0
1  50 0 0 6.28318530717959
2  99 7 0 0 6.28318530717959
2  100 44 0 0 6.28318530717959
0

0101000
+203 3 -203 3 *
Ed
 1e-07 1 1 0
1  51 0 1 2.40000000000001
3  101 102CN 7 0 1 2.40000000000001
0

0101000
+303 3 -203 3 *
Wi

0101100
-202 0 +201 0 +302 0 -201 0 *
Fa
0  1e-07 7 0

0101000
+200 0 *
Ve
1e-07
13.2 -50.4 165.8
0 0

0101101
*
Ed
 1e-07 1 1 0
1  52 0 0.100000000000001 1.7
2  103 8 0 0.100000000000001 1.7
2  104 9 0 0.100000000000001 1.7
0

0101000
+300 3 -198 3 *
Ve
1e-07
-13.2 -50.4 165.8
0 0

0101101
*
Ed
 1e-07 1 1 0
1  53 0 0 26.4
2  105 8 5 0 26.4
2  106 45 0 0 26.4
0

0101000
+196 6 -198 6 *
Ed
 1e-07 1 1 0
1  54 0 0.100000000000001 1.7
2  107 8 0 0.100000000000001 1.7
2  108 10 0 0.100000000000001 1.7
0

0101000
+299 3 -196 3 *
Wi

0101100
+298 0 -197 0 +195 4 +194 0 *
Fa
0  1e-07 8 0

0101000
+193 0 *
Ve
1e-07
13.2 -50.4 183.2
0 0

0101101
*
Ed
 1e-07 1 1 0
1  55 0 0.100000000000001 1.7
2  109 9 0 0.100000000000001 1.7
2  110 11 0 0.100000000000001 1.7
0

0101000
+297 3 -191 3 *
Ed
 1e-07 1 1 0
1  56 0 0 17.4
2  111 9 5 0 17.4
2  112 45 0 0 17.4
0

0101000
+198 6 -191 6 *
Wi

0101100
+296 0 -190 0 +189 4 +197 0 *
Fa
0  1e-07 9 0

0101000
+188 0 *
Ve
1e-07
-13.2 -50.4 188.2
0 0

0101101
*
Ed
 1e-07 1 1 0
1  57 0 0 22.4
2  113 10 5 0 22.4
2  114 45 0 0 22.4
0

0101000
+186 6 -196 6 *
Ed
 1e-07 1 1 0
1  58 0 0.100000000000001 1.7
2  115 10 0 0.100000000000001 1.7
2  116 12 0 0.100000000000001 1.7
0

0101000
+295 3 -186 3 *
Wi

0101100
+294 0 -194 0 +185 4 +184 0 *
Fa
0  1e-07 10 0

0101000
+183 0 *
Ve
1e-07
8.2 -50.4 188.2
0 0

0101101
*
Ed
 1e-07 1 1 0
1  59 0 0.100000000000001 1.7
2  117 11 0 0.100000000000001 1.7
2  118 12 0 0.100000000000001 1.7
0

0101000
+293 3 -181 3 *
Ed
 1e-07 1 1 0
1  60 0 0 7.07106781186548
2  119 11 5 0 7.07106781186548
2  120 45 0 0 7.07106781186548
0

0101000
+191 6 -181 6 *
Wi

0101100
+292 0 -180 0 +179 4 +190 0 *
Fa
0  1e-07 11 0

0101000
+178 0 *
Ed
 1e-07 1 1 0
1  61 0 0 21.4
2  121 12 5 0 21.4
2  122 45 0 0 21.4
0

0101000
+181 6 -186 6 *
Wi

0101100
+291 0 -184 0 +176 4 +180 0 *
Fa
0  1e-07 12 0

0101000
+175 0 *
Ve
1e-07
-16 -50.6 194.7
0 0

0101101
*
Ed
 1e-07 1 1 0
1  62 0 0 6.28318530717959
2  123 13 0 0 6.28318530717959
2  124 46 0 0 6.28318530717959
0

0101000
+173 3 -173 3 *
Ed
 1e-07 1 1 0
1  63 0 1 2.40000000000001
3  125 126CN 13 0 1 2.40000000000001
0

0101000
+289 3 -173 3 *
Wi

0101100
-172 0 +171 0 +288 0 -171 0 *
Fa
0  1e-07 13 0

0101000
+170 0 *
Ve
1e-07
16 -50.6 162.7
0 0

0101101
*
Ed
 1e-07 1 1 0
1  64 0 0 6.28318530717959
2  127 14 0 0 6.28318530717959
2  128 47 0 0 6.28318530717959
0

0101000
+168 3 -168 3 *
Ed
 1e-07 1 1 0
1  65 0 1 2.40000000000001
3  129 130CN 14 0 1 2.40000000000001
0

0101000
+286 3 -168 3 *
Wi

0101100
-167 0 +166 0 +285 0 -166 0 *
Fa
0  1e-07 14 0

0101000
+165 0 *
Ve
1e-07
16 -50.6 194.7
0 0

0101101
*
Ed
 1e-07 1 1 0
1  66 0 0 6.28318530717959
2  131 15 0 0 6.28318530717959
2  132 48 0 0 6.28318530717959
0

0101000
+163 3 -163 3 *
Ed
 1e-07 1 1 0
1  67 0 1 2.40000000000001
3  133 134CN 15 0 1 2.40000000000001
0

0101000
+283 3 -163 3 *
Wi

0101100
-162 0 +161 0 +282 0 -161 0 *
Fa
0  1e-07 15 0

0101000
+160 0 *
Ve
1e-07
-12.7091034656191 -50.6 161
0 0

0101101
*
Ve
1e-07
-14.3545517328096 -50.6 163.85
0 0

0101101
*
Ed
 1e-07 1 1 0
1  68 0 0 3.29089653438086
2  135 16 0 0 3.29089653438086
2  136 44 0 0 3.29089653438086
0

0101000
+158 3 -157 3 *
Ed
 1e-07 1 1 0
1  69 0 0 2.6
2  137 16 0 0 2.6
2  138 17 0 0 2.6
0

0101000
+157 3 -270 3 *
Ed
 1e-07 1 1 0
1  70 0 0 2.6
2  139 16 0 0 2.6
2  140 18 0 0 2.6
0

0101000
+158 3 -269 3 *
Wi

0101100
-156 0 -155 0 -268 0 +154 0 *
Fa
0  1e-07 16 0

0101000
+153 0 *
Ve
1e-07
-17.6454482671904 -50.6 163.85
0 0

0101101
*
Ed
 1e-07 1 1 0
1  71 0 0 3.29089653438086
2  141 17 0 0 3.29089653438086
2  142 44 0 0 3.29089653438086
0

0101000
+157 3 -151 3 *
Ed
 1e-07 1 1 0
1  72 0 0 2.6
2  143 17 0 0 2.6
2  144 19 0 0 2.6
0

0101000
+151 3 -267 3 *
Wi

0101100
-150 0 -149 0 -266 0 +155 0 *
Fa
0  1e-07 17 0

0101000
+148 0 *
Ve
1e-07
-14.3545517328096 -50.6 158.15
0 0

0101101
*
Ed
 1e-07 1 1 0
1  73 0 0 3.29089653438086
2  145 18 0 0 3.29089653438086
2  146 44 0 0 3.29089653438086
0

0101000
+146 3 -158 3 *
Ed
 1e-07 1 1 0
1  74 0 0 2.6
2  147 18 0 0 2.6
2  148 20 0 0 2.6
0

0101000
+146 3 -265 3 *
Wi

0101100
-145 0 -154 0 -264 0 +144 0 *
Fa
0  1e-07 18 0

0101000
+143 0 *
Ve
1e-07
-19.2908965343809 -50.6 161
0 0

0101101
*
Ed
 1e-07 1 1 0
1  75 0 0 3.29089653438086
2  149 19 0 0 3.29089653438086
2  150 44 0 0 3.29089653438086
0

0101000
+151 3 -141 3 *
Ed
 1e-07 1 1 0
1  76 0 0 2.6
2  151 19 0 0 2.6
2  152 21 0 0 2.6
0

0101000
+141 3 -263 3 *
Wi

0101100
-140 0 -139 0 -262 0 +149 0 *
Fa
0  1e-07 19 0

0101000
+138 0 *
Ve
1e-07
-17.6454482671904 -50.6 158.15
0 0

0101101
*
Ed
 1e-07 1 1 0
1  77 0 0 3.29089653438087
2  153 20 0 0 3.29089653438087
2  154 44 0 0 3.29089653438087
0

0101000
+136 3 -146 3 *
Ed
 1e-07 1 1 0
1  78 0 0 2.6
2  155 20 0 0 2.6
2  156 21 0 0 2.6
0

0101000
+136 3 -261 3 *
Wi

0101100
-135 0 -144 0 -260 0 +134 0 *
Fa
0  1e-07 20 0

0101000
+133 0 *
Ed
 1e-07 1 1 0
1  79 0 0 3.29089653438086
2  157 21 0 0 3.29089653438086
2  158 44 0 0 3.29089653438086
0

0101000
+141 3 -136 3 *
Wi

0101100
-131 0 -134 0 -259 0 +139 0 *
Fa
0  1e-07 21 0

0101000
+130 0 *
Ve
1e-07
-12.7091034656191 -50.6 193
0 0

0101101
*
Ve
1e-07
-14.3545517328096 -50.6 195.85
0 0

0101101
*
Ed
 1e-07 1 1 0
1  80 0 0 3.29089653438086
2  159 22 0 0 3.29089653438086
2  160 46 0 0 3.29089653438086
0

0101000
+128 3 -127 3 *
Ed
 1e-07 1 1 0
1  81 0 0 2.6
2  161 22 0 0 2.6
2  162 23 0 0 2.6
0

0101000
+127 3 -257 3 *
Ed
 1e-07 1 1 0
1  82 0 0 2.6
2  163 22 0 0 2.6
2  164 24 0 0 2.6
0

0101000
+128 3 -256 3 *
Wi

0101100
-126 0 -125 0 -255 0 +124 0 *
Fa
0  1e-07 22 0

0101000
+123 0 *
Ve
1e-07
-17.6454482671904 -50.6 195.85
0 0

0101101
*
Ed
 1e-07 1 1 0
1  83 0 0 3.29089653438086
2  165 23 0 0 3.29089653438086
2  166 46 0 0 3.29089653438086
0

0101000
+127 3 -121 3 *
Ed
 1e-07 1 1 0
1  84 0 0 2.6
2  167 23 0 0 2.6
2  168 25 0 0 2.6
0

0101000
+121 3 -254 3 *
Wi

0101100
-120 0 -119 0 -253 0 +125 0 *
Fa
0  1e-07 23 0

0101000
+118 0 *
Ve
1e-07
-14.3545517328096 -50.6 190.15
0 0

0101101
*
Ed
 1e-07 1 1 0
1  85 0 0 3.29089653438086
2  169 24 0 0 3.29089653438086
2  170 46 0 0 3.29089653438086
0

0101000
+116 3 -128 3 *
Ed
 1e-07 1 1 0
1  86 0 0 2.6
2  171 24 0 0 2.6
2  172 26 0 0 2.6
0

0101000
+116 3 -252 3 *
Wi

0101100
-115 0 -124 0 -251 0 +114 0 *
Fa
0  1e-07 24 0

0101000
+113 0 *
Ve
1e-07
-19.2908965343809 -50.6 193
0 0

0101101
*
Ed
 1e-07 1 1 0
1  87 0 0 3.29089653438086
2  173 25 0 0 3.29089653438086
2  174 46 0 0 3.29089653438086
0

0101000
+121 3 -111 3 *
Ed
 1e-07 1 1 0
1  88 0 0 2.6
2  175 25 0 0 2.6
2  176 27 0 0 2.6
0

0101000
+111 3 -250 3 *
Wi

0101100
-110 0 -109 0 -249 0 +119 0 *
Fa
0  1e-07 25 0

0101000
+108 0 *
Ve
1e-07
-17.6454482671904 -50.6 190.15
0 0

0101101
*
Ed
 1e-07 1 1 0
1  89 0 0 3.29089653438087
2  177 26 0 0 3.29089653438087
2  178 46 0 0 3.29089653438087
0

0101000
+106 3 -116 3 *
Ed
 1e-07 1 1 0
1  90 0 0 2.6
2  179 26 0 0 2.6
2  180 27 0 0 2.6
0

0101000
+106 3 -248 3 *
Wi

0101100
-105 0 -114 0 -247 0 +104 0 *
Fa
0  1e-07 26 0

0101000
+103 0 *
Ed
 1e-07 1 1 0
1  91 0 0 3.29089653438086
2  181 27 0 0 3.29089653438086
2  182 46 0 0 3.29089653438086
0

0101000
+111 3 -106 3 *
Wi

0101100
-101 0 -104 0 -246 0 +109 0 *
Fa
0  1e-07 27 0

0101000
+100 0 *
Ve
1e-07
19.2908965343809 -50.6 161
0 0

0101101
*
Ve
1e-07
17.6454482671904 -50.6 163.85
0 0

0101101
*
Ed
 1e-07 1 1 0
1  92 0 0 3.29089653438086
2  183 28 0 0 3.29089653438086
2  184 47 0 0 3.29089653438086
0

0101000
+98 3 -97 3 *
Ed
 1e-07 1 1 0
1  93 0 0 2.6
2  185 28 0 0 2.6
2  186 29 0 0 2.6
0

0101000
+97 3 -244 3 *
Ed
 1e-07 1 1 0
1  94 0 0 2.6
2  187 28 0 0 2.6
2  188 30 0 0 2.6
0

0101000
+98 3 -243 3 *
Wi

0101100
-96 0 -95 0 -242 0 +94 0 *
Fa
0  1e-07 28 0

0101000
+93 0 *
Ve
1e-07
14.3545517328096 -50.6 163.85
0 0

0101101
*
Ed
 1e-07 1 1 0
1  95 0 0 3.29089653438087
2  189 29 0 0 3.29089653438087
2  190 47 0 0 3.29089653438087
0

0101000
+97 3 -91 3 *
Ed
 1e-07 1 1 0
1  96 0 0 2.6
2  191 29 0 0 2.6
2  192 31 0 0 2.6
0

0101000
+91 3 -241 3 *
Wi

0101100
-90 0 -89 0 -240 0 +95 0 *
Fa
0  1e-07 29 0

0101000
+88 0 *
Ve
1e-07
17.6454482671904 -50.6 158.15
0 0

0101101
*
Ed
 1e-07 1 1 0
1  97 0 0 3.29089653438086
2  193 30 0 0 3.29089653438086
2  194 47 0 0 3.29089653438086
0

0101000
+86 3 -98 3 *
Ed
 1e-07 1 1 0
1  98 0 0 2.6
2  195 30 0 0 2.6
2  196 32 0 0 2.6
0

0101000
+86 3 -239 3 *
Wi

0101100
-85 0 -94 0 -238 0 +84 0 *
Fa
0  1e-07 30 0

0101000
+83 0 *
Ve
1e-07
12.7091034656191 -50.6 161
0 0

0101101
*
Ed
 1e-07 1 1 0
1  99 0 0 3.29089653438086
2  197 31 0 0 3.29089653438086
2  198 47 0 0 3.29089653438086
0

0101000
+91 3 -81 3 *
Ed
 1e-07 1 1 0
1  100 0 0 2.6
2  199 31 0 0 2.6
2  200 33 0 0 2.6
0

0101000
+81 3 -237 3 *
Wi

0101100
-80 0 -79 0 -236 0 +89 0 *
Fa
0  1e-07 31 0

0101000
+78 0 *
Ve
1e-07
14.3545517328096 -50.6 158.15
0 0

0101101
*
Ed
 1e-07 1 1 0
1  101 0 0 3.29089653438087
2  201 32 0 0 3.29089653438087
2  202 47 0 0 3.29089653438087
0

0101000
+76 3 -86 3 *
Ed
 1e-07 1 1 0
1  102 0 0 2.6
2  203 32 0 0 2.6
2  204 33 0 0 2.6
0

0101000
+76 3 -235 3 *
Wi

0101100
-75 0 -84 0 -234 0 +74 0 *
Fa
0  1e-07 32 0

0101000
+73 0 *
Ed
 1e-07 1 1 0
1  103 0 0 3.29089653438086
2  205 33 0 0 3.29089653438086
2  206 47 0 0 3.29089653438086
0

0101000
+81 3 -76 3 *
Wi

0101100
-71 0 -74 0 -233 0 +79 0 *
Fa
0  1e-07 33 0

0101000
+70 0 *
Ve
1.5e-07
-9 -50.4 182
0 0

0101101
*
Ed
 1e-07 1 1 0
1  104 0 2.59999999999999 5
2  207 34 0 2.59999999999999 5
2  208 35 0 2.59999999999999 5
0

0101000
+68 3 -231 3 *
Ve
1.5e-07
9 -50.4 182
0 0

0101101
*
Ed
 1e-07 1 1 0
1  105 0 2.59999999999999 5
2  209 34 0 2.59999999999999 5
2  210 36 0 2.59999999999999 5
0

0101000
+66 3 -230 3 *
Ed
 1.5e-07 1 1 0
1  106 0 -13.7315362836097 4.26846371639032
2  211 34 0 -13.7315362836097 4.26846371639032
2  212 45 4 -13.7315362836097 4.26846371639032
0

0101000
+66 3 -68 3 *
Wi

0101100
-67 0 -229 0 +65 0 -64 0 *
Fa
0  1e-07 34 0

0101000
+63 0 *
Ve
1.5e-07
-9 -50.4 172
0 0

0101101
*
Ed
 1e-07 1 1 0
1  107 0 2.59999999999999 5
2  213 35 0 2.59999999999999 5
2  214 37 0 2.59999999999999 5
0

0101000
+61 3 -228 3 *
Ed
 1.5e-07 1 1 0
1  108 0 -2.29940170257586 7.70059829742414
2  215 35 0 -2.29940170257586 7.70059829742414
2  216 45 4 -2.29940170257586 7.70059829742414
0

0101000
+61 3 -68 3 *
Wi

0101100
-67 0 -227 0 +60 0 -59 0 *
Fa
0  1e-07 35 0

0101000
+58 0 *
Ve
1.5e-07
9 -50.4 172
0 0

0101101
*
Ed
 1e-07 1 1 0
1  109 0 2.59999999999999 5
2  217 36 0 2.59999999999999 5
2  218 37 0 2.59999999999999 5
0

0101000
+56 3 -226 3 *
Ed
 1.5e-07 1 1 0
1  110 0 -2.29940170257586 7.70059829742414
2  219 36 0 -2.29940170257586 7.70059829742414
2  220 45 4 -2.29940170257586 7.70059829742414
0

0101000
+56 3 -66 3 *
Wi

0101100
-65 0 -225 0 +55 0 -54 0 *
Fa
0  1e-07 36 0

0101000
+53 0 *
Ed
 1.5e-07 1 1 0
1  111 0 -13.7315362836097 4.26846371639032
2  221 37 0 -13.7315362836097 4.26846371639032
2  222 45 4 -13.7315362836097 4.26846371639032
0

0101000
+56 3 -61 3 *
Wi

0101100
-60 0 -224 0 +55 0 -51 0 *
Fa
0  1e-07 37 0

0101000
+50 0 *
Ve
1e-07
19.2908965343809 -50.6 193
0 0

0101101
*
Ve
1e-07
17.6454482671904 -50.6 195.85
0 0

0101101
*
Ed
 1e-07 1 1 0
1  112 0 0 3.29089653438086
2  223 38 0 0 3.29089653438086
2  224 48 0 0 3.29089653438086
0

0101000
+48 3 -47 3 *
Ed
 1e-07 1 1 0
1  113 0 0 2.6
2  225 38 0 0 2.6
2  226 43 0 0 2.6
0

0101000
+47 3 -222 3 *
Ed
 1e-07 1 1 0
1  114 0 0 2.6
2  227 38 0 0 2.6
2  228 39 0 0 2.6
0

0101000
+48 3 -221 3 *
Wi

0101100
-46 0 -45 0 -220 0 +44 0 *
Fa
0  1e-07 38 0

0101000
+43 0 *
Ve
1e-07
17.6454482671904 -50.6 190.15
0 0

0101101
*
Ed
 1e-07 1 1 0
1  115 0 0 3.29089653438086
2  229 39 0 0 3.29089653438086
2  230 48 0 0 3.29089653438086
0

0101000
+41 3 -48 3 *
Ed
 1e-07 1 1 0
1  116 0 0 2.6
2  231 39 0 0 2.6
2  232 40 0 0 2.6
0

0101000
+41 3 -219 3 *
Wi

0101100
-40 0 -44 0 -218 0 +39 0 *
Fa
0  1e-07 39 0

0101000
+38 0 *
Ve
1e-07
14.3545517328096 -50.6 190.15
0 0

0101101
*
Ed
 1e-07 1 1 0
1  117 0 0 3.29089653438087
2  233 40 0 0 3.29089653438087
2  234 48 0 0 3.29089653438087
0

0101000
+36 3 -41 3 *
Ed
 1e-07 1 1 0
1  118 0 0 2.6
2  235 40 0 0 2.6
2  236 41 0 0 2.6
0

0101000
+36 3 -217 3 *
Wi

0101100
-35 0 -39 0 -216 0 +34 0 *
Fa
0  1e-07 40 0

0101000
+33 0 *
Ve
1e-07
12.7091034656191 -50.6 193
0 0

0101101
*
Ed
 1e-07 1 1 0
1  119 0 0 3.29089653438086
2  237 41 0 0 3.29089653438086
2  238 48 0 0 3.29089653438086
0

0101000
+31 3 -36 3 *
Ed
 1e-07 1 1 0
1  120 0 0 2.6
2  239 41 0 0 2.6
2  240 42 0 0 2.6
0

0101000
+31 3 -215 3 *
Wi

0101100
-30 0 -34 0 -214 0 +29 0 *
Fa
0  1e-07 41 0

0101000
+28 0 *
Ve
1e-07
14.3545517328096 -50.6 195.85
0 0

0101101
*
Ed
 1e-07 1 1 0
1  121 0 0 3.29089653438086
2  241 42 0 0 3.29089653438086
2  242 48 0 0 3.29089653438086
0

0101000
+26 3 -31 3 *
Ed
 1e-07 1 1 0
1  122 0 0 2.6
2  243 42 0 0 2.6
2  244 43 0 0 2.6
0

0101000
+26 3 -213 3 *
Wi

0101100
-25 0 -29 0 -212 0 +24 0 *
Fa
0  1e-07 42 0

0101000
+23 0 *
Ed
 1e-07 1 1 0
1  123 0 0 3.29089653438087
2  245 43 0 0 3.29089653438087
2  246 48 0 0 3.29089653438087
0

0101000
+47 3 -26 3 *
Wi

0101100
-21 0 -24 0 -211 0 +45 0 *
Fa
0  1e-07 43 0

0101000
+20 0 *
Wi

0101100
+156 0 +145 0 +150 0 +135 0 +140 0 +131 0 *
Wi

0101100
+202 0 *
Fa
0  1e-07 44 0

0101000
+18 0 +17 0 *
Wi

0101100
+195 4 +185 4 +189 4 +176 4 +179 4 *
Wi

0101100
+51 0 -54 0 -64 0 +59 0 *
Fa
0  1e-07 45 4

0101000
+15 0 +14 0 *
Wi

0101100
+126 0 +115 0 +120 0 +105 0 +110 0 +101 0 *
Wi

0101100
+172 0 *
Fa
0  1e-07 46 0

0101000
+12 0 +11 0 *
Wi

0101100
+96 0 +85 0 +90 0 +75 0 +80 0 +71 0 *
Wi

0101100
+167 0 *
Fa
0  1e-07 47 0

0101000
+9 0 +8 0 *
Wi

0101100
+46 0 +40 0 +21 0 +35 0 +25 0 +30 0 *
Wi

0101100
+162 0 *
Fa
0  1e-07 48 0

0101000
+6 0 +5 0 *
Sh

0101100
-310 0 -280 0 +275 0 +209 0 -206 0 +204 0 -199 0 -192 0 -187 0 -182 0 
-177 0 -174 0 -169 0 -164 0 -159 0 -152 0 -147 0 -142 0 -137 0 -132 0 
-129 0 -122 0 -117 0 -112 0 -107 0 -102 0 -99 0 -92 0 -87 0 -82 0 
-77 0 -72 0 -69 0 -62 0 +57 0 -52 0 +49 0 -42 0 -37 0 -32 0 
-27 0 -22 0 -19 0 -16 0 +13 0 -10 0 -7 0 -4 0 *
So

0100000
+3 0 *
Co

1100000
+2 0 *

+1 1 