DBRep_DrawableShape

CASCADE Topology V1, (c) Matra-Datavision
Locations 10
1
              1               0               0               0 
              0               1               0               0 
              0               0               1               0 
1
              1               0               0               0 
              0               1               0               0 
              0               0               1               0 
1
              1               0               0               0 
              0               1               0              26 
              0               0               1             -22 
2  2 1 3 1 0
1
              1               0               0               0 
              0               1               0               0 
              0               0               1               0 
2  5 -1 0
2  3 -1 2 -1 0
1
              1               0               0               0 
              0               1               0             1.7 
              0               0               1               0 
2  8 -1 0
2  3 -1 2 -1 8 -1 0
Curve2ds 494
8 -3 4
1 -7 -11 0 1 
8 -3 4
1 1 -11 0 -1 
8 1.5 5.5
1 -5.5 -7 -1 0 
8 1.5 5.5
1 1 5.5 0 -1 
8 -3 4
1 -11 -11 0 1 
8 -3 4
1 1 -11 0 -1 
2 0 0 1 0 -0 1 14
1 0 19 1 0 
2 0 0 1 0 -0 1 14
1 0 19 1 0 
8 -3 4
1 11 -11 0 1 
8 -3 4
1 1 -11 0 -1 
8 -7.5 -3.5
1 3.5 -7 -1 0 
8 -7.5 -3.5
1 1 -3.5 0 -1 
8 -3 4
1 7 -11 0 1 
8 -3 4
1 1 -11 0 -1 
2 0 0 1 0 -0 1 14
1 0 19 1 0 
2 0 0 1 0 -0 1 6
1 0 3.0999999999999943 1 0 
1 35 0 0 -1 
1 0 0 0 1 
1 0 -15 1 0 
1 0 0 1 0 
8 -6.0000000701165845e-07 3.0000005999999928
1 -2 -13.339745962155613 1 0 
1 3.8085389980934572 16 0 1 
1 0 0 0 -1 
1 0 0 0 1 
1 0 0 1 0 
1 0 0 1 0 
1 0 0 1 0 
1 -11 11 1 0 
2 11 22 1 0 -0 1 14
1 0 18 1 0 
1 4 0 0 1 
1 0 0 0 -1 
1 0 0 1 0 
1 0 0 0 1 
1 35 0 0 -1 
1 4 0 0 1 
1 0 -15 1 0 
1 0 4 1 0 
8 -6.0000000701165845e-07 3.0000005999999928
1 -2 -9.8756443470178592 1 0 
1 4.1887902047863905 16 0 1 
1 0 0 1 0 
1 0 4 1 0 
1 0 0 1 0 
1 -11 15 1 0 
1 0 0 1 0 
1 0 4 1 0 
1 35 0 0 -1 
1 0 0 0 1 
1 0 -15 1 0 
1 0 0 1 0 
8 -6.0000000701165845e-07 3.0000005999999928
1 -2 -9.8756443470178592 1 0 
1 5.2359877559829888 16 0 1 
1 0 0 0 -1 
1 0 0 0 1 
1 0 0 1 0 
1 0 0 1 0 
1 0 0 1 0 
1 -11 29 1 0 
1 0 0 1 0 
1 0 0 1 0 
2 -7 22 1 0 -0 1 14
1 0 18 1 0 
1 4 0 0 1 
1 0 0 0 -1 
1 0 0 1 0 
1 0 0 0 1 
1 35 0 0 -1 
1 4 0 0 1 
1 0 -15 1 0 
1 0 4 1 0 
8 -6.0000000701165845e-07 3.0000005999999928
1 -2 -13.339745962155613 1 0 
1 5.6162389626759222 16 0 1 
1 0 0 1 0 
1 0 4 1 0 
1 0 0 1 0 
1 -11 33 1 0 
1 6.2831853071795862 -0 0 1 
1 0 -0 0 1 
1 0 0.099999999999994316 1 0 
2 0 0 1 0 -0 1 6
8 -6.0000000701165845e-07 16.000000599999993
1 4 43.996785345214093 1 0 
1 0.021430211709220437 0 0 1 
8 -28.5 -23.576696830622019
1 6 19.5 0 -1 
8 -28.5 -23.576696830622019
1 -19.5 5.2999999999999998 -1 0 
8 3 15
1 3 48 1 0 
8 3 15
1 -3 -5.2999999999999998 1 0 
8 -28.5 -23.576696830622019
1 18 19.5 0 -1 
8 -28.5 -23.576696830622019
1 -19.5 5.2999999999999998 -1 0 
8 -6.0000000701165845e-07 16.000000599999993
1 4 43.996785345214093 1 0 
1 0.021430211709220437 0 0 1 
8 -29 -1
1 20 15 0 -1 
1 -15 0.29999999999999999 -1 0 
1 3.9000000000000057 40.195587280779854 1 0 
1 0.029416006807932681 0 0 1 
8 -29 -1
1 4 15 0 -1 
8 -29 -1
1 -15 0.29999999999999999 -1 0 
2 12 43.5 1 0 -0 1 1.7
1 0 6.2999999999999998 1 0 
2 0 0 1 0 -0 1 10.199999999999999
1 0 0.099999999999994316 1 0 
8 -29 -1
1 -15 0.29999999999999999 -1 0 
8 -29 -1
1 4 15 0 -1 
2 0 0 1 0 -0 1 14
1 0 0 1 0 
1 3.9000000000000057 19.804412719220146 1 0 
1 3.1121766467818603 0 0 1 
8 -29 -1
1 20 15 0 -1 
1 -15 0.29999999999999999 -1 0 
8 -6.0000000701165845e-07 16.000000599999993
1 4 16.003214654785907 1 0 
1 3.1201624418805727 0 0 1 
8 -10.923303169377981 -6
1 18 6 0 -1 
8 -10.923303169377981 -6
1 -6 5.2999999999999998 -1 0 
8 3 15
1 3 12 1 0 
8 3 15
1 -3 -5.2999999999999998 1 0 
8 -10.923303169377981 -6
1 6 6 0 -1 
8 -10.923303169377981 -6
1 -6 5.2999999999999998 -1 0 
8 -6.0000000701165845e-07 16.000000599999993
1 4 16.003214654785907 1 0 
1 3.1201624418805727 0 0 1 
2 12 16.5 1 0 -0 1 1.7
1 0 6.2999999999999998 1 0 
1 0 10 1 0 
1 12 0 0 1 
2 18 5 1 0 -0 1 14
1 0 14 1 0 
1 0 0 0 1 
1 12 0 0 -1 
1 0 0 0 1 
1 0 10 1 0 
8 0.79999999999999716 15.200000000000003
1 -2 4.923303169377979 1 0 
1 2.7763854322994264 0 0 1 
2 6 4.5 1 0 -0 1 1.7
1 0 11 1 0 
2 6 4.5 1 0 -0 1 1.7
1 0 11 1 0 
8 0.79999999999999716 15.200000000000003
1 -2 4.923303169377979 1 0 
1 2.7763854322994264 0 0 1 
1 0 0 1 0 
1 0 -10 1 0 
1 0 12 1 0 
2 0 0 1 0 -0 1 1.7
7 0 0  8 44 7  2.6173894946684708 -6.0000000000000008e-07  2.7117693444448832 0.29282960645340783  2.7973373180595269 0.59658593603020682  2.8751882043796337 0.90647700104082196  2.9461079385167692 1.2195817351993652  3.0107531885080925 1.5342423029667847  3.0697233037924643 1.8499778553112636  3.123547985618973 2.1676369218039233  3.1990001307832832 2.6625968330772505  3.2238947152623529 2.8361487168613522  3.2473178435944585 3.010103730611247  3.2692805292435096 3.1844158157517448  3.2897863166873704 3.3590511012092716  3.3088328495997046 3.5339879997797379  3.3264134390318336 3.7092173044964074  3.3666393643463413 4.1476258940841895  3.3874560722095071 4.4112356200924943  3.4049137296937717 4.6753677715693529  3.4189541929519809 4.9398734089064211  3.4295258367241117 5.2046482211291103  3.4365900877676951 5.4696223512769464  3.4401248547746697 5.7347501703755182  3.4401248547746697 6.2652498296213315  3.4365900877677893 6.530377648722137  3.4295258367240957 6.7953517788731785  3.4189541929518095 7.0601265910968669  3.4049137296936207 7.3246322284319492  3.3874560722095937 7.5887643799055509  3.3666393643466423 7.852374105912542  3.2999498515460974 8.5792002763135962  3.2476438313062834 9.0348408328264416  3.185805521391309 9.4874426329940498  3.1139353968916135 9.9398070070811677  3.031346828434589 10.391809364701622  2.9370533415094537 10.84087581912569  2.8298419634140251 11.281858202317652  2.6966556536642448 11.742193509795937  2.6857393555972466 11.779376627720996  2.6746919681274091 11.816451784735005  2.6635107872823416 11.85341352292976  2.6521929789172667 11.890255912129865  2.6407355787150255 11.926972549892705  2.6291354921860712 11.963556561508435  2.6173894946684726 12.000000600000003 
 0 9 0.21297985076709242 7 0.3275133282123931 7 0.49905001675689575 7 0.67058670529935949 7 0.97331828646120544 7 1 9
7 0 0  3 25 23  2.7763854323713923 6.3535449017167167  2.7751930624908083 6.3550777029547048  2.7728088226658367 6.3582260044228036  2.7692342945332076 6.3632035152211461  2.7656619234906068 6.3684430007408626  2.7620920571118841 6.3739515363383603  2.7585250579700769 6.3797363032844796  2.7549613060803253 6.3858046046026917  2.7514011988143965 6.3921638623816062  2.7478451515115108 6.3988216200752719  2.7442935979503376 6.4057855434431437  2.7407469908011515 6.4130634220004197  2.7372058024203749 6.4206631698565211  2.7336705244226303 6.4285928285619187  2.7301416719308387 6.4368605626204554  2.7266197704700987 6.4454746824108904  2.7231054077451966 6.4544435649035599  2.7195990433796604 6.4637759558841106  2.7160970903281663 6.4734924742956146  2.7126007402003598 6.4836018947824288  2.7091102975465993 6.4941156236052304  2.7056263508531302 6.5050447414004138  2.7021494546016829 6.5164007611060093  2.6998366384860915 6.524263956034881  2.6986816095161541 6.5282706437035216 
 0.91175438027453404 4 0.91576554231161778 1 0.91977670434870151 1 0.92378786638578525 1 0.92779902842286899 1 0.93181019045995273 1 0.93582135249703646 1 0.9398325145341202 1 0.94384367657120394 1 0.94785483860828768 1 0.95186600064537141 1 0.95587716268245515 1 0.95988832471953878 1 0.96389948675662251 1 0.96791064879370625 1 0.97192181083078999 1 0.97593297286787373 1 0.97994413490495746 1 0.9839552969420412 1 0.98796645897912494 1 0.99197762101620868 1 0.99598878305329241 1 0.99999994509037615 4
1 6.2831853071795862 -0 0 1 
1 0 -0 0 1 
7 0 0  7 8 2  0 9.708099243547835  0.054667800161176193 10.046446717899302  0.11483704792948304 10.380113674615993  0.18109999302371821 10.711883006515622  0.25421289738432395 11.042174013704955  0.33505568572632349 11.36960749894784  0.42457369439080866 11.690882533628532  0.52420315892132674 12.0000006 
 0 8 1 8
7 0 0  3 25 23  2.77638543218101 9.6464551273109009  2.7751992529731577 9.6449302796562257  2.7728268507249787 9.6417980627222732  2.7692683594064995 9.6368448032399421  2.7657102142878789 9.6316292990717152  2.7621526824332046 9.6261440345021931  2.7585960529468538 9.6203813578885118  2.7550406403825223 9.6143334616979441  2.7514867843560959 9.6079923864831187  2.7479348502078782 9.6013500184943474  2.7443852294161699 9.5943980890458676  2.7408383401102485 9.5871281734605933  2.7372946275898009 9.5795316901741216  2.7337545648760293 9.5715998998420186  2.730218653287845 9.5633239044907423  2.7266874230458358 9.5546946466975395  2.7231614339011712 9.5457029088138103  2.7196412757997304 9.5363393121827507  2.7161275695445379 9.5265943165251308  2.7126209675954969 9.5164582188438498  2.7091221544888784 9.5059211542644597  2.7056318488093107 9.4949730897839668  2.7021507995024341 9.4836038446170896  2.6998368021304082 9.4757366224772426  2.6986816095161545 9.471729356296521 
 0.55430779895541693 4 0.5745665227625999 1 0.59482524656978286 1 0.61508397037696583 1 0.63534269418414879 1 0.65560141799133187 1 0.67586014179851484 1 0.6961188656056978 1 0.71637758941288077 1 0.73663631322006373 1 0.7568950370272467 1 0.77715376083442966 1 0.79741248464161263 1 0.81767120844879559 1 0.83792993225597856 1 0.85818865606316153 1 0.87844737987034449 1 0.89870610367752746 1 0.91896482748471042 1 0.9392235512918935 1 0.95948227509907646 1 0.97974099890625943 1 0.9999997227134424 4
8 5.9599999999999937 10.040000000000006
1 -8 0.85088935932648191 1 0 
1 2.6986816095161545 0 0 1 
2 18 5 1 0 -0 1 14
1 0 2 1 0 
1 0 0 0 1 
1 0 0 0 -1 
2 -9 5 1 0 -0 1 14
1 0 2 1 0 
1 0 10 1 0 
1 0 0 0 1 
1 9 0 0 1 
1 0 0 0 -1 
1 0 9 1 0 
1 0 -10 1 0 
1 12 0 0 1 
1 0 10 1 0 
8 0.79999999999999716 15.200000000000003
1 -2 4.076696830622021 1 0 
1 0.3652072212903672 0 0 1 
2 6 4.5 1 0 -0 1 1.7
1 0 11 1 0 
2 6 4.5 1 0 -0 1 1.7
1 0 11 1 0 
8 0.79999999999999716 15.200000000000003
1 -2 4.076696830622021 1 0 
1 0.3652072212903672 0 0 1 
1 0 12 1 0 
2 0 0 1 0 -0 1 1.7
7 0 0  7 8 2  5.7589821482582639 12.0000006  5.8586066210227985 11.690898021466952  5.9481255409675224 11.369624568607207  6.0289717977530808 11.042179633791605  6.1020885947377952 10.711870897810188  6.1683536033975574 10.380086838844491  6.2285220727740231 10.046418459731308  6.2831853071795862 9.7080992435478262 
 0 8 1 8
7 0 0  3 25 23  0.44291104407363857 9.4717293562965352  0.44175590932144893 9.4757364218270048  0.43944202114629061 9.4836032811223188  0.43596111637259938 9.4949720869326431  0.43247093626084343 9.5059198062677499  0.42897223013366759 9.5164566100588672  0.42546571700198488 9.5265925219835559  0.42195208188272559 9.5363373981802511  0.41843197776637275 9.5457009334590985  0.41490602603468663 9.5546926604487599  0.41137481725807934 9.5633219506725009  0.40783891185597998 9.5715980151452715  0.40429884075894584 9.5795299051388163  0.40075510603565245 9.5871265129412535  0.39720818149507497 9.5943965726610383  0.39365851326096468 9.6013486610594558  0.39010652032137294 9.6079911984281896  0.38655259504659245 9.614332449468975  0.38299710370074624 9.6203805243344931  0.3794403868541405 9.6261433792471411  0.37588276004411636 9.6316288188700199  0.37232451338772066 9.6368444923272598  0.36876591498652278 9.6417979131141198  0.36639343836906413 9.6449302310673275  0.36520722140860329 9.6464551272834029 
 2.7730044504763168e-07 4 0.020259001487720488 1 0.040517725674995932 1 0.060776449862271376 1 0.081035174049546813 1 0.10129389823682225 1 0.1215526224240977 1 0.14181134661137312 1 0.16207007079864857 1 0.18232879498592403 1 0.20258751917319945 1 0.2228462433604749 1 0.24310496754775035 1 0.26336369173502577 1 0.2836224159223012 1 0.30388114010957668 1 0.3241398642968521 1 0.34439858848412752 1 0.364657312671403 1 0.38491603685867842 1 0.40517476104595385 1 0.42543348523322932 1 0.44569220942050475 4
1 6.2831853071795862 -0 0 1 
1 0 -0 0 1 
7 0 0  8 23 4  2.843060452404917 6  2.843060452404917 6.2644732607324505  2.8465745561819449 6.5288288244234502  2.8535976824365039 6.7930340292604585  2.8641080644542383 7.0570425349460448  2.8780675572921544 7.3207841081040916  2.895424999037282 7.5841544577695688  2.9161226261377808 7.8470051209618763  2.9826227081149264 8.5738371479040634  3.0349092789228425 9.0301871993657876  3.0967553739654745 9.4834860218143504  3.1686615787388686 9.9365590648994271  3.2513155820772282 10.389283982990957  3.3457055222506495 10.839075846781547  3.4530461747618744 11.280766664502803  3.5864165802705648 11.741808333321419  3.5973478671774886 11.779047436370899  3.6084106117711987 11.816178299683189  3.6196075295124284 11.853195444366749  3.6309414664717345 11.890092915559103  3.6424153993295034 11.926864282426825  3.6540324353759503 11.963502638165556  3.6657958125111172 12.000000600000003 
 0 9 0.34140699140899017 7 0.94665687371979179 7 1 9
7 0 0  3 25 23  0.36520722121878801 6.3535449016575711  0.36639961403234889 6.3550777323659364  0.36878389754122942 6.3582260932267456  0.37235848437899755 6.3632036929296509  0.37593090702587517 6.3684432656830516  0.37950081764729049 6.3739518851679895  0.38306785342292926 6.3797367308526498  0.38663163410628609 6.3858051038085941  0.3901917621097919 6.3921644240257853  0.39374782189661595 6.3988222327117024  0.39729937950218464 6.4057861932118687  0.40084598210917388 6.413064092525997  0.40438715715474327 6.4206638418840587  0.40792241312816824 6.4285934805674385  0.41145123394430527 6.4368611677673018  0.41497309718988884 6.4454752191399791  0.41848740316602573 6.454443976630321  0.42199373673325891 6.4637763006268552  0.42549567080891926 6.4734927798335526  0.42899199888925565 6.4836021480682877  0.43248242042920371 6.4941158224323621  0.43596634580689742 6.5050448802092324  0.43944322071323594 6.5164008344703079  0.44175602239563627 6.5242639813247054  0.44291104407363946 6.5282706437035216 
 0.8238376702158644 4 0.83184504385990321 1 0.83985241750394202 1 0.84785979114798093 1 0.85586716479201974 1 0.86387453843605855 1 0.87188191208009735 1 0.87988928572413627 1 0.88789665936817508 1 0.89590403301221389 1 0.90391140665625269 1 0.91191878030029161 1 0.91992615394433042 1 0.92793352758836922 1 0.93594090123240803 1 0.94394827487644695 1 0.95195564852048575 1 0.95996302216452456 1 0.96797039580856337 1 0.97597776945260217 1 0.98398514309664109 1 0.9919925167406799 1 0.9999998903847187 4
8 5.9599999999999937 10.040000000000006
1 -8 -0.85088935932648191 1 0 
1 0.44291104407363857 0 0 1 
2 -9 5 1 0 -0 1 14
1 0 14 1 0 
1 9 0 0 1 
1 12 0 0 -1 
2 0 0 1 0 -0 1 14
1 0 16 1 0 
2 0 0 1 0 -0 1 10.199999999999999
1 0 16.099999999999994 1 0 
2 0 0 1 0 -0 1 14
1 0 16 1 0 
8 0.71999999999999886 16.100000599999987
1 1.2722641256100204 0 0 1 
8 0.71999999999999886 16.100000599999987
1 -2.0999999999999943 -0.44884608556315087 1 0 
1 0 15.899999999999991 1 0 
2 3 -9.3000000000000007 1 0 -0 1 10.199999999999999
8 0.71999999999999886 16.100000599999987
1 1.8693285279797729 0 0 1 
8 0.71999999999999886 16.100000599999987
1 -2.0999999999999943 -0.44884608556315087 1 0 
1 0 2.0999999999999943 1 0 
2 3 -9.3000000000000007 1 0 -0 1 10.199999999999999
1 13.799999999999997 0 0 -1 
1 6 0 0 1 
1 0 0 0 -1 
1 6 0 0 1 
1 0 0 1 0 
1 0 6 1 0 
1 0 0 0 1 
1 13.799999999999997 0 0 -1 
1 0 0 1 0 
1 13.799999999999997 0 0 1 
1 0 0 0 -1 
1 0 0 0 1 
1 0 0 1 0 
1 0 0 1 0 
1 0 0 1 0 
1 0 0 0 1 
1 35 0 0 1 
1 0 15 1 0 
1 35 0 0 1 
1 0 15 1 0 
1 0 0 1 0 
1 24 11 0 1 
1 0 0 1 0 
1 35 0 0 1 
1 11 -11 0 1 
1 0 4 1 0 
1 0 0 0 1 
1 0 4 1 0 
8 -18.5 -8.5
1 8.5 13 -1 0 
8 -18.5 -8.5
1 -8.5 -5 -1 -0 
8 6.5 24.5
1 27 6.5 0 1 
8 6.5 24.5
1 -6.5 5 1 0 
8 -18.5 -8.5
1 8.5 31 -1 0 
8 -18.5 -8.5
1 -8.5 -5 -1 -0 
1 24 29 0 1 
1 0 0 1 0 
1 0 0 0 1 
1 0 4 1 0 
1 0 44 1 0 
1 0 -4 1 0 
1 44 0 0 1 
1 0 4 1 0 
1 0 0 1 0 
1 0 -4 1 0 
8 -3.5662486121389567 -0.27535207775809456
1 5.7615381056766637 9.4285725732599168 -0.86602540378443826 0.50000000000000078 
8 -3.5662486121389567 -0.27535207775809456
1 -0.27535207775809456 -2.6000000000000014 -1 -0 
8 0.53182759921435263 3.8227241335952176
1 8.8499999999999943 3.8227241335952158 0 1 
8 0.53182759921435263 3.8227241335952176
1 3.8227241335952176 -2.6000000000000014 -1 0 
8 -6.5662486121389616 -3.2753520777580993
1 0.31346189432335336 6.0077722283113744 -0.86602540378443826 -0.50000000000000078 
8 -6.5662486121389616 -3.2753520777580993
1 -3.2753520777580993 -2.6000000000000014 -1 -0 
8 1.6299038105676549 4.9208003449485176
1 4.588461894323359 1.8941515603352919 0.86602540378443804 0.50000000000000111 
8 1.6299038105676549 4.9208003449485176
1 4.9208003449485176 -2.6000000000000014 -1 0 
8 -5.4681724007856491 -2.1772758664047807
1 3.1500000000000057 2.1772758664047842 0 -1 
8 -5.4681724007856491 -2.1772758664047807
1 -2.1772758664047807 -2.6000000000000014 -1 -0 
8 -1.3700961894323234 1.9208003449485376
1 4.3365381056766523 3.6695036380933992 0.86602540378443849 -0.50000000000000033 
8 -1.3700961894323234 1.9208003449485376
1 1.9208003449485376 -2.6000000000000014 -1 0 
8 -17.422655072689981 -14.131758538309118
1 25.761538105676664 16.356775803535434 -0.86602540378443826 0.50000000000000078 
8 -17.422655072689981 -14.131758538309118
1 -14.131758538309118 -2.6000000000000014 -1 -0 
8 0.53182759921435263 3.8227241335952176
1 40.849999999999994 3.8227241335952158 0 1 
8 0.53182759921435263 3.8227241335952176
1 3.8227241335952176 -2.6000000000000014 -1 0 
8 -20.422655072689984 -17.131758538309121
1 20.313461894323353 -0.92043100196413974 -0.86602540378443826 -0.50000000000000078 
8 -20.422655072689984 -17.131758538309121
1 -17.131758538309121 -2.6000000000000014 -1 -0 
8 15.486310271118679 18.777206805499542
1 24.588461894323359 -5.0340516699402258 0.86602540378443804 0.50000000000000111 
8 15.486310271118679 18.777206805499542
1 18.777206805499542 -2.6000000000000014 -1 0 
8 -5.4681724007856491 -2.1772758664047807
1 35.150000000000006 2.1772758664047842 0 -1 
8 -5.4681724007856491 -2.1772758664047807
1 -2.1772758664047807 -2.6000000000000014 -1 -0 
8 12.486310271118699 15.77720680549956
1 24.336538105676652 10.597706868368915 0.86602540378443849 -0.50000000000000033 
8 12.486310271118699 15.77720680549956
1 15.77720680549956 -2.6000000000000014 -1 0 
8 4.4337513878610633 7.7246479222419246
1 12.689741335952192 37.428572573259913 -0.86602540378443849 0.50000000000000033 
8 4.4337513878610633 7.7246479222419246
1 7.7246479222419246 -2.6000000000000014 -1 -0 
8 16.531827599214346 19.822724133595216
1 8.8499999999999943 19.822724133595216 0 1 
8 16.531827599214346 19.822724133595216
1 19.822724133595216 -2.6000000000000014 -1 0 
8 -14.566248612138951 -11.27535207775809
1 -6.6147413359521465 34.007772228311381 -0.86602540378443849 -0.50000000000000033 
8 -14.566248612138951 -11.27535207775809
1 -11.27535207775809 -2.6000000000000014 -1 -0 
8 9.6299038105676722 12.920800344948535
1 -2.3397413359521693 29.894151560335288 0.86602540378443826 0.50000000000000078 
8 9.6299038105676722 12.920800344948535
1 12.920800344948535 -2.6000000000000014 -1 0 
8 -21.468172400785654 -18.177275866404784
1 3.1500000000000057 18.177275866404784 0 -1 
8 -21.468172400785654 -18.177275866404784
1 -18.177275866404784 -2.6000000000000014 -1 -0 
8 -9.370096189432342 -6.0791996550514806
1 11.264741335952181 31.669503638093396 0.86602540378443849 -0.50000000000000033 
8 -9.370096189432342 -6.0791996550514806
1 -6.0791996550514806 -2.6000000000000014 -1 0 
8 -9.4226550726899543 -6.1317585383090938
1 32.689741335952192 44.35677580353542 -0.86602540378443849 0.50000000000000033 
8 -9.4226550726899543 -6.1317585383090938
1 -6.1317585383090938 -2.6000000000000014 -1 -0 
8 16.531827599214346 19.822724133595216
1 40.849999999999994 19.822724133595216 0 1 
8 16.531827599214346 19.822724133595216
1 19.822724133595216 -2.6000000000000014 -1 0 
8 -28.42265507268997 -25.131758538309111
1 13.385258664047853 27.079568998035867 -0.86602540378443849 -0.50000000000000033 
8 -28.42265507268997 -25.131758538309111
1 -25.131758538309111 -2.6000000000000014 -1 -0 
8 23.486310271118697 26.77720680549956
1 17.660258664047831 22.965948330059767 0.86602540378443826 0.50000000000000078 
8 23.486310271118697 26.77720680549956
1 26.77720680549956 -2.6000000000000014 -1 0 
8 -21.468172400785654 -18.177275866404784
1 35.150000000000006 18.177275866404784 0 -1 
8 -21.468172400785654 -18.177275866404784
1 -18.177275866404784 -2.6000000000000014 -1 -0 
8 4.4863102711186791 7.7772068054995405
1 31.264741335952181 38.59770686836891 0.86602540378443849 -0.50000000000000033 
8 4.4863102711186791 7.7772068054995405
1 7.7772068054995405 -2.6000000000000014 -1 0 
1 0 0 0 1 
1 0 4 1 0 
8 6.5 24.5
1 17 6.5 0 1 
8 6.5 24.5
1 -6.5 5 1 0 
1 19.5 2 -1 0 
8 -18.5 -8.5
1 -8.5 -5 -1 -0 
1 28 -4.5 0 1 
8 6.5 24.5
1 -6.5 5 1 0 
1 0 0 1 0 
1 35 0 0 1 
1 11 -29 0 1 
1 0 4 1 0 
1 28 -22.5 0 1 
8 6.5 24.5
1 -6.5 5 1 0 
1 19.5 2 -1 0 
8 -18.5 -8.5
1 -8.5 -5 -1 -0 
1 0 0 0 1 
1 0 0 0 -1 
1 44 0 0 1 
1 0 0 0 -1 
1 0 0 1 0 
1 0 0 0 1 
1 10 0 0 -1 
1 0 0 0 1 
1 0 0 0 -1 
1 0 0 0 1 
8 -2.2994017025758637 7.7005982974241363
1 2.2994017025758637 -2.5999999999999943 1 0 
8 -2.2994017025758637 7.7005982974241363
1 2.2994017025758637 -8.5369274327806313 -1 0 
1 18 0 0 1 
1 10 0 0 -1 
8 -13.731536283609685 4.2684637163903156
1 4.2684637163903156 2.5999999999999943 -1 0 
8 -13.731536283609685 4.2684637163903156
1 -5.4011965948482725 -4.2684637163903165 0 -1 
1 0 0 0 -1 
1 18 0 0 1 
8 -2.2994017025758637 7.7005982974241363
1 2.2994017025758637 -2.5999999999999943 1 0 
8 -2.2994017025758637 7.7005982974241363
1 2.2994017025758637 9.4630725672193687 -1 0 
1 0 0 1 0 
1 0 44 1 0 
1 44 0 0 -1 
1 44 0 0 1 
1 0 0 0 1 
1 44 0 0 -1 
1 0 0 1 0 
1 44 0 0 1 
1 0 0 1 0 
1 0 0 1 0 
1 0 0 1 0 
1 0 3.2908965343808632 -0.86602540378443826 -0.50000000000000078 
1 3.2908965343808623 0 0 -1 
1 0 0 0 -1 
1 0 0 0 -1 
1 3.2908965343808623 0 0 -1 
1 0 0 1 0 
1 -2.8499999999999943 1.6454482671904298 0 -1 
1 3.2908965343808649 0 0 -1 
1 0 0 0 -1 
1 0 0 1 0 
1 2.8499999999999943 1.6454482671904298 -0.86602540378443826 0.50000000000000078 
1 0 0 0 -1 
1 3.2908965343808685 0 0 -1 
1 0 0 1 0 
1 -2.8499999999999943 -1.6454482671904351 0.86602540378443804 -0.50000000000000111 
1 3.2908965343808627 0 0 -1 
1 0 0 0 -1 
1 0 0 1 0 
1 2.8499999999999943 -1.6454482671904387 0 1 
1 0 0 0 -1 
1 3.2908965343808609 0 0 -1 
1 0 0 1 0 
1 0 -3.2908965343808703 0.86602540378443849 0.50000000000000033 
1 0 0 1 0 
1 -2.8421709430404007e-14 3.2908965343808632 -0.86602540378443826 -0.50000000000000078 
1 3.2908965343808623 0 0 -1 
1 0 0 0 -1 
1 0 0 0 -1 
1 3.2908965343808623 0 0 -1 
1 0 0 1 0 
1 -2.8500000000000227 1.6454482671904298 0 -1 
1 3.2908965343808649 0 0 -1 
1 0 0 0 -1 
1 0 0 1 0 
1 2.8499999999999659 1.6454482671904298 -0.86602540378443826 0.50000000000000078 
1 0 0 0 -1 
1 3.2908965343808685 0 0 -1 
1 0 0 1 0 
1 -2.8500000000000227 -1.6454482671904351 0.86602540378443804 -0.50000000000000111 
1 3.2908965343808627 0 0 -1 
1 0 0 0 -1 
1 0 0 1 0 
1 2.8499999999999659 -1.6454482671904387 0 1 
1 0 0 0 -1 
1 3.2908965343808609 0 0 -1 
1 0 0 1 0 
1 -2.8421709430404007e-14 -3.2908965343808703 0.86602540378443849 0.50000000000000033 
1 0 0 1 0 
1 -2.8421709430404007e-14 3.2908965343808667 -0.86602540378443849 -0.50000000000000033 
1 3.2908965343808609 0 0 -1 
1 0 0 0 -1 
1 0 0 0 -1 
1 3.2908965343808609 0 0 -1 
1 0 0 1 0 
1 -2.8500000000000227 1.6454482671904351 0 -1 
1 3.2908965343808685 0 0 -1 
1 0 0 0 -1 
1 0 0 1 0 
1 2.8499999999999659 1.6454482671904351 -0.86602540378443849 0.50000000000000033 
1 0 0 0 -1 
1 3.2908965343808703 0 0 -1 
1 0 0 1 0 
1 -2.8500000000000227 -1.6454482671904334 0.86602540378443826 -0.50000000000000078 
1 3.2908965343808623 0 0 -1 
1 0 0 0 -1 
1 0 0 1 0 
1 2.8499999999999659 -1.6454482671904351 0 1 
1 0 0 0 -1 
1 3.2908965343808609 0 0 -1 
1 0 0 1 0 
1 -2.8421709430404007e-14 -3.2908965343808667 0.86602540378443849 0.50000000000000033 
1 0 0 1 0 
1 -5.6843418860808015e-14 3.2908965343808667 -0.86602540378443849 -0.50000000000000033 
1 3.2908965343808609 0 0 -1 
1 0 0 0 -1 
1 0 0 0 -1 
1 3.2908965343808609 0 0 -1 
1 0 0 1 0 
1 -2.8500000000000512 1.6454482671904351 0 -1 
1 3.2908965343808685 0 0 -1 
1 0 0 0 -1 
1 0 0 1 0 
1 2.8499999999999375 1.6454482671904351 -0.86602540378443849 0.50000000000000033 
1 0 0 0 -1 
1 3.2908965343808703 0 0 -1 
1 0 0 1 0 
1 -2.8500000000000512 -1.6454482671904334 0.86602540378443826 -0.50000000000000078 
1 3.2908965343808623 0 0 -1 
1 0 0 0 -1 
1 0 0 1 0 
1 2.8499999999999375 -1.6454482671904351 0 1 
1 0 0 0 -1 
1 3.2908965343808609 0 0 -1 
1 0 0 1 0 
1 -5.6843418860808015e-14 -3.2908965343808667 0.86602540378443849 0.50000000000000033 
8 -13.731536283609685 4.2684637163903156
1 4.2684637163903156 2.5999999999999943 -1 0 
8 -13.731536283609685 4.2684637163903156
1 4.5988034051517275 -4.2684637163903165 0 -1 
2 6 6 1 0 -0 1 1.7
1 0 1 1 0 
8 -30.800000000000001 -4.4000000000000021
1 10.800000000000011 4.3999999999999986 0 -1 
8 -30.800000000000001 -4.4000000000000021
1 -4.4000000000000021 -0.10000000000000142 -1 -0 
8 -22.799999999999983 -5.4000000000000057
1 5.4000000000000057 35.200000000000003 -1 0 
8 -22.799999999999983 -5.4000000000000057
1 -5.4000000000000057 -0.10000000000000142 -1 0 
8 -5.7999999999999829 16.599999999999994
1 16.599999999999994 8.8000000000000007 1 0 
8 -5.7999999999999829 16.599999999999994
1 16.599999999999994 -0.10000000000000142 -1 -0 
8 -4.5961940777125578 2.4748737341529177
1 29.949999999999989 33.449999999999996 -0.70710678118654757 0.70710678118654757 
8 -4.5961940777125578 2.4748737341529177
1 2.4748737341529177 -0.10000000000000142 -1 -0 
8 -6.2999999999999989 15.1
1 33.199999999999989 15.1 0 1 
8 -6.2999999999999989 15.1
1 15.1 -0.10000000000000142 -1 0 
2 38 6 1 0 -0 1 1.7
1 0 1 1 0 
2 6 38 1 0 -0 1 1.7
1 0 1 1 0 
2 38 38 1 0 -0 1 1.7
1 0 1 1 0 
1 10.798803405151716 -12.736927432780631 0 1 
1 0 -1.7000000000000028 1 0 
1 -11.601196594848261 -12.736927432780631 1 0 
1 0 -1.7000000000000028 1 0 
1 10.798803405151716 13.663072567219368 -1 0 
1 0 -1.7000000000000028 1 0 
1 -11.601196594848261 8.663072567219368 0 -1 
1 0 -1.7000000000000028 1 0 
1 -6.6011965948482612 13.663072567219368 -0.70710678118654757 -0.70710678118654757 
1 0 -1.7000000000000028 1 0 
2 0 -3.5527136788005009e-15 -1 0 0 1 1.7
1 0 2.4000000000000057 1 0 
2 -2.8421709430404007e-14 -3.5527136788005009e-15 -1 0 0 1 1.7
1 0 2.4000000000000057 1 0 
2 -2.8421709430404007e-14 0 -1 0 0 1 1.7
1 0 2.4000000000000128 1 0 
2 -5.6843418860808015e-14 0 -1 0 0 1 1.7
1 0 2.4000000000000128 1 0 
1 6.2831853071795862 -0 0 1 
1 0 -0 0 1 
1 26.399999999999999 0 0 -1 
1 0 0 0 -1 
1 0 0 0 -1 
1 22.399999999999977 0 0 -1 
1 17.399999999999977 0 0 -1 
1 0 0 0 -1 
1 0 -0 0 -1 
1 21.399999999999999 0 0 -1 
1 7.0710678118654755 0 0 -1 
1 0 0 0 -1 
1 6.2831853071795862 -0 0 1 
1 0 -0 0 1 
1 6.2831853071795862 -0 0 1 
1 0 -0 0 1 
1 6.2831853071795862 -0 0 1 
1 0 -0 0 1 
1 6.2831853071795862 0 0 1 
1 0 0 0 1 
Curves 247
1 -7 -11 123 -0 1 0 
1 -5.5 -7 123 -1 -0 0 
1 -11 -11 123 -0 1 0 
2 0 0 123 0 0 1 1 0 -0 -0 1 0 14
2 0 0 123 0 0 1 1 0 -0 -0 1 0 14
1 11 -11 123 -0 1 0 
1 3.5 -7 123 -1 -0 0 
1 7 -11 123 -0 1 0 
2 0 0 123 0 0 1 1 0 -0 -0 1 0 14
2 0 0 123 0 0 1 1 0 -0 -0 1 0 6
1 -11 -22 157 -0 1 0 
1 -11 -7 122 0 0 1 
1 -11 -8.6602540378443873 120 0 0 1 
1 -11 -22 122 -0 1 0 
1 -11 -22 122 0 0 1 
1 -11 -22 122 0 0 1 
2 0 0 122 0 0 1 1 0 -0 -0 1 0 14
1 -7 -22 122 -0 1 0 
1 -11 -22 122 1 0 -0 
1 -7 -22 157 -0 1 0 
1 -7 -7 122 0 0 1 
1 -7 -12.124355652982141 120 0 0 1 
1 -7 -22 122 0 0 1 
1 -7 -22 122 0 0 1 
1 -7 -22 122 0 0 1 
1 7 -22 157 -0 1 0 
1 7 -7 122 0 0 1 
1 7 -12.124355652982141 120 0 0 1 
1 7 -22 122 -0 1 0 
1 7 -22 122 0 0 1 
1 7 -22 122 0 0 1 
1 7 -22 122 0 0 1 
2 0 0 122 0 0 1 1 0 -0 -0 1 0 14
1 11 -22 122 -0 1 0 
1 7 -22 122 1 0 -0 
1 11 -22 157 -0 1 0 
1 11 -7 122 0 0 1 
1 11 -8.6602540378443873 120 0 0 1 
1 11 -22 122 0 0 1 
1 11 -22 122 0 0 1 
1 6 -1.4695761589768238e-15 119.90000000000001 0 0 1 
2 0 0 120 0 0 1 1 0 -0 -0 1 0 6
1 13.996785345214093 0.29999999999999999 104 0 0 1 
1 -10.5 0.29999999999999993 106 -1 -0 0 
1 18 0.29999999999999993 103 0 0 1 
1 -10.5 0.29999999999999993 118 -1 -0 0 
1 13.996785345214093 0.29999999999999999 104 0 0 1 
1 -15 0.29999999999999999 120 -1 -0 0 
1 10.195587280779856 0.29999999999999999 103.90000000000001 0 0 1 
1 -15 0.29999999999999999 104 -1 -0 0 
2 13.5 0.29999999999999982 112 0 1 0 0 -0 1 1 0 -0 1.7
2 0 0 104 0 0 1 1 0 -0 -0 1 0 10.199999999999999
1 -15 0.29999999999999999 104 -1 -0 0 
2 0 0 104 0 0 1 1 0 0 0 1 0 14
1 -10.195587280779856 0.29999999999999999 103.90000000000001 0 0 1 
1 -15 0.29999999999999999 120 -1 -0 0 
1 -13.996785345214093 0.29999999999999999 104 0 0 1 
1 -24 0.29999999999999993 118 -1 -0 0 
1 -18 0.29999999999999993 103 0 0 1 
1 -24 0.29999999999999993 106 -1 -0 0 
1 -13.996785345214093 0.29999999999999999 104 0 0 1 
2 -13.5 0.29999999999999982 112 0 1 0 0 -0 1 1 0 -0 1.7
1 -18 5 118 1 0 -0 
2 0 0 118 0 0 1 1 0 0 0 1 0 14
1 -18 -5 118 -0 1 0 
1 -18 5 106 1 0 -0 
1 -13.076696830622021 5 104 0 0 1 
2 -13.5 5 112 0 1 0 0 -0 1 1 0 -0 1.7
2 -13.5 5 112 0 1 0 0 -0 1 1 0 -0 1.7
1 -13.076696830622021 5 104 0 0 1 
1 -18 5 106 0 0 1 
2 -13.5 6 112 0 1 0 0 -0 1 1 0 -0 1.7
7 0 0  8 44 7  -12.649110356068508 -6.0000005999999999 110.52827080824964  -12.788011936097469 -5.7071703935465914 110.44796397147908  -12.922605373302456 -5.4034140639697696 110.39013810361706  -13.04979594399528 -5.0935229989592168 110.35005084185995  -13.168241506751091 -4.7804182648006339 110.32371717366196  -13.27752182654633 -4.465757697033176 110.30790460546991  -13.377751513076729 -4.1500221446887604 110.3000680407176  -13.469355738298171 -3.8323630781960771 110.29823076193583  -13.597562671875155 -3.3374031669227491 110.30220919496749  -13.639820948857707 -3.1638512831386478 110.3048735761347  -13.679498233632927 -2.989896269388753 110.30854408348802  -13.716595106040382 -2.8155841842482552 110.31297714402186  -13.751115664059766 -2.6409488987907297 110.3179511166514  -13.783065966563727 -2.4660120002202626 110.32326482529223  -13.812452476070622 -2.2907826955035921 110.32873609193979  -13.879460811608626 -1.8523741059158096 110.34238396405367  -13.913911800031908 -1.5887643799075053 110.35055419143393  -13.942613765142696 -1.3246322284306467 110.35815454222447  -13.965566818423994 -1.0601265910935787 110.36472061602198  -13.98277882470712 -0.7953517788708897 110.36989267072782  -13.994256547585302 -0.53037764872305337 110.37342503999382  -14 -0.26524982962448168 110.37519231907278  -14 0.26524982962133237 110.37519231907278  -13.994256547585461 0.53037764872213611 110.37342503999389  -13.982778824707093 0.7953517788731771 110.36989267072784  -13.965566818423712 1.0601265910968645 110.36472061602194  -13.942613765142445 1.3246322284319481 110.35815454222443  -13.91391180003205 1.5887643799055517 110.35055419143403  -13.879460811609121 1.852374105912544 110.34238396405379  -13.768369439175419 2.5792002763135962 110.31975751270619  -13.680537058937349 3.0348408328264416 110.30546118326826  -13.575746003449028 3.4874426329940498 110.29418090025953  -13.453058393137656 3.9398070070811677 110.28940880819437  -13.311580601510183 4.3918093647016221 110.29584151047379  -13.151280352751714 4.8408758191256904 110.3199278913178  -12.973687991810683 5.2818582023176521 110.37018653995685  -12.768276342852261 5.7421935097959382 110.46542617742438  -12.751535421285475 5.7793766277210006 110.473437402736  -12.734694300144586 5.8164517847350039 110.48175466989258  -12.717756187427023 5.8534135229297615 110.49038732748699  -12.70072464471107 5.8902559121298665 110.49934506623065  -12.68360358715586 5.9269725498927022 110.50863791895358  -12.666397283501391 5.9635565615084314 110.51827626060427  -12.649110356068517 6.0000005999999981 110.52827080824964 
 0 9 0.21297985076709242 7 0.3275133282123931 7 0.49905001675689575 7 0.67058670529935949 7 0.97331828646120544 7 1 9
1 -13.500000000000002 -6 113.7 0 1 0 
7 0 0  7 8 2  -13.5 3.7080992435478346 113.7  -13.407064739726 4.0464467178993013 113.7  -13.304775820745734 4.3801136746160791 113.6940730619707  -13.192588393663479 4.7118830065153805 113.68006905429053  -13.070053583648495 5.0421740137052318 113.65518442953143  -12.937336351514181 5.3696074989477056 113.61562963833522  -12.795737947376525 5.6908825336285389 113.55650287134981  -12.649110356068505 6.000000600000007 113.47172919175034 
 0 8 1 8
1 -12.649110640673518 6 104 0 0 1 
2 0 0 106 0 0 1 1 0 0 0 1 0 14
1 -18 -5 106 -0 1 0 
2 0 0 106 0 0 1 1 0 0 0 1 0 14
1 9 5 106 1 0 -0 
1 18 -5 106 -0 1 0 
1 18 5 106 0 0 1 
1 9 5 118 1 0 -0 
1 13.076696830622021 5 104 0 0 1 
2 13.5 5 112 0 1 0 0 -0 1 1 0 -0 1.7
2 13.5 5 112 0 1 0 0 -0 1 1 0 -0 1.7
1 13.076696830622021 5 104 0 0 1 
2 13.5 6 112 0 1 0 0 -0 1 1 0 -0 1.7
7 0 0  7 8 2  12.649110356068512 6.0000005999999981 113.47172919175036  12.795730600848815 5.6908980214669498 113.55649862390783  12.937329342136932 5.3696245686072004 113.61562787190672  13.070052398519076 5.0421796337916236 113.65518530323124  13.192593758281349 4.7118708978101704 113.68007076274486  13.30478495358407 4.3800868388444973 113.69407403691866  13.407072501510543 4.0464184597313091 113.7  13.5 3.7080992435478262 113.7 
 0 8 1 8
1 13.499999999999998 -6 113.7 0 1 0 
7 0 0  8 23 4  14 0 110.37519231907278  14 0.26447326073245081 110.37519231907278  13.994290127795594 0.52882882442345436 110.37343536582355  13.982879214901049 0.7930340292604573 110.36992356818739  13.965767154359796 1.0570425349460399 110.36478081967515  13.942947289798234 1.3207841081040905 110.35824995932626  13.914411981112933 1.5841544577695703 110.35068669167246  13.880161346791153 1.8470051209618761 110.34255026578489  13.769398205990697 2.5738371479040634 110.31992592823454  13.681607988104719 3.0301871993657916 110.30557857116013  13.576811698353008 3.4834860218143433 110.29422574424655  13.4540660456907 3.936559064899436 110.2893681338897  13.312470208846868 4.3892839829909498 110.29571648323586  13.151989586182125 4.8390758467815491 110.31974298769258  12.974157509191496 5.2807666645028029 110.36999819262132  12.768449753852888 5.74180833332142 110.46534320524918  12.751684949403353 5.7790474363708997 110.47336356482928  12.734819624496762 5.8161782996831892 110.48169080339983  12.717856999137769 5.8531954443667518 110.49033430932501  12.700800649410958 5.8900929155591024 110.49930381480887  12.683654507480847 5.9268642824268234 110.50860939589523  12.666422861591899 5.963502638165556 110.51826147246769  12.649110356068507 6.0000006000000008 110.52827080824964 
 0 9 0.34140699140899017 7 0.94665687371979179 7 1 9
1 12.649110640673518 6 104 0 0 1 
2 0 0 118 0 0 1 1 0 0 0 1 0 14
1 18 -5 118 -0 1 0 
2 0 0 120 0 0 1 1 0 -0 -0 1 0 14
2 0 0 120 0 0 1 1 0 -0 -0 1 0 10.199999999999999
2 0 0 120 0 0 1 1 0 -0 -0 1 0 14
1 3 9.7488460855631516 103.90000000000001 0 0 1 
2 0 0 119.8 0 0 1 1 0 -0 -0 1 0 10.199999999999999
1 -3 9.7488460855631516 103.90000000000001 0 0 1 
2 0 0 106 0 0 1 1 0 -0 -0 1 0 10.199999999999999
1 3 9.3000000000000007 119.8 -0 1 0 
1 3 9.3000000000000007 106 -0 1 0 
1 3 9.3000000000000007 106 0 0 1 
1 -3 9.3000000000000007 119.8 -0 1 0 
1 -3 9.3000000000000007 119.8 1 0 -0 
1 -3 9.3000000000000007 106 -0 1 0 
1 -3 9.3000000000000007 106 0 0 1 
1 -3 9.3000000000000007 106 1 0 -0 
1 -11 -7 157 1 0 -0 
1 7 -7 157 1 0 -0 
1 -11 -22 157 1 0 -0 
1 -11 -22 157 1 0 -0 
1 -22 -48 155 1 0 -0 
1 -22 -48 155 1 0 -0 
1 -9 -48 163.5 -0 0 -1 
1 -15.5 -48 182 1 0 -0 
1 9 -48 163.5 -0 0 -1 
1 7 -22 157 1 0 -0 
1 -22 -48 155 1 0 -0 
1 22 -48 155 0 0 1 
1 -22 -48 199 1 0 -0 
1 -22 -48 155 0 0 1 
1 -12.571427426740083 -48 160.76153810567666 0.50000000000000078 0 -0.86602540378443826 
1 -18.177275866404784 -48 163.84999999999999 1 0 0 
1 -15.992227771688626 -48 155.31346189432335 -0.50000000000000078 0 -0.86602540378443826 
1 -20.105848439664708 -48 159.58846189432336 0.50000000000000111 0 0.86602540378443804 
1 -19.822724133595216 -48 158.15000000000001 -1 0 -0 
1 -18.330496361906601 -48 159.33653810567665 -0.50000000000000033 -0 0.86602540378443849 
1 -5.6432241964645637 -48 180.76153810567666 0.50000000000000078 0 -0.86602540378443826 
1 -18.177275866404784 -48 195.84999999999999 1 0 0 
1 -22.92043100196414 -48 175.31346189432335 -0.50000000000000078 0 -0.86602540378443826 
1 -27.034051669940226 -48 179.58846189432336 0.50000000000000111 0 0.86602540378443804 
1 -19.822724133595216 -48 190.15000000000001 -1 0 -0 
1 -11.402293131631085 -48 179.33653810567665 -0.50000000000000033 -0 0.86602540378443849 
1 15.428572573259911 -48 167.68974133595219 0.50000000000000033 0 -0.86602540378443849 
1 -2.1772758664047824 -48 163.84999999999999 1 0 0 
1 12.00777222831138 -48 148.38525866404785 -0.50000000000000033 0 -0.86602540378443849 
1 7.8941515603352874 -48 152.66025866404783 0.50000000000000078 0 0.86602540378443826 
1 -3.8227241335952176 -48 158.15000000000001 -1 0 -0 
1 9.6695036380933956 -48 166.26474133595218 -0.50000000000000033 -0 0.86602540378443849 
1 22.35677580353542 -48 187.68974133595219 0.50000000000000033 0 -0.86602540378443849 
1 -2.1772758664047824 -48 195.84999999999999 1 0 0 
1 5.0795689980358683 -48 168.38525866404785 -0.50000000000000033 0 -0.86602540378443849 
1 0.96594833005976888 -48 172.66025866404783 0.50000000000000078 0 0.86602540378443826 
1 -3.8227241335952176 -48 190.15000000000001 -1 0 -0 
1 16.59770686836891 -48 186.26474133595218 -0.50000000000000033 -0 0.86602540378443849 
1 -22 -48 155 1 0 -0 
1 -15.5 -48 172 1 0 -0 
1 -9 -48 163.5 -0 0 -1 
1 -15.5 -48 172 1 0 -0 
1 7 -22 157 1 0 -0 
1 -22 -48 155 1 0 -0 
1 -15.5 -48 172 1 0 -0 
1 9 -48 163.5 -0 0 -1 
1 -22 -52 155 -0 1 0 
1 22 -52 155 -0 1 0 
1 -22 -52 155 1 0 -0 
1 -9 -53 182 -0 1 0 
1 -9 -53 172 -0 1 0 
1 -9 -50.400000000000006 174.29940170257586 0 -0 1 
1 9 -53 182 -0 1 0 
1 -4.7315362836096844 -50.400000000000006 182 -1 0 0 
1 9 -53 172 -0 1 0 
1 9 -50.400000000000006 174.29940170257586 0 -0 1 
1 22 -52 155 0 0 1 
1 22 -52 199 -0 1 0 
1 -22 -52 199 -0 1 0 
1 -22 -52 199 1 0 -0 
1 -22 -52 155 0 0 1 
1 -12.709103465619133 -50.600000000000001 161 -0.50000000000000078 0 0.86602540378443826 
1 -14.354551732809567 -50.600000000000001 163.84999999999999 0 1 0 
1 -12.709103465619133 -50.600000000000001 161 0 1 0 
1 -14.354551732809567 -50.600000000000001 163.84999999999999 -1 0 0 
1 -17.645448267190432 -50.600000000000001 163.84999999999999 0 1 0 
1 -14.354551732809567 -50.600000000000001 158.15000000000001 0.50000000000000078 0 0.86602540378443826 
1 -14.354551732809567 -50.600000000000001 158.15000000000001 0 1 0 
1 -17.645448267190432 -50.600000000000001 163.84999999999999 -0.50000000000000111 0 -0.86602540378443804 
1 -19.290896534380867 -50.600000000000001 161 0 1 0 
1 -17.645448267190435 -50.600000000000001 158.15000000000001 1 0 0 
1 -17.645448267190435 -50.600000000000001 158.15000000000001 0 1 0 
1 -19.290896534380867 -50.600000000000001 161 0.50000000000000033 0 -0.86602540378443849 
1 -12.709103465619133 -50.600000000000001 193 -0.50000000000000078 0 0.86602540378443826 
1 -14.354551732809567 -50.600000000000001 195.84999999999999 0 1 0 
1 -12.709103465619133 -50.600000000000001 193 0 1 0 
1 -14.354551732809567 -50.600000000000001 195.84999999999999 -1 0 0 
1 -17.645448267190432 -50.600000000000001 195.84999999999999 0 1 0 
1 -14.354551732809567 -50.600000000000001 190.15000000000001 0.50000000000000078 0 0.86602540378443826 
1 -14.354551732809567 -50.600000000000001 190.15000000000001 0 1 0 
1 -17.645448267190432 -50.600000000000001 195.84999999999999 -0.50000000000000111 0 -0.86602540378443804 
1 -19.290896534380867 -50.600000000000001 193 0 1 0 
1 -17.645448267190435 -50.600000000000001 190.15000000000001 1 0 0 
1 -17.645448267190435 -50.600000000000001 190.15000000000001 0 1 0 
1 -19.290896534380867 -50.600000000000001 193 0.50000000000000033 0 -0.86602540378443849 
1 19.290896534380867 -50.600000000000001 161 -0.50000000000000033 0 0.86602540378443849 
1 17.645448267190435 -50.600000000000001 163.84999999999999 0 1 0 
1 19.290896534380867 -50.600000000000001 161 0 1 0 
1 17.645448267190435 -50.600000000000001 163.84999999999999 -1 0 0 
1 14.354551732809567 -50.600000000000001 163.84999999999999 0 1 0 
1 17.645448267190435 -50.600000000000001 158.15000000000001 0.50000000000000033 0 0.86602540378443849 
1 17.645448267190435 -50.600000000000001 158.15000000000001 0 1 0 
1 14.354551732809567 -50.600000000000001 163.84999999999999 -0.50000000000000078 0 -0.86602540378443826 
1 12.709103465619133 -50.600000000000001 161 0 1 0 
1 14.354551732809565 -50.600000000000001 158.15000000000001 1 0 0 
1 14.354551732809565 -50.600000000000001 158.15000000000001 0 1 0 
1 12.709103465619133 -50.600000000000001 161 0.50000000000000033 0 -0.86602540378443849 
1 19.290896534380867 -50.600000000000001 193 -0.50000000000000033 0 0.86602540378443849 
1 17.645448267190435 -50.600000000000001 195.84999999999999 0 1 0 
1 19.290896534380867 -50.600000000000001 193 0 1 0 
1 17.645448267190435 -50.600000000000001 195.84999999999999 -1 0 0 
1 14.354551732809567 -50.600000000000001 195.84999999999999 0 1 0 
1 17.645448267190435 -50.600000000000001 190.15000000000001 0.50000000000000033 0 0.86602540378443849 
1 17.645448267190435 -50.600000000000001 190.15000000000001 0 1 0 
1 14.354551732809567 -50.600000000000001 195.84999999999999 -0.50000000000000078 0 -0.86602540378443826 
1 12.709103465619133 -50.600000000000001 193 0 1 0 
1 14.354551732809565 -50.600000000000001 190.15000000000001 1 0 0 
1 14.354551732809565 -50.600000000000001 190.15000000000001 0 1 0 
1 12.709103465619133 -50.600000000000001 193 0.50000000000000033 0 -0.86602540378443849 
1 -4.7315362836096844 -50.400000000000006 172 -1 0 0 
2 -16 -52 161 0 1 0 0 -0 1 1 0 -0 1.7
1 -17.600000000000001 -52 165.80000000000001 -1 0 -0 
1 13.200000000000001 -52 160.40000000000001 0 0 -1 
1 -13.199999999999999 -52 171.59999999999999 0 0 1 
1 11.449999999999998 -52 184.94999999999999 0.70710678118654757 0 -0.70710678118654757 
1 -6.9000000000000004 -52 188.19999999999999 1 0 0 
2 -16 -52 193 0 1 0 0 -0 1 1 0 -0 1.7
2 16 -52 161 0 1 0 0 -0 1 1 0 -0 1.7
2 16 -52 193 0 1 0 0 -0 1 1 0 -0 1.7
1 -13.199999999999999 -52.100000000000001 165.80000000000001 1 0 0 
1 -13.199999999999999 -52.100000000000001 188.19999999999999 0 0 -1 
1 13.199999999999999 -52.100000000000001 165.80000000000001 0 0 1 
1 8.1999999999999993 -52.100000000000001 188.19999999999999 -1 0 0 
1 13.199999999999999 -52.100000000000001 183.19999999999999 -0.70710678118654746 0 0.70710678118654746 
2 -16 -50.599999999999994 161 0 1 0 0 -0 1 1 0 -0 1.7
2 -16 -50.599999999999994 193 0 1 0 0 -0 1 1 0 -0 1.7
2 16 -50.599999999999987 161 0 1 0 0 -0 1 1 0 -0 1.7
2 16 -50.599999999999987 193 0 1 0 0 -0 1 1 0 -0 1.7
1 -16 -53 162.69999999999999 0 1 0 
1 13.199999999999999 -52.100000000000001 165.80000000000001 0 1 0 
1 -13.199999999999999 -52.100000000000001 165.80000000000001 0 1 0 
1 13.199999999999999 -52.100000000000001 183.19999999999999 0 1 0 
1 -13.199999999999999 -52.100000000000001 188.19999999999999 0 1 0 
1 8.1999999999999993 -52.100000000000001 188.19999999999999 0 1 0 
1 -16 -53 194.69999999999999 0 1 0 
1 16 -53 162.69999999999999 0 1 0 
1 16 -53 194.69999999999999 0 1 0 
7 0 0  1 2 2  14 0 120  14 0 123 
 16 2 19 2
Polygon3D 0
PolygonOnTriangulations 0
Surfaces 88
1 0 0 123 0 0 1 1 0 -0 -0 1 0 
1 -7 -22 122 1 0 -0 0 0 1 0 -1 0 
1 -11 -7 122 -0 1 0 0 0 1 1 0 -0 
1 -11 -22 122 1 0 -0 0 0 1 0 -1 0 
10 0 6.2831853071795862 0 19
2 0 0 104 0 0 1 1 0 0 0 1 0 14
1 11 -22 122 1 0 -0 0 0 1 0 -1 0 
1 7 -7 122 -0 1 0 0 0 1 1 0 -0 
1 7 -22 122 1 0 -0 0 0 1 0 -1 0 
2 0 0 119.90000000000001 0 0 1 1 0 -0 -0 1 0 6
1 -11 -22 157 0 0 1 1 0 -0 -0 1 0 
1 -11 -22 122 0 0 1 1 0 -0 -0 1 0 
1 -11 -22 122 -0 1 0 0 0 1 1 0 -0 
1 -22 -48 155 -0 1 0 0 0 1 1 0 -0 
1 -22 -48 155 -0 1 0 0 0 1 1 0 -0 
1 -11 -22 122 -0 1 0 0 0 1 1 0 -0 
1 7 -22 157 0 0 1 1 0 -0 -0 1 0 
1 7 -22 122 0 0 1 1 0 -0 -0 1 0 
1 7 -22 122 -0 1 0 0 0 1 1 0 -0 
1 7 -22 122 -0 1 0 0 0 1 1 0 -0 
1 0 0 120 0 0 1 1 0 -0 -0 1 0 
1 -30 0.29999999999999999 100 -0 1 0 0 0 1 1 0 -0 
1 9 -5 106 0 0 1 1 0 -0 -0 1 0 
1 18 -5 106 1 0 -0 0 0 1 0 -1 0 
1 9 -5 118 0 0 1 1 0 -0 -0 1 0 
2 0 0 103.90000000000001 0 0 1 1 0 -0 -0 1 0 10.199999999999999
1 0 0 104 0 0 1 1 0 -0 -0 1 0 
2 13.5 -6 112 0 1 0 0 -0 1 1 0 -0 1.7
1 -30 0.29999999999999999 100 -0 1 0 0 0 1 1 0 -0 
1 -18 -5 118 0 0 1 1 0 -0 -0 1 0 
1 -18 -5 106 1 0 -0 0 0 1 0 -1 0 
1 -18 -5 106 0 0 1 1 0 -0 -0 1 0 
2 -13.5 -6 112 0 1 0 0 -0 1 1 0 -0 1.7
1 -18 5 106 -0 1 0 0 0 1 1 0 -0 
1 -13.5 6 112 0 1 0 0 -0 1 1 0 -0 
1 9 5 106 -0 1 0 0 0 1 1 0 -0 
1 13.5 6 112 0 1 0 0 -0 1 1 0 -0 
1 3 9.3000000000000007 106 1 0 -0 0 0 1 0 -1 0 
1 -3 9.3000000000000007 119.8 0 0 1 1 0 -0 -0 1 0 
1 -3 9.3000000000000007 106 1 0 -0 0 0 1 0 -1 0 
1 -3 9.3000000000000007 106 0 0 1 1 0 -0 -0 1 0 
1 -3 9.3000000000000007 106 -0 1 0 0 0 1 1 0 -0 
1 -22 -52 155 0 0 1 1 0 -0 -0 1 0 
1 -9 -53 172 1 0 -0 0 0 1 0 -1 0 
1 -9 -53 182 0 0 1 1 0 -0 -0 1 0 
1 9 -53 172 1 0 -0 0 0 1 0 -1 0 
1 22 -52 155 1 0 -0 0 0 1 0 -1 0 
1 -22 -52 199 0 0 1 1 0 -0 -0 1 0 
1 -22 -52 155 1 0 -0 0 0 1 0 -1 0 
1 -12.709103465619133 -50.600000000000001 161 0.86602540378443826 -0 0.50000000000000078 -0.50000000000000078 0 0.86602540378443826 -0 -1 0 
1 -14.354551732809567 -50.600000000000001 163.84999999999999 0 -0 1 -1 0 0 -0 -1 0 
1 -14.354551732809567 -50.600000000000001 158.15000000000001 0.86602540378443826 0 -0.50000000000000078 0.50000000000000078 0 0.86602540378443826 0 -1 0 
1 -17.645448267190432 -50.600000000000001 163.84999999999999 -0.86602540378443804 0 0.50000000000000111 -0.50000000000000111 0 -0.86602540378443804 -0 -1 0 
1 -17.645448267190435 -50.600000000000001 158.15000000000001 0 0 -1 1 0 0 0 -1 0 
1 -19.290896534380867 -50.600000000000001 161 -0.86602540378443849 0 -0.50000000000000033 0.50000000000000033 0 -0.86602540378443849 0 -1 -0 
1 -12.709103465619133 -50.600000000000001 193 0.86602540378443826 -0 0.50000000000000078 -0.50000000000000078 0 0.86602540378443826 -0 -1 0 
1 -14.354551732809567 -50.600000000000001 195.84999999999999 0 -0 1 -1 0 0 -0 -1 0 
1 -14.354551732809567 -50.600000000000001 190.15000000000001 0.86602540378443826 0 -0.50000000000000078 0.50000000000000078 0 0.86602540378443826 0 -1 0 
1 -17.645448267190432 -50.600000000000001 195.84999999999999 -0.86602540378443804 0 0.50000000000000111 -0.50000000000000111 0 -0.86602540378443804 -0 -1 0 
1 -17.645448267190435 -50.600000000000001 190.15000000000001 0 0 -1 1 0 0 0 -1 0 
1 -19.290896534380867 -50.600000000000001 193 -0.86602540378443849 0 -0.50000000000000033 0.50000000000000033 0 -0.86602540378443849 0 -1 -0 
1 19.290896534380867 -50.600000000000001 161 0.86602540378443849 -0 0.50000000000000033 -0.50000000000000033 0 0.86602540378443849 -0 -1 0 
1 17.645448267190435 -50.600000000000001 163.84999999999999 0 -0 1 -1 0 0 -0 -1 0 
1 17.645448267190435 -50.600000000000001 158.15000000000001 0.86602540378443849 0 -0.50000000000000033 0.50000000000000033 0 0.86602540378443849 0 -1 0 
1 14.354551732809567 -50.600000000000001 163.84999999999999 -0.86602540378443826 0 0.50000000000000078 -0.50000000000000078 0 -0.86602540378443826 -0 -1 0 
1 14.354551732809565 -50.600000000000001 158.15000000000001 0 0 -1 1 0 0 0 -1 0 
1 12.709103465619133 -50.600000000000001 161 -0.86602540378443849 0 -0.50000000000000033 0.50000000000000033 0 -0.86602540378443849 0 -1 -0 
1 19.290896534380867 -50.600000000000001 193 0.86602540378443849 -0 0.50000000000000033 -0.50000000000000033 0 0.86602540378443849 -0 -1 0 
1 17.645448267190435 -50.600000000000001 195.84999999999999 0 -0 1 -1 0 0 -0 -1 0 
1 17.645448267190435 -50.600000000000001 190.15000000000001 0.86602540378443849 0 -0.50000000000000033 0.50000000000000033 0 0.86602540378443849 0 -1 0 
1 14.354551732809567 -50.600000000000001 195.84999999999999 -0.86602540378443826 0 0.50000000000000078 -0.50000000000000078 0 -0.86602540378443826 -0 -1 0 
1 14.354551732809565 -50.600000000000001 190.15000000000001 0 0 -1 1 0 0 0 -1 0 
1 12.709103465619133 -50.600000000000001 193 -0.86602540378443849 0 -0.50000000000000033 0.50000000000000033 0 -0.86602540378443849 0 -1 -0 
1 -9 -53 172 0 0 1 1 0 -0 -0 1 0 
1 -22 -52 155 -0 1 0 0 0 1 1 0 -0 
1 -0.46307256721936801 -52.100000000000009 176.59880340515173 -0 -1 -0 0 0 -1 1 -0 0 
1 -15.999999999999996 -50.599999999999994 161 -0 -1 -0 0 0 -1 1 -0 0 
1 -15.999999999999996 -50.599999999999994 192.99999999999997 -0 -1 -0 0 0 -1 1 -0 0 
1 16 -50.599999999999987 160.99999999999997 -0 -1 -0 0 0 -1 1 -0 0 
1 16 -50.599999999999987 192.99999999999994 -0 -1 -0 0 0 -1 1 -0 0 
2 -16 -53 161 0 1 0 0 -0 1 1 0 -0 1.7
1 -13.199999999999999 -52.100000000000001 165.80000000000001 0 0 -1 1 0 0 0 -1 0 
1 13.199999999999999 -52.100000000000001 165.80000000000001 1 0 0 0 0 1 0 -1 0 
1 -13.199999999999999 -52.100000000000001 188.19999999999999 -1 0 0 0 0 -1 -0 -1 -0 
1 13.199999999999999 -52.100000000000001 183.19999999999999 0.70710678118654757 -0 0.70710678118654757 -0.70710678118654757 0 0.70710678118654757 -0 -1 0 
1 8.1999999999999993 -52.100000000000001 188.19999999999999 0 -0 1 -1 0 0 -0 -1 0 
2 -16 -53 193 0 1 0 0 -0 1 1 0 -0 1.7
2 16 -53 161 0 1 0 0 -0 1 1 0 -0 1.7
2 16 -53 193 0 1 0 0 -0 1 1 0 -0 1.7
Triangulations 0

TShapes 607
Ve
1.50000006217249e-07
-7.00000000000001 -12.1243556529821 123
0 0

0101101
*
Ve
1.5e-07
-7 -7 123
0 0

0101101
*
Ed
 1.5e-07 1 1 0
1  1 0 -1.12435565298214 4
2  1 1 0 -1.12435565298214 4
2  2 2 0 -1.12435565298214 4
0

0101000
+607 0 -606 0 *
Ve
1.5e-07
-11 -7 123
0 0

0101101
*
Ed
 1.5e-07 1 1 0
1  2 0 1.5 5.5
2  3 1 0 1.5 5.5
2  4 3 0 1.5 5.5
0

0101000
+606 0 -604 0 *
Ve
1.50000003552714e-07
-11 -8.66025403784438 123
0 0

0101101
*
Ed
 1.5e-07 1 1 0
1  3 0 2.33974596215562 4
2  5 1 0 2.33974596215562 4
2  6 4 0 2.33974596215562 4
0

0101000
+602 0 -604 0 *
Ve
1e-05
14 -3.42901103761259e-15 123
0 0

0101101
*
Ed
 1e-07 1 1 0
1  4 0 0 3.80853899809346
2  7 1 0 0 3.80853899809346
2  8 5 0 0 3.80853899809346
0

0101000
+600 0 -602 0 *
Ve
1.5e-07
11 -8.66025403784439 123
0 0

0101101
*
Ed
 1e-07 1 1 0
1  5 0 5.61623896267592 6.28318530717959
2  9 1 0 5.61623896267592 6.28318530717959
2  10 5 0 5.61623896267592 6.28318530717959
0

0101000
+598 0 -600 0 *
Ve
1.5e-07
11 -7 123
0 0

0101101
*
Ed
 1.5e-07 1 1 0
1  6 0 2.33974596215561 4
2  11 1 0 2.33974596215561 4
2  12 6 0 2.33974596215561 4
0

0101000
+598 0 -596 0 *
Ve
1.5e-07
7 -7 123
0 0

0101101
*
Ed
 1.5e-07 1 1 0
1  7 0 -7.5 -3.5
2  13 1 0 -7.5 -3.5
2  14 7 0 -7.5 -3.5
0

0101000
+596 0 -594 0 *
Ve
1.50000008881784e-07
6.99999999999999 -12.1243556529821 123
0 0

0101101
*
Ed
 1.5e-07 1 1 0
1  8 0 -1.12435565298215 4
2  15 1 0 -1.12435565298215 4
2  16 8 0 -1.12435565298215 4
0

0101000
+592 0 -594 0 *
Ed
 1e-07 1 1 0
1  9 0 4.18879020478639 5.23598775598299
2  17 1 0 4.18879020478639 5.23598775598299
2  18 5 0 4.18879020478639 5.23598775598299
0

0101000
+607 0 -592 0 *
Wi

0101100
-605 0 -603 0 +601 0 +599 0 +597 0 -595 0 -593 0 +591 0 +590 0 *
Ve
1.00000001469576e-07
6 -1.46957615897682e-15 123
0 0

0101101
*
Ed
 1e-07 1 1 0
1  10 0 0 6.28318530717959
2  19 1 0 0 6.28318530717959
2  20 9 0 0 6.28318530717959
0

0101000
+588 0 -588 0 *
Wi

0101100
-587 0 *
Fa
0  1e-07 1 0

0101000
+589 0 +586 0 *
Ve
1e-07
-11 -22 157
0 0

0101101
*
Ve
1e-07
-11 -7 157
0 0

0101101
*
Ed
 1e-07 1 1 0
1  11 0 0 15
2  21 4 0 0 15
2  22 10 0 0 15
0

0101000
+584 0 -583 0 *
Ed
 1e-07 1 1 0
1  12 0 1 35
2  23 4 0 1 35
2  24 3 0 1 35
0

0101000
+604 0 -583 0 *
Ve
1.00000005024296e-07
-11 -8.66025403784439 122
0 0

0101101
*
Ed
 1e-07 1 1 0
1  13 0 2 3
2  25 4 0 2 3
2  26 5 0 2 3
0

0101000
+580 0 -602 0 *
Ve
1e-07
-11 -22 122
0 0

0101101
*
Ed
 1e-07 1 1 0
1  14 0 0 13.3397459621556
2  27 4 0 0 13.3397459621556
2  28 11 0 0 13.3397459621556
0

0101000
+578 0 -580 0 *
Ve
1e-07
-11 -22 133
0 0

0101101
*
Ed
 1e-07 1 1 0
1  15 0 0 11
2  29 4 0 0 11
2  30 12 0 0 11
0

0101000
+578 0 -576 0 *
Ed
 1e-07 1 1 0
1  16 0 11 35
2  31 4 0 11 35
2  32 13 4 11 35
0

0101000
+576 0 -584 0 *
Wi

0101100
-582 0 +581 0 +601 0 +579 0 +577 0 -575 0 -574 0 *
Fa
0  1e-07 4 0

0101000
+573 0 *
Ve
1.00000007160723e-07
-7 -12.1243556529821 122
0 0

0101101
*
Ed
 1e-07 1 1 0
1  17 0 3.80853899809346 4.18879020478639
2  33 11 0 3.80853899809346 4.18879020478639
2  34 5 0 3.80853899809346 4.18879020478639
0

0101000
+580 0 -571 0 *
Ve
1e-07
-7 -22 122
0 0

0101101
*
Ed
 1e-07 1 1 0
1  18 0 0 9.87564434701786
2  35 11 0 0 9.87564434701786
2  36 2 0 0 9.87564434701786
0

0101000
+569 0 -571 0 *
Ed
 1e-07 1 1 0
1  19 0 0 4
2  37 11 0 0 4
2  38 12 0 0 4
0

0101000
-569 0 +578 0 *
Wi

0101100
-577 0 -570 0 +568 0 +567 0 *
Fa
0  1e-07 11 0

0101000
+566 0 *
Ve
1e-07
-7 -7 157
0 0

0101101
*
Ve
1e-07
-7 -22 157
0 0

0101101
*
Ed
 1e-07 1 1 0
1  20 0 0 15
2  39 2 0 0 15
2  40 10 0 0 15
0

0101000
-564 0 +563 0 *
Ed
 1e-07 1 1 0
1  21 0 1 35
2  41 2 0 1 35
2  42 3 0 1 35
0

0101000
+606 0 -564 0 *
Ed
 1e-07 1 1 0
1  22 0 2 3
2  43 2 0 2 3
2  44 5 0 2 3
0

0101000
+571 0 -607 0 *
Ve
1e-07
-7 -22 133
0 0

0101101
*
Ed
 1e-07 1 1 0
1  23 0 0 11
2  45 2 0 0 11
2  46 12 0 0 11
0

0101000
+569 0 -559 0 *
Ve
1.5e-07
-7 -22 150
0 0

0101101
*
Ed
 1e-07 1 1 0
1  24 0 11 28
2  47 2 0 11 28
2  48 14 4 11 28
0

0101000
+559 0 -557 0 *
Ed
 1e-07 1 1 0
1  25 0 28 35
2  49 2 0 28 35
2  50 15 0 28 35
0

0101000
+557 0 -563 0 *
Wi

0101100
-562 0 +561 0 +605 0 +560 0 +568 0 -558 0 -556 0 -555 0 *
Fa
0  1e-07 2 0

0101000
+554 0 *
Ve
1e-07
7 -7 157
0 0

0101101
*
Ve
1e-07
7 -22 157
0 0

0101101
*
Ed
 1e-07 1 1 0
1  26 0 0 15
2  51 8 0 0 15
2  52 16 0 0 15
0

0101000
-552 0 +551 0 *
Ed
 1e-07 1 1 0
1  27 0 1 35
2  53 8 0 1 35
2  54 7 0 1 35
0

0101000
+594 0 -552 0 *
Ve
1.00000010357851e-07
7 -12.1243556529821 122
0 0

0101101
*
Ed
 1e-07 1 1 0
1  28 0 2 3
2  55 8 0 2 3
2  56 5 0 2 3
0

0101000
+548 0 -592 0 *
Ve
1e-07
7 -22 122
0 0

0101101
*
Ed
 1e-07 1 1 0
1  29 0 0 9.87564434701786
2  57 8 0 0 9.87564434701786
2  58 17 0 0 9.87564434701786
0

0101000
+546 0 -548 0 *
Ve
1e-07
7 -22 133
0 0

0101101
*
Ed
 1e-07 1 1 0
1  30 0 0 11
2  59 8 0 0 11
2  60 18 0 0 11
0

0101000
+546 0 -544 0 *
Ve
1.5e-07
7 -22 150
0 0

0101101
*
Ed
 1e-07 1 1 0
1  31 0 11 28
2  61 8 0 11 28
2  62 14 4 11 28
0

0101000
+544 0 -542 0 *
Ed
 1e-07 1 1 0
1  32 0 28 35
2  63 8 0 28 35
2  64 19 0 28 35
0

0101000
+542 0 -551 0 *
Wi

0101100
-550 0 +549 0 +591 0 +547 0 +545 0 -543 0 -541 0 -540 0 *
Fa
0  1e-07 8 0

0101000
+539 0 *
Ve
1e-07
11 -8.66025403784439 122
0 0

0101101
*
Ed
 1e-07 1 1 0
1  33 0 5.23598775598299 5.61623896267592
2  65 17 0 5.23598775598299 5.61623896267592
2  66 5 0 5.23598775598299 5.61623896267592
0

0101000
+548 0 -537 0 *
Ve
1e-07
11 -22 122
0 0

0101101
*
Ed
 1e-07 1 1 0
1  34 0 0 13.3397459621556
2  67 17 0 0 13.3397459621556
2  68 6 0 0 13.3397459621556
0

0101000
+535 0 -537 0 *
Ed
 1e-07 1 1 0
1  35 0 0 4
2  69 17 0 0 4
2  70 18 0 0 4
0

0101000
-535 0 +546 0 *
Wi

0101100
-545 0 -536 0 +534 0 +533 0 *
Fa
0  1e-07 17 0

0101000
+532 0 *
Ve
1e-07
11 -22 157
0 0

0101101
*
Ve
1e-07
11 -7 157
0 0

0101101
*
Ed
 1e-07 1 1 0
1  36 0 0 15
2  71 6 0 0 15
2  72 16 0 0 15
0

0101000
+530 0 -529 0 *
Ed
 1e-07 1 1 0
1  37 0 1 35
2  73 6 0 1 35
2  74 7 0 1 35
0

0101000
+596 0 -529 0 *
Ed
 1e-07 1 1 0
1  38 0 2 3
2  75 6 0 2 3
2  76 5 0 2 3
0

0101000
+537 0 -598 0 *
Ve
1e-07
11 -22 133
0 0

0101101
*
Ed
 1e-07 1 1 0
1  39 0 0 11
2  77 6 0 0 11
2  78 18 0 0 11
0

0101000
+535 0 -525 0 *
Ed
 1e-07 1 1 0
1  40 0 11 35
2  79 6 0 11 35
2  80 13 4 11 35
0

0101000
+525 0 -530 0 *
Wi

0101100
-528 0 +527 0 +595 0 +526 0 +534 0 -524 0 -523 0 *
Fa
0  1e-07 6 0

0101000
+522 0 *
Ve
1.00000001469576e-07
6 -1.46957615897682e-15 120
0 0

0101101
*
Ed
 1e-07 1 1 0
1  41 0 0.0999999999999943 3.09999999999999
3  81 82CN 9 0 0.0999999999999943 3.09999999999999
0

0101000
+520 0 -588 0 *
Ed
 1e-07 1 1 0
1  42 0 0 6.28318530717959
2  83 9 0 0 6.28318530717959
2  84 20 0 0 6.28318530717959
0

0101000
+520 0 -520 0 *
Wi

0101100
-587 0 +519 0 +518 0 -519 0 *
Fa
0  1e-07 9 0

0101000
+517 0 *
Ve
1.5e-07
13.9967853452141 0.3 104
0 0

0101101
*
Ve
1.50000000055511e-07
13.9967853452141 0.3 106
0 0

0101101
*
Ed
 1e-07 1 1 0
1  43 0 0 2
2  85 21 5 0 2
2  86 5 0 0 2
0

0101000
+515 0 -514 0 *
Ve
1.50000000111022e-07
18 0.3 106
0 0

0101101
*
Ed
 1.5e-07 1 1 0
1  44 0 -28.5 -24.4967853452141
2  87 21 0 -28.5 -24.4967853452141
2  88 22 0 -28.5 -24.4967853452141
0

0101000
+512 6 -514 6 *
Ve
1.50000000111022e-07
18 0.3 118
0 0

0101101
*
Ed
 1.5e-07 1 1 0
1  45 0 3 15
2  89 21 0 3 15
2  90 23 0 3 15
0

0101000
+512 6 -510 6 *
Ve
1.50000000055511e-07
13.9967853452141 0.3 118
0 0

0101101
*
Ed
 1.5e-07 1 1 0
1  46 0 -28.5 -24.4967853452141
2  91 21 0 -28.5 -24.4967853452141
2  92 24 0 -28.5 -24.4967853452141
0

0101000
+510 6 -508 6 *
Ve
1.5e-07
13.9967853452141 0.3 120
0 0

0101101
*
Ed
 1e-07 1 1 0
1  47 0 14 16
2  93 21 5 14 16
2  94 5 0 14 16
0

0101000
+508 0 -506 0 *
Ve
1.50000001776357e-07
10.1955872807799 0.3 120
0 0

0101101
*
Ed
 1.5e-07 1 1 0
1  48 0 -28.9967853452141 -25.1955872807799
2  95 21 0 -28.9967853452141 -25.1955872807799
2  96 20 6 -28.9967853452141 -25.1955872807799
0

0101000
+506 6 -504 6 *
Ve
1.50000001776357e-07
10.1955872807799 0.3 104
0 0

0101101
*
Ed
 1e-07 1 1 0
1  49 0 0.0999999999999943 16.1
2  97 21 0 0.0999999999999943 16.1
2  98 25 0 0.0999999999999943 16.1
0

0101000
+502 6 -504 6 *
Ed
 1.5e-07 1 1 0
1  50 0 -28.9967853452141 -25.1955872807799
2  99 21 0 -28.9967853452141 -25.1955872807799
2  100 26 0 -28.9967853452141 -25.1955872807799
0

0101000
+515 6 -502 6 *
Wi

0101100
-513 0 +511 5 -509 5 -507 5 -505 0 -503 5 +501 5 +500 5 *
Ve
1.00000001776357e-07
13.5 0.3 113.7
0 0

0101101
*
Ed
 1e-07 1 1 0
1  51 0 0 6.28318530717959
2  101 21 0 0 6.28318530717959
2  102 27 0 0 6.28318530717959
0

0101000
+498 6 -498 6 *
Wi

0101100
-497 5 *
Fa
0  1e-07 21 5

0101000
+499 0 +496 0 *
Ve
1.50000002164935e-07
-10.1955872807799 0.300000000000002 104
0 0

0101101
*
Ed
 1.00000008747543e-07 1 1 0
1  52 0 0.0294160068079327 3.11217664678186
2  103 26 0 0.0294160068079327 3.11217664678186
2  104 25 0 0.0294160068079327 3.11217664678186
0

0101000
+502 6 -494 6 *
Ve
1.50000000277556e-07
-13.9967853452141 0.3 104
0 0

0101101
*
Ed
 1.5e-07 1 1 0
1  53 0 -4.80441271922014 -1.00321465478591
2  105 26 0 -4.80441271922014 -1.00321465478591
2  106 28 0 -4.80441271922014 -1.00321465478591
0

0101000
+494 6 -492 6 *
Ed
 1e-07 1 1 0
1  54 0 0.0214302117092205 3.12016244188057
2  107 26 5 0.0214302117092205 3.12016244188057
2  108 5 0 0.0214302117092205 3.12016244188057
0

0101000
+515 0 -492 0 *
Wi

0101100
-500 0 -493 0 -491 0 +490 6 *
Fa
0  1e-07 26 0

0101000
+489 0 *
Ve
1.50000002164935e-07
-10.1955872807799 0.300000000000002 120
0 0

0101101
*
Ed
 1e-07 1 1 0
1  55 0 0.0999999999999943 16.1
2  109 28 0 0.0999999999999943 16.1
2  110 25 0 0.0999999999999943 16.1
0

0101000
+494 6 -487 6 *
Ve
1.50000000277556e-07
-13.9967853452141 0.3 120
0 0

0101101
*
Ed
 1.5e-07 1 1 0
1  56 0 -4.80441271922014 -1.00321465478591
2  111 28 0 -4.80441271922014 -1.00321465478591
2  112 20 6 -4.80441271922014 -1.00321465478591
0

0101000
+487 6 -485 6 *
Ve
1.50000000333067e-07
-13.9967853452141 0.3 118
0 0

0101101
*
Ed
 1e-07 1 1 0
1  57 0 14 16
2  113 28 5 14 16
2  114 5 0 14 16
0

0101000
+483 0 -485 0 *
Ve
1.50000000111022e-07
-18 0.3 118
0 0

0101101
*
Ed
 1.5e-07 1 1 0
1  58 0 -10.0032146547859 -6
2  115 28 0 -10.0032146547859 -6
2  116 29 0 -10.0032146547859 -6
0

0101000
+483 6 -481 6 *
Ve
1.50000000111022e-07
-18 0.3 106
0 0

0101101
*
Ed
 1.5e-07 1 1 0
1  59 0 3 15
2  117 28 0 3 15
2  118 30 0 3 15
0

0101000
+479 6 -481 6 *
Ve
1.50000000333067e-07
-13.9967853452141 0.3 106
0 0

0101101
*
Ed
 1.5e-07 1 1 0
1  60 0 -10.0032146547859 -6
2  119 28 0 -10.0032146547859 -6
2  120 31 0 -10.0032146547859 -6
0

0101000
+477 6 -479 6 *
Ed
 1e-07 1 1 0
1  61 0 0 2
2  121 28 5 0 2
2  122 5 0 0 2
0

0101000
+492 0 -477 0 *
Wi

0101100
+491 5 -486 5 -484 5 +482 0 -480 5 +478 5 +476 5 +475 0 *
Ve
1.00000001776357e-07
-13.5 0.3 113.7
0 0

0101101
*
Ed
 1e-07 1 1 0
1  62 0 0 6.28318530717959
2  123 28 0 0 6.28318530717959
2  124 32 0 0 6.28318530717959
0

0101000
+473 6 -473 6 *
Wi

0101100
-472 5 *
Fa
0  1e-07 28 5

0101000
+474 0 +471 0 *
Ve
1e-07
-18 5 118
0 0

0101101
*
Ve
1.00000002512148e-07
-13.076696830622 5 118
0 0

0101101
*
Ed
 1e-07 1 1 0
1  63 0 0 4.92330316937798
2  125 29 0 0 4.92330316937798
2  126 33 0 0 4.92330316937798
0

0101000
+469 6 -468 6 *
Ed
 1e-07 1 1 0
1  64 0 2.77638543229943 3.12016244188057
2  127 29 5 2.77638543229943 3.12016244188057
2  128 5 0 2.77638543229943 3.12016244188057
0

0101000
+468 0 -483 0 *
Ed
 1e-07 1 1 0
1  65 0 5.3 10
2  129 29 0 5.3 10
2  130 30 0 5.3 10
0

0101000
+481 6 -469 6 *
Wi

0101100
-467 0 -466 6 -480 0 -465 0 *
Fa
0  1e-07 29 0

0101000
+464 0 *
Ve
1e-07
-18 5 106
0 0

0101101
*
Ve
1.00000002512148e-07
-13.076696830622 5 106
0 0

0101101
*
Ed
 1e-07 1 1 0
1  66 0 0 4.92330316937798
2  131 33 0 0 4.92330316937798
2  132 31 0 0 4.92330316937798
0

0101000
+462 6 -461 6 *
Ve
1.05989076102142e-06
-13.076696830622 5 110.353544890744
0 0

0101101
*
Ed
 1e-07 1 1 0
1  67 0 2 6.35354489074406
2  133 33 5 2 6.35354489074406
2  134 5 0 2 6.35354489074406
0

0101000
+461 0 -459 0 *
Ve
1.00000001776357e-07
-13.5 5 113.7
0 0

0101101
*
Ed
 1e-07 1 1 0
1  68 0 2.88994313155055 6.28318530717959
2  135 33 0 2.88994313155055 6.28318530717959
2  136 32 0 2.88994313155055 6.28318530717959
0

0101000
+459 6 -457 6 *
Ve
1.20224779585515e-07
-13.076696830622 5 113.646455109256
0 0

0101101
*
Ed
 1e-07 1 1 0
1  69 0 0 0.251649522039244
2  137 33 0 0 0.251649522039244
2  138 32 0 0 0.251649522039244
0

0101000
+457 6 -455 6 *
Ed
 1e-07 1 1 0
1  70 0 9.64645510925594 14
2  139 33 5 9.64645510925594 14
2  140 5 0 9.64645510925594 14
0

0101000
+455 0 -468 0 *
Ed
 1e-07 1 1 0
1  71 0 0 12
2  141 33 0 0 12
2  142 30 0 0 12
0

0101000
-469 6 +462 6 *
Wi

0101100
-460 0 -458 6 -456 0 -454 0 -453 6 +467 0 +452 0 *
Fa
0  1e-07 33 0

0101000
+451 0 *
Ve
1.00000004440892e-07
-12.6491106406735 6 113.471729356297
0 0

0101101
*
Ve
1.05989076102142e-06
-12.6491106406735 6 110.528270643703
0 0

0101101
*
Ed
 1e-07 1 1 0
1  72 0 0.524202965539963 2.61738968804983
2  143 32 0 0.524202965539963 2.61738968804983
2  144 34 0 0.524202965539963 2.61738968804983
0

0101000
+449 6 -448 6 *
Ed
 1.05989076102142e-06 1 1 0
1  73 0 0.911754380274534 0.999999945090376
2  145 32 5 0.911754380274534 0.999999945090376
2  146 5 0 0.911754380274534 0.999999945090376
0

0101000
+459 0 -448 0 *
Ed
 1e-07 1 1 0
1  74 0 6.3 11
3  147 148CN 32 0 6.3 11
0

0101000
+473 6 -457 6 *
Ed
 1e-07 1 1 0
1  75 0 0.554307798955417 0.999999722713442
2  149 32 5 0.554307798955417 0.999999722713442
2  150 5 0 0.554307798955417 0.999999722713442
0

0101000
+455 0 -449 0 *
Wi

0101100
-447 0 +446 6 -456 0 +445 0 +472 0 -445 0 -454 0 -444 6 *
Fa
0  1e-07 32 0

0101000
+443 0 *
Ed
 1e-07 1 1 0
1  76 0 6.52827064370348 9.47172935629652
2  151 34 5 6.52827064370348 9.47172935629652
2  152 5 0 6.52827064370348 9.47172935629652
0

0101000
+448 0 -449 0 *
Wi

0101100
+441 6 +447 0 *
Fa
0  1e-07 34 0

0101000
+440 0 *
Ed
 1e-07 1 1 0
1  77 0 2.77638543229943 3.12016244188057
2  153 31 5 2.77638543229943 3.12016244188057
2  154 5 0 2.77638543229943 3.12016244188057
0

0101000
+461 0 -477 0 *
Ed
 1e-07 1 1 0
1  78 0 5.3 10
2  155 31 0 5.3 10
2  156 30 0 5.3 10
0

0101000
+479 6 -462 6 *
Wi

0101100
-460 0 -438 6 -476 0 -437 0 *
Fa
0  1e-07 31 0

0101000
+436 0 *
Ve
1e-07
13.076696830622 5 106
0 0

0101101
*
Ed
 1e-07 1 1 0
1  79 0 0.0214302117092205 0.365207221290367
2  157 22 5 0.0214302117092205 0.365207221290367
2  158 5 0 0.0214302117092205 0.365207221290367
0

0101000
+514 0 -434 0 *
Ve
1e-07
18 5 106
0 0

0101101
*
Ed
 1e-07 1 1 0
1  80 0 4.07669683062202 9
2  159 22 0 4.07669683062202 9
2  160 35 0 4.07669683062202 9
0

0101000
+434 6 -432 6 *
Ed
 1e-07 1 1 0
1  81 0 5.3 10
2  161 22 0 5.3 10
2  162 23 0 5.3 10
0

0101000
+512 6 -432 6 *
Wi

0101100
-433 6 -431 0 +430 0 -511 0 *
Fa
0  1e-07 22 0

0101000
+429 0 *
Ve
1e-07
18 5 118
0 0

0101101
*
Ed
 1e-07 1 1 0
1  82 0 0 12
2  163 35 0 0 12
2  164 23 0 0 12
0

0101000
-427 6 +432 6 *
Ve
1e-07
13.076696830622 5 118
0 0

0101101
*
Ed
 1e-07 1 1 0
1  83 0 4.07669683062202 9
2  165 35 0 4.07669683062202 9
2  166 24 0 4.07669683062202 9
0

0101000
+425 6 -427 6 *
Ve
1.20167313456254e-07
13.076696830622 5 113.646455109256
0 0

0101101
*
Ed
 1e-07 1 1 0
1  84 0 9.64645510925594 14
2  167 35 5 9.64645510925594 14
2  168 5 0 9.64645510925594 14
0

0101000
+423 0 -425 0 *
Ve
1.00000001776357e-07
13.5 5 113.7
0 0

0101101
*
Ed
 1e-07 1 1 0
1  85 0 6.03153578514034 6.28318530717959
2  169 35 0 6.03153578514034 6.28318530717959
2  170 27 0 6.03153578514034 6.28318530717959
0

0101000
+423 6 -421 6 *
Ve
1.11187284426223e-06
13.076696830622 5 110.353544890744
0 0

0101101
*
Ed
 1e-07 1 1 0
1  86 0 0 3.39324217562904
2  171 35 0 0 3.39324217562904
2  172 27 0 0 3.39324217562904
0

0101000
+421 6 -419 6 *
Ed
 1e-07 1 1 0
1  87 0 2 6.35354489074406
2  173 35 5 2 6.35354489074406
2  174 5 0 2 6.35354489074406
0

0101000
+434 0 -419 0 *
Wi

0101100
-431 0 -426 0 +424 0 +422 6 -420 0 -418 0 +417 6 *
Fa
0  1e-07 35 0

0101000
+416 0 *
Ve
1.11187284426223e-06
12.6491106406735 6 110.528270643703
0 0

0101101
*
Ve
1.00000014321447e-07
12.6491106406735 6 113.471729356297
0 0

0101101
*
Ed
 1e-07 1 1 0
1  88 0 3.66579561912976 5.75898234163962
2  175 27 0 3.66579561912976 5.75898234163962
2  176 36 0 3.66579561912976 5.75898234163962
0

0101000
+414 6 -413 6 *
Ed
 1e-07 1 1 0
1  89 0 2.77300445047632e-07 0.445692209420505
2  177 27 5 2.77300445047632e-07 0.445692209420505
2  178 5 0 2.77300445047632e-07 0.445692209420505
0

0101000
+413 0 -423 0 *
Ed
 1e-07 1 1 0
1  90 0 6.3 11
3  179 180CN 27 0 6.3 11
0

0101000
+498 6 -421 6 *
Ed
 1.11187284426223e-06 1 1 0
1  91 0 0.823837670215864 0.999999890384719
2  181 27 5 0.823837670215864 0.999999890384719
2  182 5 0 0.823837670215864 0.999999890384719
0

0101000
+419 0 -414 0 *
Wi

0101100
-412 0 -411 6 -420 0 +410 0 +497 0 -410 0 -418 0 -409 6 *
Fa
0  1e-07 27 0

0101000
+408 0 *
Ed
 1e-07 1 1 0
1  92 0 6.52827064370348 9.47172935629652
2  183 36 5 6.52827064370348 9.47172935629652
2  184 5 0 6.52827064370348 9.47172935629652
0

0101000
+414 0 -413 0 *
Wi

0101100
-406 6 +412 0 *
Fa
0  1e-07 36 0

0101000
+405 0 *
Ed
 1e-07 1 1 0
1  93 0 0.0214302117092205 0.365207221290367
2  185 24 5 0.0214302117092205 0.365207221290367
2  186 5 0 0.0214302117092205 0.365207221290367
0

0101000
+508 0 -425 0 *
Ed
 1e-07 1 1 0
1  94 0 5.3 10
2  187 24 0 5.3 10
2  188 23 0 5.3 10
0

0101000
+510 6 -427 6 *
Wi

0101100
-403 6 -424 0 +402 0 -507 0 *
Fa
0  1e-07 24 0

0101000
+401 0 *
Wi

0101100
-402 0 +426 0 +430 0 -509 0 *
Fa
0  1e-07 23 0

0101000
+399 0 *
Ve
1e-05
14 -3.42901103761259e-15 120
0 0

0101101
*
Ed
 1e-07 1 1 0
1  95 0 3.12016244188057 6.28318530717959
2  189 20 0 3.12016244188057 6.28318530717959
2  190 5 0 3.12016244188057 6.28318530717959
0

0101000
+485 0 -397 0 *
Ed
 1.00000008747543e-07 1 1 0
1  96 0 0.0294160068079327 3.11217664678186
2  191 20 6 0.0294160068079327 3.11217664678186
2  192 25 0 0.0294160068079327 3.11217664678186
0

0101000
+504 6 -487 6 *
Ed
 1e-07 1 1 0
1  97 0 0 0.0214302117092205
2  193 20 0 0 0.0214302117092205
2  194 5 0 0 0.0214302117092205
0

0101000
+397 0 -506 0 *
Wi

0101100
+396 0 +484 5 +395 5 +503 5 +394 0 *
Wi

0101100
-518 0 *
Fa
0  1e-07 20 0

0101000
+393 0 +392 0 *
Wi

0101100
-395 5 -501 5 +493 5 +486 5 *
Ve
1.00000000888178e-07
3 9.74884608556315 106
0 0

0101101
*
Ve
1.00000000888178e-07
3 9.74884608556315 119.8
0 0

0101101
*
Ed
 1e-07 1 1 0
1  98 0 2.09999999999999 15.9
2  195 25 0 2.09999999999999 15.9
2  196 37 0 2.09999999999999 15.9
0

0101000
+389 6 -388 6 *
Ve
1.00000000444089e-07
-3 9.74884608556315 119.8
0 0

0101101
*
Ed
 1e-07 1 1 0
1  99 0 1.27226412561002 1.86932852797977
2  197 25 0 1.27226412561002 1.86932852797977
2  198 38 0 1.27226412561002 1.86932852797977
0

0101000
+388 6 -386 6 *
Ve
1.00000000444089e-07
-3 9.74884608556315 106
0 0

0101101
*
Ed
 1e-07 1 1 0
1  100 0 2.09999999999999 15.9
2  199 25 0 2.09999999999999 15.9
2  200 39 0 2.09999999999999 15.9
0

0101000
+384 6 -386 6 *
Ed
 1e-07 1 1 0
1  101 0 1.27226412561002 1.86932852797977
2  201 25 0 1.27226412561002 1.86932852797977
2  202 40 0 1.27226412561002 1.86932852797977
0

0101000
+389 6 -384 6 *
Wi

0101100
+387 5 +385 5 -383 5 -382 5 *
Fa
0  1e-07 25 5

0101000
+390 0 +381 0 *
Wi

0101100
-465 0 +452 0 +437 0 -478 0 *
Fa
0  1e-07 30 0

0101000
+379 0 *
Ve
1e-07
3 9.3 119.8
0 0

0101101
*
Ed
 1e-07 1 1 0
1  102 0 0 0.448846085563151
2  203 37 0 0 0.448846085563151
2  204 38 0 0 0.448846085563151
0

0101000
+377 6 -388 6 *
Ve
1e-07
3 9.3 106
0 0

0101101
*
Ed
 1e-07 1 1 0
1  103 0 0 0.448846085563151
2  205 37 0 0 0.448846085563151
2  206 40 0 0 0.448846085563151
0

0101000
+375 6 -389 6 *
Ed
 1e-07 1 1 0
1  104 0 0 13.8
2  207 37 0 0 13.8
2  208 41 0 0 13.8
0

0101000
-377 6 +375 6 *
Wi

0101100
-376 0 +387 0 +374 0 -373 0 *
Fa
0  1e-07 37 0

0101000
+372 0 *
Ve
1e-07
-3 9.3 119.8
0 0

0101101
*
Ed
 1e-07 1 1 0
1  105 0 0 0.448846085563151
2  209 38 0 0 0.448846085563151
2  210 39 0 0 0.448846085563151
0

0101000
+370 6 -386 6 *
Ed
 1e-07 1 1 0
1  106 0 0 6
2  211 38 0 0 6
2  212 41 0 0 6
0

0101000
-377 6 +370 6 *
Wi

0101100
-369 0 +385 0 +376 0 +368 0 *
Fa
0  1e-07 38 0

0101000
+367 0 *
Ve
1e-07
-3 9.3 106
0 0

0101101
*
Ed
 1e-07 1 1 0
1  107 0 0 0.448846085563151
2  213 39 0 0 0.448846085563151
2  214 40 0 0 0.448846085563151
0

0101000
+365 6 -384 6 *
Ed
 1e-07 1 1 0
1  108 0 0 13.8
2  215 39 0 0 13.8
2  216 41 0 0 13.8
0

0101000
-370 6 +365 6 *
Wi

0101100
-369 0 +383 0 +364 0 -363 0 *
Fa
0  1e-07 39 0

0101000
+362 0 *
Ed
 1e-07 1 1 0
1  109 0 0 6
2  217 40 0 0 6
2  218 41 0 0 6
0

0101000
-375 6 +365 6 *
Wi

0101100
-364 0 +382 0 +374 0 +360 0 *
Fa
0  1e-07 40 0

0101000
+359 0 *
Ed
 1e-07 1 1 0
1  110 0 0 4
2  219 3 0 0 4
2  220 10 0 0 4
0

0101000
-564 0 +583 0 *
Wi

0101100
-561 0 +357 0 +581 0 +603 0 *
Fa
0  1e-07 3 0

0101000
+356 0 *
Ed
 1e-07 1 1 0
1  111 0 0 4
2  221 7 0 0 4
2  222 16 0 0 4
0

0101000
-529 0 +552 0 *
Wi

0101100
-527 0 +354 0 +549 0 +593 0 *
Fa
0  1e-07 7 0

0101000
+353 0 *
Ve
1.5e-07
-9 -22 157
0 0

0101101
*
Ed
 1e-07 1 1 0
1  112 0 0 2
2  223 10 0 0 2
2  224 13 4 0 2
0

0101000
+584 0 -351 0 *
Ed
 1e-07 1 1 0
1  113 0 2 4
2  225 10 0 2 4
2  226 15 0 2 4
0

0101000
+351 0 -563 0 *
Wi

0101100
-582 0 -357 0 +562 0 +350 0 +349 0 *
Fa
0  1e-07 10 0

0101000
+348 0 *
Ed
 1e-07 1 1 0
1  114 0 11 15
2  227 12 7 11 15
2  228 42 0 11 15
0

0101000
+576 7 -559 7 *
Wi

0101100
-558 0 +346 4 +575 0 -567 0 *
Fa
0  1e-07 12 0

0101000
+345 0 *
Ve
1e-07
-22 -22 133
0 0

0101101
*
Ed
 1e-07 1 1 0
1  115 0 0 11
2  229 13 0 0 11
2  230 42 0 0 11
0

0101000
+343 7 -576 7 *
Ve
1.5e-07
-9 -22 160
0 0

0101101
*
Ed
 1.5e-07 1 1 0
1  116 0 -18.5 -15.5
2  231 13 0 -18.5 -15.5
2  232 43 0 -18.5 -15.5
0

0101000
+341 7 -351 7 *
Ve
1.5e-07
9 -22 160
0 0

0101101
*
Ed
 1.5e-07 1 1 0
1  117 0 6.5 24.5
2  233 13 0 6.5 24.5
2  234 44 0 6.5 24.5
0

0101000
+341 7 -339 7 *
Ve
1.5e-07
9 -22 157
0 0

0101101
*
Ed
 1.5e-07 1 1 0
1  118 0 -18.5 -15.5
2  235 13 0 -18.5 -15.5
2  236 45 0 -18.5 -15.5
0

0101000
+339 7 -337 7 *
Ed
 1e-07 1 1 0
1  119 0 2 4
2  237 13 4 2 4
2  238 16 0 2 4
0

0101000
+337 0 -530 0 *
Ve
1e-07
22 -22 133
0 0

0101101
*
Ed
 1e-07 1 1 0
1  120 0 33 44
2  239 13 0 33 44
2  240 42 0 33 44
0

0101000
+525 7 -334 7 *
Ve
1e-07
22 -22 177
0 0

0101101
*
Ed
 1e-07 1 1 0
1  121 0 0 44
2  241 13 0 0 44
2  242 46 0 0 44
0

0101000
-332 7 +334 7 *
Ve
1e-07
-22 -22 177
0 0

0101101
*
Ed
 1e-07 1 1 0
1  122 0 0 44
2  243 13 0 0 44
2  244 47 0 0 44
0

0101000
-332 7 +330 7 *
Ed
 1e-07 1 1 0
1  123 0 0 44
2  245 13 0 0 44
2  246 48 0 0 44
0

0101000
-330 7 +343 7 *
Wi

0101100
-342 4 -574 0 -350 0 +340 4 -338 4 -336 4 -335 0 +523 0 -333 4 -331 4 
+329 4 +328 4 *
Ve
1.50000001776357e-07
-14.3545517328096 -22 141.85
0 0

0101101
*
Ve
1.50000007105427e-07
-12.7091034656191 -22 139
0 0

0101101
*
Ed
 1.5e-07 1 1 0
1  124 0 -3.56624861213896 -0.275352077758095
2  247 13 0 -3.56624861213896 -0.275352077758095
2  248 49 0 -3.56624861213896 -0.275352077758095
0

0101000
+326 7 -325 7 *
Ve
1.50000014210855e-07
-17.6454482671904 -22 141.85
0 0

0101101
*
Ed
 1.5e-07 1 1 0
1  125 0 0.531827599214353 3.82272413359522
2  249 13 0 0.531827599214353 3.82272413359522
2  250 50 0 0.531827599214353 3.82272413359522
0

0101000
+323 7 -326 7 *
Ve
1.50000007105427e-07
-14.3545517328096 -22 136.15
0 0

0101101
*
Ed
 1.5e-07 1 1 0
1  126 0 -6.56624861213896 -3.2753520777581
2  251 13 0 -6.56624861213896 -3.2753520777581
2  252 51 0 -6.56624861213896 -3.2753520777581
0

0101000
+325 7 -321 7 *
Ve
1.50000010658141e-07
-19.2908965343809 -22 139
0 0

0101101
*
Ed
 1.5e-07 1 1 0
1  127 0 1.62990381056765 4.92080034494852
2  253 13 0 1.62990381056765 4.92080034494852
2  254 52 0 1.62990381056765 4.92080034494852
0

0101000
+319 7 -323 7 *
Ve
1.50000003552714e-07
-17.6454482671904 -22 136.15
0 0

0101101
*
Ed
 1.5e-07 1 1 0
1  128 0 -5.46817240078565 -2.17727586640478
2  255 13 0 -5.46817240078565 -2.17727586640478
2  256 53 0 -5.46817240078565 -2.17727586640478
0

0101000
+321 7 -317 7 *
Ed
 1.5e-07 1 1 0
1  129 0 -1.37009618943232 1.92080034494854
2  257 13 0 -1.37009618943232 1.92080034494854
2  258 54 0 -1.37009618943232 1.92080034494854
0

0101000
+317 7 -319 7 *
Wi

0101100
-324 4 -322 4 -320 4 -318 4 -316 4 -315 4 *
Ve
1.50000001776357e-07
-14.3545517328096 -22 173.85
0 0

0101101
*
Ve
1.50000001776357e-07
-12.7091034656191 -22 171
0 0

0101101
*
Ed
 1.5e-07 1 1 0
1  130 0 -17.42265507269 -14.1317585383091
2  259 13 0 -17.42265507269 -14.1317585383091
2  260 55 0 -17.42265507269 -14.1317585383091
0

0101000
+313 7 -312 7 *
Ve
1.5e-07
-17.6454482671904 -22 173.85
0 0

0101101
*
Ed
 1.5e-07 1 1 0
1  131 0 0.531827599214353 3.82272413359522
2  261 13 0 0.531827599214353 3.82272413359522
2  262 56 0 0.531827599214353 3.82272413359522
0

0101000
+310 7 -313 7 *
Ve
1.5e-07
-14.3545517328096 -22 168.15
0 0

0101101
*
Ed
 1.5e-07 1 1 0
1  132 0 -20.42265507269 -17.1317585383091
2  263 13 0 -20.42265507269 -17.1317585383091
2  264 57 0 -20.42265507269 -17.1317585383091
0

0101000
+312 7 -308 7 *
Ve
1.50000003552714e-07
-19.2908965343809 -22 171
0 0

0101101
*
Ed
 1.5e-07 1 1 0
1  133 0 15.4863102711187 18.7772068054995
2  265 13 0 15.4863102711187 18.7772068054995
2  266 58 0 15.4863102711187 18.7772068054995
0

0101000
+306 7 -310 7 *
Ve
1.50000003552714e-07
-17.6454482671904 -22 168.15
0 0

0101101
*
Ed
 1.5e-07 1 1 0
1  134 0 -5.46817240078565 -2.17727586640478
2  267 13 0 -5.46817240078565 -2.17727586640478
2  268 59 0 -5.46817240078565 -2.17727586640478
0

0101000
+308 7 -304 7 *
Ed
 1.5e-07 1 1 0
1  135 0 12.4863102711187 15.7772068054996
2  269 13 0 12.4863102711187 15.7772068054996
2  270 60 0 12.4863102711187 15.7772068054996
0

0101000
+304 7 -306 7 *
Wi

0101100
-311 4 -309 4 -307 4 -305 4 -303 4 -302 4 *
Ve
1.50000010658141e-07
17.6454482671904 -22 141.85
0 0

0101101
*
Ve
1.50000010658141e-07
19.2908965343809 -22 139
0 0

0101101
*
Ed
 1.5e-07 1 1 0
1  136 0 4.43375138786106 7.72464792224192
2  271 13 0 4.43375138786106 7.72464792224192
2  272 61 0 4.43375138786106 7.72464792224192
0

0101000
+300 7 -299 7 *
Ve
1.50000003552714e-07
14.3545517328096 -22 141.85
0 0

0101101
*
Ed
 1.5e-07 1 1 0
1  137 0 16.5318275992143 19.8227241335952
2  273 13 0 16.5318275992143 19.8227241335952
2  274 62 0 16.5318275992143 19.8227241335952
0

0101000
+297 7 -300 7 *
Ve
1.50000007105427e-07
17.6454482671904 -22 136.15
0 0

0101101
*
Ed
 1.5e-07 1 1 0
1  138 0 -14.566248612139 -11.2753520777581
2  275 13 0 -14.566248612139 -11.2753520777581
2  276 63 0 -14.566248612139 -11.2753520777581
0

0101000
+299 7 -295 7 *
Ve
1.50000005329071e-07
12.7091034656191 -22 139
0 0

0101101
*
Ed
 1.5e-07 1 1 0
1  139 0 9.62990381056767 12.9208003449485
2  277 13 0 9.62990381056767 12.9208003449485
2  278 64 0 9.62990381056767 12.9208003449485
0

0101000
+293 7 -297 7 *
Ve
1.50000005329071e-07
14.3545517328096 -22 136.15
0 0

0101101
*
Ed
 1.5e-07 1 1 0
1  140 0 -21.4681724007857 -18.1772758664048
2  279 13 0 -21.4681724007857 -18.1772758664048
2  280 65 0 -21.4681724007857 -18.1772758664048
0

0101000
+295 7 -291 7 *
Ed
 1.5e-07 1 1 0
1  141 0 -9.37009618943234 -6.07919965505148
2  281 13 0 -9.37009618943234 -6.07919965505148
2  282 66 0 -9.37009618943234 -6.07919965505148
0

0101000
+291 7 -293 7 *
Wi

0101100
-298 4 -296 4 -294 4 -292 4 -290 4 -289 4 *
Ve
1.50000003552714e-07
17.6454482671904 -22 173.85
0 0

0101101
*
Ve
1.50000003552714e-07
19.2908965343809 -22 171
0 0

0101101
*
Ed
 1.5e-07 1 1 0
1  142 0 -9.42265507268995 -6.13175853830909
2  283 13 0 -9.42265507268995 -6.13175853830909
2  284 67 0 -9.42265507268995 -6.13175853830909
0

0101000
+287 7 -286 7 *
Ve
1.50000003552714e-07
14.3545517328096 -22 173.85
0 0

0101101
*
Ed
 1.5e-07 1 1 0
1  143 0 16.5318275992143 19.8227241335952
2  285 13 0 16.5318275992143 19.8227241335952
2  286 68 0 16.5318275992143 19.8227241335952
0

0101000
+284 7 -287 7 *
Ve
1.50000003552714e-07
17.6454482671904 -22 168.15
0 0

0101101
*
Ed
 1.5e-07 1 1 0
1  144 0 -28.42265507269 -25.1317585383091
2  287 13 0 -28.42265507269 -25.1317585383091
2  288 69 0 -28.42265507269 -25.1317585383091
0

0101000
+286 7 -282 7 *
Ve
1.50000003552714e-07
12.7091034656191 -22 171
0 0

0101101
*
Ed
 1.5e-07 1 1 0
1  145 0 23.4863102711187 26.7772068054996
2  289 13 0 23.4863102711187 26.7772068054996
2  290 70 0 23.4863102711187 26.7772068054996
0

0101000
+280 7 -284 7 *
Ve
1.50000003552714e-07
14.3545517328096 -22 168.15
0 0

0101101
*
Ed
 1.5e-07 1 1 0
1  146 0 -21.4681724007857 -18.1772758664048
2  291 13 0 -21.4681724007857 -18.1772758664048
2  292 71 0 -21.4681724007857 -18.1772758664048
0

0101000
+282 7 -278 7 *
Ed
 1.5e-07 1 1 0
1  147 0 4.48631027111868 7.77720680549954
2  293 13 0 4.48631027111868 7.77720680549954
2  294 72 0 4.48631027111868 7.77720680549954
0

0101000
+278 7 -280 7 *
Wi

0101100
-285 4 -283 4 -281 4 -279 4 -277 4 -276 4 *
Fa
0  1e-07 13 4

0101000
+327 0 +314 0 +301 0 +288 0 +275 0 *
Ed
 1e-07 1 1 0
1  148 0 15 29
2  295 14 0 15 29
2  296 42 0 15 29
0

0101000
+559 7 -544 7 *
Ed
 1.5e-07 1 1 0
1  149 0 8.5 22.5
2  297 14 0 8.5 22.5
2  298 73 0 8.5 22.5
0

0101000
+557 7 -542 7 *
Wi

0101100
-273 4 -541 0 +272 4 +556 0 *
Fa
0  1e-07 14 4

0101000
+271 0 *
Ve
1.5e-07
-9 -22 150
0 0

0101101
*
Ed
 1.5e-07 1 1 0
1  150 0 -15.5 -8.5
2  299 15 7 -15.5 -8.5
2  300 43 0 -15.5 -8.5
0

0101000
+351 7 -269 7 *
Ed
 1.5e-07 1 1 0
1  151 0 6.5 8.5
2  301 15 7 6.5 8.5
2  302 73 0 6.5 8.5
0

0101000
+269 7 -557 7 *
Wi

0101100
-555 0 +349 0 -268 4 -267 4 *
Fa
0  1e-07 15 0

0101000
+266 0 *
Ed
 1e-07 1 1 0
1  152 0 0 2
2  303 16 0 0 2
2  304 19 0 0 2
0

0101000
+551 0 -337 0 *
Wi

0101100
-550 0 -354 0 +528 0 +264 0 +335 0 *
Fa
0  1e-07 16 0

0101000
+263 0 *
Ed
 1e-07 1 1 0
1  153 0 29 33
2  305 18 7 29 33
2  306 42 0 29 33
0

0101000
+544 7 -525 7 *
Wi

0101100
-524 0 +261 4 +543 0 -533 0 *
Fa
0  1e-07 18 0

0101000
+260 0 *
Ve
1.5e-07
9 -22 150
0 0

0101101
*
Ed
 1.5e-07 1 1 0
1  154 0 22.5 24.5
2  307 19 7 22.5 24.5
2  308 73 0 22.5 24.5
0

0101000
+542 7 -258 7 *
Ed
 1.5e-07 1 1 0
1  155 0 -15.5 -8.5
2  309 19 7 -15.5 -8.5
2  310 45 0 -15.5 -8.5
0

0101000
+337 7 -258 7 *
Wi

0101100
-257 4 +256 4 +264 0 +540 0 *
Fa
0  1e-07 19 0

0101000
+255 0 *
Wi

0101100
-360 0 -373 0 +368 0 +363 0 *
Fa
0  1e-07 41 0

0111000
+253 0 *
Ve
1e-07
-22 -26 133
0 0

0101101
*
Ed
 1e-07 1 1 0
1  156 0 0 4
2  311 42 0 0 4
2  312 48 0 0 4
0

0101000
-343 7 +251 7 *
Ve
1e-07
22 -26 133
0 0

0101101
*
Ed
 1e-07 1 1 0
1  157 0 0 4
2  313 42 0 0 4
2  314 46 0 0 4
0

0101000
-334 7 +249 7 *
Ed
 1e-07 1 1 0
1  158 0 0 44
2  315 42 0 0 44
2  316 74 0 0 44
0

0101000
-249 7 +251 7 *
Wi

0101100
-250 4 -342 4 -346 4 -273 4 -261 4 -333 4 +248 4 +247 4 *
Fa
0  1e-07 42 4

0101000
+246 0 *
Ve
1.5e-07
-9 -24.4 160
0 0

0101101
*
Ed
 1e-07 1 1 0
1  159 0 2.59999999999999 5
2  317 43 0 2.59999999999999 5
2  318 44 0 2.59999999999999 5
0

0101000
+244 7 -341 7 *
Ve
1.5e-07
-9 -24.4 150
0 0

0101101
*
Ed
 1e-07 1 1 0
1  160 0 2.59999999999999 5
2  319 43 0 2.59999999999999 5
2  320 73 0 2.59999999999999 5
0

0101000
+242 7 -269 7 *
Ed
 1.5e-07 1 1 0
1  161 0 -2.29940170257586 7.70059829742414
2  321 43 0 -2.29940170257586 7.70059829742414
2  322 75 8 -2.29940170257586 7.70059829742414
0

0101000
+242 7 -244 7 *
Wi

0101100
-243 4 -340 4 -268 4 +241 4 -240 4 *
Fa
0  1e-07 43 4

0101000
+239 0 *
Ve
1.5e-07
9 -24.4 160
0 0

0101101
*
Ed
 1e-07 1 1 0
1  162 0 2.59999999999999 5
2  323 44 0 2.59999999999999 5
2  324 45 0 2.59999999999999 5
0

0101000
+237 7 -339 7 *
Ed
 1.5e-07 1 1 0
1  163 0 -13.7315362836097 4.26846371639032
2  325 44 0 -13.7315362836097 4.26846371639032
2  326 75 8 -13.7315362836097 4.26846371639032
0

0101000
+237 7 -244 7 *
Wi

0101100
-243 0 -338 0 +236 0 -235 0 *
Fa
0  1e-07 44 0

0101000
+234 0 *
Ve
1.5e-07
9 -24.4 150
0 0

0101101
*
Ed
 1e-07 1 1 0
1  164 0 2.59999999999999 5
2  327 45 0 2.59999999999999 5
2  328 73 0 2.59999999999999 5
0

0101000
+232 7 -258 7 *
Ed
 1.5e-07 1 1 0
1  165 0 -2.29940170257586 7.70059829742414
2  329 45 0 -2.29940170257586 7.70059829742414
2  330 75 8 -2.29940170257586 7.70059829742414
0

0101000
+232 7 -237 7 *
Wi

0101100
-236 4 -336 4 -256 4 +231 4 -230 4 *
Fa
0  1e-07 45 4

0101000
+229 0 *
Ve
1e-07
22 -26 177
0 0

0101101
*
Ed
 1e-07 1 1 0
1  166 0 0 44
2  331 46 0 0 44
2  332 74 0 0 44
0

0101000
-227 7 +249 7 *
Ed
 1e-07 1 1 0
1  167 0 0 4
2  333 46 0 0 4
2  334 47 0 0 4
0

0101000
-332 7 +227 7 *
Wi

0101100
-226 0 -225 0 +331 0 +248 0 *
Fa
0  1e-07 46 0

0111000
+224 0 *
Ve
1e-07
-22 -26 177
0 0

0101101
*
Ed
 1e-07 1 1 0
1  168 0 0 4
2  335 47 0 0 4
2  336 48 0 0 4
0

0101000
-330 7 +222 7 *
Ed
 1e-07 1 1 0
1  169 0 0 44
2  337 47 0 0 44
2  338 74 0 0 44
0

0101000
-227 7 +222 7 *
Wi

0101100
-221 0 -329 0 +225 0 +220 0 *
Fa
0  1e-07 47 0

0111000
+219 0 *
Ed
 1e-07 1 1 0
1  170 0 0 44
2  339 48 0 0 44
2  340 74 0 0 44
0

0101000
-222 7 +251 7 *
Wi

0101100
-217 0 -221 0 +328 0 +250 0 *
Fa
0  1e-07 48 0

0111000
+216 0 *
Ve
1e-07
-12.7091034656191 -24.6 139
0 0

0101101
*
Ve
1e-07
-14.3545517328096 -24.6 141.85
0 0

0101101
*
Ed
 1e-07 1 1 0
1  171 0 0 3.29089653438086
2  341 49 0 0 3.29089653438086
2  342 76 0 0 3.29089653438086
0

0101000
+214 7 -213 7 *
Ed
 1e-07 1 1 0
1  172 0 0 2.6
2  343 49 0 0 2.6
2  344 50 0 0 2.6
0

0101000
+213 7 -326 7 *
Ed
 1e-07 1 1 0
1  173 0 0 2.6
2  345 49 0 0 2.6
2  346 51 0 0 2.6
0

0101000
+214 7 -325 7 *
Wi

0101100
-212 0 -211 0 -324 0 +210 0 *
Fa
0  1e-07 49 0

0101000
+209 0 *
Ve
1e-07
-17.6454482671904 -24.6 141.85
0 0

0101101
*
Ed
 1e-07 1 1 0
1  174 0 0 3.29089653438086
2  347 50 0 0 3.29089653438086
2  348 76 0 0 3.29089653438086
0

0101000
+213 7 -207 7 *
Ed
 1e-07 1 1 0
1  175 0 0 2.6
2  349 50 0 0 2.6
2  350 52 0 0 2.6
0

0101000
+207 7 -323 7 *
Wi

0101100
-206 0 -205 0 -322 0 +211 0 *
Fa
0  1e-07 50 0

0101000
+204 0 *
Ve
1e-07
-14.3545517328096 -24.6 136.15
0 0

0101101
*
Ed
 1e-07 1 1 0
1  176 0 0 3.29089653438086
2  351 51 0 0 3.29089653438086
2  352 76 0 0 3.29089653438086
0

0101000
+202 7 -214 7 *
Ed
 1e-07 1 1 0
1  177 0 0 2.6
2  353 51 0 0 2.6
2  354 53 0 0 2.6
0

0101000
+202 7 -321 7 *
Wi

0101100
-201 0 -210 0 -320 0 +200 0 *
Fa
0  1e-07 51 0

0101000
+199 0 *
Ve
1e-07
-19.2908965343809 -24.6 139
0 0

0101101
*
Ed
 1e-07 1 1 0
1  178 0 0 3.29089653438086
2  355 52 0 0 3.29089653438086
2  356 76 0 0 3.29089653438086
0

0101000
+207 7 -197 7 *
Ed
 1e-07 1 1 0
1  179 0 0 2.6
2  357 52 0 0 2.6
2  358 54 0 0 2.6
0

0101000
+197 7 -319 7 *
Wi

0101100
-196 0 -195 0 -318 0 +205 0 *
Fa
0  1e-07 52 0

0101000
+194 0 *
Ve
1e-07
-17.6454482671904 -24.6 136.15
0 0

0101101
*
Ed
 1e-07 1 1 0
1  180 0 0 3.29089653438087
2  359 53 0 0 3.29089653438087
2  360 76 0 0 3.29089653438087
0

0101000
+192 7 -202 7 *
Ed
 1e-07 1 1 0
1  181 0 0 2.6
2  361 53 0 0 2.6
2  362 54 0 0 2.6
0

0101000
+192 7 -317 7 *
Wi

0101100
-191 0 -200 0 -316 0 +190 0 *
Fa
0  1e-07 53 0

0101000
+189 0 *
Ed
 1e-07 1 1 0
1  182 0 0 3.29089653438086
2  363 54 0 0 3.29089653438086
2  364 76 0 0 3.29089653438086
0

0101000
+197 7 -192 7 *
Wi

0101100
-187 0 -190 0 -315 0 +195 0 *
Fa
0  1e-07 54 0

0101000
+186 0 *
Ve
1e-07
-12.7091034656191 -24.6 171
0 0

0101101
*
Ve
1e-07
-14.3545517328096 -24.6 173.85
0 0

0101101
*
Ed
 1e-07 1 1 0
1  183 0 0 3.29089653438086
2  365 55 0 0 3.29089653438086
2  366 77 0 0 3.29089653438086
0

0101000
+184 7 -183 7 *
Ed
 1e-07 1 1 0
1  184 0 0 2.6
2  367 55 0 0 2.6
2  368 56 0 0 2.6
0

0101000
+183 7 -313 7 *
Ed
 1e-07 1 1 0
1  185 0 0 2.6
2  369 55 0 0 2.6
2  370 57 0 0 2.6
0

0101000
+184 7 -312 7 *
Wi

0101100
-182 0 -181 0 -311 0 +180 0 *
Fa
0  1e-07 55 0

0101000
+179 0 *
Ve
1e-07
-17.6454482671904 -24.6 173.85
0 0

0101101
*
Ed
 1e-07 1 1 0
1  186 0 0 3.29089653438086
2  371 56 0 0 3.29089653438086
2  372 77 0 0 3.29089653438086
0

0101000
+183 7 -177 7 *
Ed
 1e-07 1 1 0
1  187 0 0 2.6
2  373 56 0 0 2.6
2  374 58 0 0 2.6
0

0101000
+177 7 -310 7 *
Wi

0101100
-176 0 -175 0 -309 0 +181 0 *
Fa
0  1e-07 56 0

0101000
+174 0 *
Ve
1e-07
-14.3545517328096 -24.6 168.15
0 0

0101101
*
Ed
 1e-07 1 1 0
1  188 0 0 3.29089653438086
2  375 57 0 0 3.29089653438086
2  376 77 0 0 3.29089653438086
0

0101000
+172 7 -184 7 *
Ed
 1e-07 1 1 0
1  189 0 0 2.6
2  377 57 0 0 2.6
2  378 59 0 0 2.6
0

0101000
+172 7 -308 7 *
Wi

0101100
-171 0 -180 0 -307 0 +170 0 *
Fa
0  1e-07 57 0

0101000
+169 0 *
Ve
1e-07
-19.2908965343809 -24.6 171
0 0

0101101
*
Ed
 1e-07 1 1 0
1  190 0 0 3.29089653438086
2  379 58 0 0 3.29089653438086
2  380 77 0 0 3.29089653438086
0

0101000
+177 7 -167 7 *
Ed
 1e-07 1 1 0
1  191 0 0 2.6
2  381 58 0 0 2.6
2  382 60 0 0 2.6
0

0101000
+167 7 -306 7 *
Wi

0101100
-166 0 -165 0 -305 0 +175 0 *
Fa
0  1e-07 58 0

0101000
+164 0 *
Ve
1e-07
-17.6454482671904 -24.6 168.15
0 0

0101101
*
Ed
 1e-07 1 1 0
1  192 0 0 3.29089653438087
2  383 59 0 0 3.29089653438087
2  384 77 0 0 3.29089653438087
0

0101000
+162 7 -172 7 *
Ed
 1e-07 1 1 0
1  193 0 0 2.6
2  385 59 0 0 2.6
2  386 60 0 0 2.6
0

0101000
+162 7 -304 7 *
Wi

0101100
-161 0 -170 0 -303 0 +160 0 *
Fa
0  1e-07 59 0

0101000
+159 0 *
Ed
 1e-07 1 1 0
1  194 0 0 3.29089653438086
2  387 60 0 0 3.29089653438086
2  388 77 0 0 3.29089653438086
0

0101000
+167 7 -162 7 *
Wi

0101100
-157 0 -160 0 -302 0 +165 0 *
Fa
0  1e-07 60 0

0101000
+156 0 *
Ve
1e-07
19.2908965343809 -24.6 139
0 0

0101101
*
Ve
1e-07
17.6454482671904 -24.6 141.85
0 0

0101101
*
Ed
 1e-07 1 1 0
1  195 0 0 3.29089653438086
2  389 61 0 0 3.29089653438086
2  390 78 0 0 3.29089653438086
0

0101000
+154 7 -153 7 *
Ed
 1e-07 1 1 0
1  196 0 0 2.6
2  391 61 0 0 2.6
2  392 62 0 0 2.6
0

0101000
+153 7 -300 7 *
Ed
 1e-07 1 1 0
1  197 0 0 2.6
2  393 61 0 0 2.6
2  394 63 0 0 2.6
0

0101000
+154 7 -299 7 *
Wi

0101100
-152 0 -151 0 -298 0 +150 0 *
Fa
0  1e-07 61 0

0101000
+149 0 *
Ve
1e-07
14.3545517328096 -24.6 141.85
0 0

0101101
*
Ed
 1e-07 1 1 0
1  198 0 0 3.29089653438087
2  395 62 0 0 3.29089653438087
2  396 78 0 0 3.29089653438087
0

0101000
+153 7 -147 7 *
Ed
 1e-07 1 1 0
1  199 0 0 2.6
2  397 62 0 0 2.6
2  398 64 0 0 2.6
0

0101000
+147 7 -297 7 *
Wi

0101100
-146 0 -145 0 -296 0 +151 0 *
Fa
0  1e-07 62 0

0101000
+144 0 *
Ve
1e-07
17.6454482671904 -24.6 136.15
0 0

0101101
*
Ed
 1e-07 1 1 0
1  200 0 0 3.29089653438086
2  399 63 0 0 3.29089653438086
2  400 78 0 0 3.29089653438086
0

0101000
+142 7 -154 7 *
Ed
 1e-07 1 1 0
1  201 0 0 2.6
2  401 63 0 0 2.6
2  402 65 0 0 2.6
0

0101000
+142 7 -295 7 *
Wi

0101100
-141 0 -150 0 -294 0 +140 0 *
Fa
0  1e-07 63 0

0101000
+139 0 *
Ve
1e-07
12.7091034656191 -24.6 139
0 0

0101101
*
Ed
 1e-07 1 1 0
1  202 0 0 3.29089653438086
2  403 64 0 0 3.29089653438086
2  404 78 0 0 3.29089653438086
0

0101000
+147 7 -137 7 *
Ed
 1e-07 1 1 0
1  203 0 0 2.6
2  405 64 0 0 2.6
2  406 66 0 0 2.6
0

0101000
+137 7 -293 7 *
Wi

0101100
-136 0 -135 0 -292 0 +145 0 *
Fa
0  1e-07 64 0

0101000
+134 0 *
Ve
1e-07
14.3545517328096 -24.6 136.15
0 0

0101101
*
Ed
 1e-07 1 1 0
1  204 0 0 3.29089653438087
2  407 65 0 0 3.29089653438087
2  408 78 0 0 3.29089653438087
0

0101000
+132 7 -142 7 *
Ed
 1e-07 1 1 0
1  205 0 0 2.6
2  409 65 0 0 2.6
2  410 66 0 0 2.6
0

0101000
+132 7 -291 7 *
Wi

0101100
-131 0 -140 0 -290 0 +130 0 *
Fa
0  1e-07 65 0

0101000
+129 0 *
Ed
 1e-07 1 1 0
1  206 0 0 3.29089653438086
2  411 66 0 0 3.29089653438086
2  412 78 0 0 3.29089653438086
0

0101000
+137 7 -132 7 *
Wi

0101100
-127 0 -130 0 -289 0 +135 0 *
Fa
0  1e-07 66 0

0101000
+126 0 *
Ve
1e-07
19.2908965343809 -24.6 171
0 0

0101101
*
Ve
1e-07
17.6454482671904 -24.6 173.85
0 0

0101101
*
Ed
 1e-07 1 1 0
1  207 0 0 3.29089653438086
2  413 67 0 0 3.29089653438086
2  414 79 0 0 3.29089653438086
0

0101000
+124 7 -123 7 *
Ed
 1e-07 1 1 0
1  208 0 0 2.6
2  415 67 0 0 2.6
2  416 68 0 0 2.6
0

0101000
+123 7 -287 7 *
Ed
 1e-07 1 1 0
1  209 0 0 2.6
2  417 67 0 0 2.6
2  418 69 0 0 2.6
0

0101000
+124 7 -286 7 *
Wi

0101100
-122 0 -121 0 -285 0 +120 0 *
Fa
0  1e-07 67 0

0101000
+119 0 *
Ve
1e-07
14.3545517328096 -24.6 173.85
0 0

0101101
*
Ed
 1e-07 1 1 0
1  210 0 0 3.29089653438087
2  419 68 0 0 3.29089653438087
2  420 79 0 0 3.29089653438087
0

0101000
+123 7 -117 7 *
Ed
 1e-07 1 1 0
1  211 0 0 2.6
2  421 68 0 0 2.6
2  422 70 0 0 2.6
0

0101000
+117 7 -284 7 *
Wi

0101100
-116 0 -115 0 -283 0 +121 0 *
Fa
0  1e-07 68 0

0101000
+114 0 *
Ve
1e-07
17.6454482671904 -24.6 168.15
0 0

0101101
*
Ed
 1e-07 1 1 0
1  212 0 0 3.29089653438086
2  423 69 0 0 3.29089653438086
2  424 79 0 0 3.29089653438086
0

0101000
+112 7 -124 7 *
Ed
 1e-07 1 1 0
1  213 0 0 2.6
2  425 69 0 0 2.6
2  426 71 0 0 2.6
0

0101000
+112 7 -282 7 *
Wi

0101100
-111 0 -120 0 -281 0 +110 0 *
Fa
0  1e-07 69 0

0101000
+109 0 *
Ve
1e-07
12.7091034656191 -24.6 171
0 0

0101101
*
Ed
 1e-07 1 1 0
1  214 0 0 3.29089653438086
2  427 70 0 0 3.29089653438086
2  428 79 0 0 3.29089653438086
0

0101000
+117 7 -107 7 *
Ed
 1e-07 1 1 0
1  215 0 0 2.6
2  429 70 0 0 2.6
2  430 72 0 0 2.6
0

0101000
+107 7 -280 7 *
Wi

0101100
-106 0 -105 0 -279 0 +115 0 *
Fa
0  1e-07 70 0

0101000
+104 0 *
Ve
1e-07
14.3545517328096 -24.6 168.15
0 0

0101101
*
Ed
 1e-07 1 1 0
1  216 0 0 3.29089653438087
2  431 71 0 0 3.29089653438087
2  432 79 0 0 3.29089653438087
0

0101000
+102 7 -112 7 *
Ed
 1e-07 1 1 0
1  217 0 0 2.6
2  433 71 0 0 2.6
2  434 72 0 0 2.6
0

0101000
+102 7 -278 7 *
Wi

0101100
-101 0 -110 0 -277 0 +100 0 *
Fa
0  1e-07 71 0

0101000
+99 0 *
Ed
 1e-07 1 1 0
1  218 0 0 3.29089653438086
2  435 72 0 0 3.29089653438086
2  436 79 0 0 3.29089653438086
0

0101000
+107 7 -102 7 *
Wi

0101100
-97 0 -100 0 -276 0 +105 0 *
Fa
0  1e-07 72 0

0101000
+96 0 *
Ed
 1.5e-07 1 1 0
1  219 0 -13.7315362836097 4.26846371639032
2  437 73 0 -13.7315362836097 4.26846371639032
2  438 75 8 -13.7315362836097 4.26846371639032
0

0101000
+232 7 -242 7 *
Wi

0101100
-241 4 -267 4 -272 4 -257 4 +231 4 -94 4 *
Fa
0  1e-07 73 4

0101000
+93 0 *
Wi

0101100
-247 0 -226 0 +217 0 +220 0 *
Ve
1e-07
-16 -26 140.7
0 0

0101101
*
Ed
 1e-07 1 1 0
1  220 0 0 6.28318530717959
2  439 74 0 0 6.28318530717959
2  440 80 0 0 6.28318530717959
0

0101000
+90 7 -90 7 *
Wi

0101100
-89 0 *
Ve
1.50000001776357e-07
13.2 -26 143.8
0 0

0101101
*
Ve
1.5e-07
-13.2 -26 143.8
0 0

0101101
*
Ed
 1.5e-07 1 1 0
1  221 0 -30.8 -4.4
2  441 74 0 -30.8 -4.4
2  442 81 0 -30.8 -4.4
0

0101000
+87 7 -86 7 *
Ve
1.50000001776357e-07
13.2 -26 161.2
0 0

0101101
*
Ed
 1.5e-07 1 1 0
1  222 0 -22.8 -5.40000000000001
2  443 74 0 -22.8 -5.40000000000001
2  444 82 0 -22.8 -5.40000000000001
0

0101000
+84 7 -87 7 *
Ve
1.5e-07
-13.2 -26 166.2
0 0

0101101
*
Ed
 1.5e-07 1 1 0
1  223 0 -5.79999999999998 16.6
2  445 74 0 -5.79999999999998 16.6
2  446 83 0 -5.79999999999998 16.6
0

0101000
+86 7 -82 7 *
Ve
1.50000001776357e-07
8.2 -26 166.2
0 0

0101101
*
Ed
 1.5e-07 1 1 0
1  224 0 -4.59619407771256 2.47487373415292
2  447 74 0 -4.59619407771256 2.47487373415292
2  448 84 0 -4.59619407771256 2.47487373415292
0

0101000
+80 7 -84 7 *
Ed
 1.5e-07 1 1 0
1  225 0 -6.3 15.1
2  449 74 0 -6.3 15.1
2  450 85 0 -6.3 15.1
0

0101000
+82 7 -80 7 *
Wi

0101100
-85 0 -83 0 -81 0 -79 0 -78 0 *
Ve
1e-07
-16 -26 172.7
0 0

0101101
*
Ed
 1e-07 1 1 0
1  226 0 0 6.28318530717959
2  451 74 0 0 6.28318530717959
2  452 86 0 0 6.28318530717959
0

0101000
+76 7 -76 7 *
Wi

0101100
-75 0 *
Ve
1e-07
16 -26 140.7
0 0

0101101
*
Ed
 1e-07 1 1 0
1  227 0 0 6.28318530717959
2  453 74 0 0 6.28318530717959
2  454 87 0 0 6.28318530717959
0

0101000
+73 7 -73 7 *
Wi

0101100
-72 0 *
Ve
1e-07
16 -26 172.7
0 0

0101101
*
Ed
 1e-07 1 1 0
1  228 0 0 6.28318530717959
2  455 74 0 0 6.28318530717959
2  456 88 0 0 6.28318530717959
0

0101000
+70 7 -70 7 *
Wi

0101100
-69 0 *
Fa
0  1e-07 74 0

0101000
+91 0 +88 0 +77 0 +74 0 +71 0 +68 0 *
Ve
1e-07
-13.2 -24.4 143.8
0 0

0101101
*
Ve
1e-07
13.2 -24.4 143.8
0 0

0101101
*
Ed
 1e-07 1 1 0
1  229 0 0 26.4
2  457 75 0 0 26.4
2  458 81 9 0 26.4
0

0101000
+66 10 -65 10 *
Ve
1e-07
-13.2 -24.4 166.2
0 0

0101101
*
Ed
 1e-07 1 1 0
1  230 0 0 22.4
2  459 75 0 0 22.4
2  460 83 9 0 22.4
0

0101000
+63 10 -66 10 *
Ve
1e-07
13.2 -24.4 161.2
0 0

0101101
*
Ed
 1e-07 1 1 0
1  231 0 0 17.4
2  461 75 0 0 17.4
2  462 82 9 0 17.4
0

0101000
+65 10 -61 10 *
Ve
1e-07
8.2 -24.4 166.2
0 0

0101101
*
Ed
 1e-07 1 1 0
1  232 0 0 21.4
2  463 75 0 0 21.4
2  464 85 9 0 21.4
0

0101000
+59 10 -63 10 *
Ed
 1e-07 1 1 0
1  233 0 0 7.07106781186548
2  465 75 0 0 7.07106781186548
2  466 84 9 0 7.07106781186548
0

0101000
+61 10 -59 10 *
Wi

0101100
+64 8 +62 8 +60 8 +58 8 +57 8 *
Wi

0101100
+94 0 -230 0 -235 0 +240 0 *
Fa
0  1e-07 75 8

0101000
+56 0 +55 0 *
Wi

0101100
+212 0 +201 0 +206 0 +191 0 +196 0 +187 0 *
Ve
1e-07
-16 -24.6 140.7
0 0

0101101
*
Ed
 1e-07 1 1 0
1  234 0 0 6.28318530717959
2  467 76 0 0 6.28318530717959
2  468 80 0 0 6.28318530717959
0

0101000
+52 7 -52 7 *
Wi

0101100
+51 0 *
Fa
0  1e-07 76 0

0101000
+53 0 +50 0 *
Wi

0101100
+182 0 +171 0 +176 0 +161 0 +166 0 +157 0 *
Ve
1e-07
-16 -24.6 172.7
0 0

0101101
*
Ed
 1e-07 1 1 0
1  235 0 0 6.28318530717959
2  469 77 0 0 6.28318530717959
2  470 86 0 0 6.28318530717959
0

0101000
+47 7 -47 7 *
Wi

0101100
+46 0 *
Fa
0  1e-07 77 0

0101000
+48 0 +45 0 *
Wi

0101100
+152 0 +141 0 +146 0 +131 0 +136 0 +127 0 *
Ve
1e-07
16 -24.6 140.7
0 0

0101101
*
Ed
 1e-07 1 1 0
1  236 0 0 6.28318530717959
2  471 78 0 0 6.28318530717959
2  472 87 0 0 6.28318530717959
0

0101000
+42 7 -42 7 *
Wi

0101100
+41 0 *
Fa
0  1e-07 78 0

0101000
+43 0 +40 0 *
Wi

0101100
+122 0 +111 0 +116 0 +101 0 +106 0 +97 0 *
Ve
1e-07
16 -24.6 172.7
0 0

0101101
*
Ed
 1e-07 1 1 0
1  237 0 0 6.28318530717959
2  473 79 0 0 6.28318530717959
2  474 88 0 0 6.28318530717959
0

0101000
+37 7 -37 7 *
Wi

0101100
+36 0 *
Fa
0  1e-07 79 0

0101000
+38 0 +35 0 *
Ed
 1e-07 1 1 0
1  238 0 1 2.40000000000001
3  475 476CN 80 0 1 2.40000000000001
0

0101000
+90 7 -52 7 *
Wi

0101100
-51 0 +33 0 +89 0 -33 0 *
Fa
0  1e-07 80 0

0101000
+32 0 *
Ed
 1e-07 1 1 0
1  239 0 0.100000000000001 1.7
2  477 81 0 0.100000000000001 1.7
2  478 82 0 0.100000000000001 1.7
0

0101000
+87 7 -65 7 *
Ed
 1e-07 1 1 0
1  240 0 0.100000000000001 1.7
2  479 81 0 0.100000000000001 1.7
2  480 83 0 0.100000000000001 1.7
0

0101000
+86 7 -66 7 *
Wi

0101100
+85 0 -30 0 +64 8 +29 0 *
Fa
0  1e-07 81 0

0101000
+28 0 *
Ed
 1e-07 1 1 0
1  241 0 0.100000000000001 1.7
2  481 82 0 0.100000000000001 1.7
2  482 84 0 0.100000000000001 1.7
0

0101000
+84 7 -61 7 *
Wi

0101100
+83 0 -26 0 +60 8 +30 0 *
Fa
0  1e-07 82 0

0101000
+25 0 *
Ed
 1e-07 1 1 0
1  242 0 0.100000000000001 1.7
2  483 83 0 0.100000000000001 1.7
2  484 85 0 0.100000000000001 1.7
0

0101000
+82 7 -63 7 *
Wi

0101100
+81 0 -29 0 +62 8 +23 0 *
Fa
0  1e-07 83 0

0101000
+22 0 *
Ed
 1e-07 1 1 0
1  243 0 0.100000000000001 1.7
2  485 84 0 0.100000000000001 1.7
2  486 85 0 0.100000000000001 1.7
0

0101000
+80 7 -59 7 *
Wi

0101100
+79 0 -20 0 +57 8 +26 0 *
Fa
0  1e-07 84 0

0101000
+19 0 *
Wi

0101100
+78 0 -23 0 +58 8 +20 0 *
Fa
0  1e-07 85 0

0101000
+17 0 *
Ed
 1e-07 1 1 0
1  244 0 1 2.40000000000001
3  487 488CN 86 0 1 2.40000000000001
0

0101000
+76 7 -47 7 *
Wi

0101100
-46 0 +15 0 +75 0 -15 0 *
Fa
0  1e-07 86 0

0101000
+14 0 *
Ed
 1e-07 1 1 0
1  245 0 1 2.40000000000001
3  489 490CN 87 0 1 2.40000000000001
0

0101000
+73 7 -42 7 *
Wi

0101100
-41 0 +12 0 +72 0 -12 0 *
Fa
0  1e-07 87 0

0101000
+11 0 *
Ed
 1e-07 1 1 0
1  246 0 1 2.40000000000001
3  491 492CN 88 0 1 2.40000000000001
0

0101000
+70 7 -37 7 *
Wi

0101100
-36 0 +9 0 +69 0 -9 0 *
Fa
0  1e-07 88 0

0101000
+8 0 *
Ed
 1e-05 1 1 0
1  247 0 16 19
3  493 494C0 5 0 16 19
0

0101000
+397 0 -600 0 *
Wi

0101100
+394 0 -505 0 +403 0 -422 0 -411 0 -406 0 -409 0 -417 0 -433 0 -513 0 
+490 0 +475 0 -438 0 +458 0 +446 0 +441 0 -444 0 +453 0 +466 0 +482 0 
+396 0 +6 0 -597 0 -526 0 -536 0 +547 0 -590 0 -560 0 -570 0 +579 0 
-599 0 -6 0 *
Fa
0  1e-07 5 0

0101000
+5 0 *
Sh

0101100
+585 0 -572 0 -565 0 +553 0 -538 0 -531 0 +521 0 -516 0 -495 0 -488 5 
-470 0 +463 5 +450 5 -442 5 -439 5 -435 5 -428 5 +415 5 -407 5 -404 5 
+400 5 +398 5 -391 0 -380 0 -378 5 +371 5 +366 5 -361 5 -358 5 +355 0 
+352 0 +347 0 -344 0 +274 0 +270 0 -265 0 +262 0 -259 0 -254 0 -252 5 
-245 0 +238 0 -233 4 -228 0 +223 4 +218 4 -215 4 -208 4 -203 4 -198 4 
-193 4 -188 4 -185 4 -178 4 -173 4 -168 4 -163 4 -158 4 -155 4 -148 4 
-143 4 -138 4 -133 4 -128 4 -125 4 -118 4 -113 4 -108 4 -103 4 -98 4 
-95 4 +92 0 -67 4 +54 4 -49 4 -44 4 -39 4 -34 4 -31 4 -27 4 
-24 4 -21 4 -18 4 -16 4 -13 4 -10 4 -7 4 +4 0 *
So

0100000
+3 0 *
Co

1100000
+2 0 *

+1 1 