DBRep_DrawableShape

CASCADE Topology V1, (c) Matra-Datavision
Locations 1
1
              1               0               0               0 
              0               1               0               0 
              0               0               1               0 
Curve2ds 128
7 0 0  7 8 2  5.8402742156717808 9.471729191750347  5.8647109206915227 9.5564986239079257  5.8897793618480128 9.6156278719064812  5.9149982592484598 9.6551853032315513  5.9401433983228884 9.6800707627446165  5.9651440687892272 9.6940740369187584  5.9900615016769096 9.6999999999999993  6.0151221843571481 9.6999999999999993 
 0 8 1 8
7 0 0  7 8 2  5.7589821482582586 -5.9999999999999997e-07  5.8586066210229113 0.30910197853341198  5.9481255409671396 0.63037543139140284  6.028971797753675 0.95782036621063604  6.1020885947372472 1.2881291021876766  6.1683536033977377 1.6199131611561586  6.2285220727740658 1.9535815402689449  6.2831853071795862 2.2919007564521645 
 0 8 1 8
8 5.9599999999999937 10.040000000000006
1 5.8402742631059477 0 0 1 
8 5.9599999999999937 10.040000000000006
1 -8 -0.85088935932648191 1 0 
7 0 0  8 23 4  6.2831853071795862 6.3751923190728084  6.2642943599844818 6.3751923190728084  6.2454118214908299 6.3734353658235738  6.2265297438256457 6.3699235681873807  6.2076412155701792 6.3647808196750999  6.1887409722948572 6.3582499593262227  6.1698260898100505 6.3506866916724718  6.1508967601326958 6.3425502657849435  6.0983808116921718 6.3199259282343547  6.0652117131788472 6.3055785711601766  6.032017357852288 6.2942257442471572  5.9985364355644206 6.2893681338884289  5.9647057858611872 6.2957164832371015  5.9306396174005638 6.3197429876920364  5.8966523594062119 6.3699981926213409  5.8605915334543051 6.465343205249158  5.8576744910906138 6.4733635648292598  5.8547615455381541 6.4816908033998084  5.8518531103262559 6.4903343093250099  5.8489496410471293 6.4993038148088775  5.8460516353558747 6.5086093958952258  5.8431596329704725 6.5182614724676764  5.8402742156717826 6.5282708082496521 
 0 9 0.34140699140662512 7 0.94665687371960416 7 1 9
7 0 0  8 23 4  2.843060452404917 5.9999999999999947  2.843060452404917 5.7355267392685247  2.8465745561819209 5.4711711755766697  2.853597682436507 5.2069659707388105  2.8641080644542884 4.942957465052964  2.8780675572922139 4.6792158918952751  2.8954249990372869 4.4158455422305449  2.9161226261377147 4.1529948790388458  2.9826227081154921 3.4261628520897518  3.0349092789224685 2.9698128006402191  3.0967553739652147 2.5165139781861123  3.1686615787382975 2.0634409351015295  3.25131558207877 1.6107160170034187  3.3457055222497516 1.1609241532220007  3.4530461747618917 0.71923333549713908  3.5864165802705643 0.25819166667858634  3.5973478671774863 0.22095256362910048  3.6084106117711978 0.18382170031680303  3.6196075295124261 0.14680455563323938  3.6309414664717332 0.10990708444089108  3.6424153993295043 0.073135717573176134  3.654032435375953 0.036497361834448863  3.6657958125111212 -6.0000000000000008e-07 
 0 9 0.34140699140662512 7 0.94665687371960416 7 1 9
8 0.79999999999999716 15.200000000000003
1 5.917978085889219 0 0 1 
8 0.79999999999999716 15.200000000000003
1 -2 4.076696830622021 1 0 
1 0 2 1 0 
2 -9 5 1 0 -0 1 14
8 -6.0000000701165845e-07 16.000000599999993
1 6.2617550954703658 0 0 1 
8 -6.0000000701165845e-07 16.000000599999993
1 4 43.996785345214093 1 0 
1 0 0 1 0 
2 0 0 1 0 -0 1 14
8 -6.0000000701165845e-07 16.000000599999993
1 3.1630228652990136 0 0 1 
8 -6.0000000701165845e-07 16.000000599999993
1 4 16.003214654785907 1 0 
1 0 2 1 0 
2 18 5 1 0 -0 1 14
8 0.79999999999999716 15.200000000000003
1 3.5067998748801599 0 0 1 
8 0.79999999999999716 15.200000000000003
1 -2 4.923303169377979 1 0 
7 0 0  8 44 7  3.5845037450975985 6.5282708082496494  3.5613534840744636 6.4479639714790897  3.5376299809535552 6.390138103617069  3.513718241893399 6.3500508418599457  3.4898251319601847 6.3237171736619784  3.4660498498746102 6.3079046054699255  3.4424022755451018 6.3000680407176102  3.4187965345015741 6.2982307619358178  3.3822754802171553 6.3022091949675056  3.3695180902604926 6.3048735761347272  3.3567758727820687 6.3085440834880142  3.344048863820074 6.3129771440218541  3.3313362269933173 6.3179511166514235  3.3186362643518525 6.3232648252922301  3.3059464272276169 6.3287360919397671  3.2742678591445187 6.3423839640536661  3.2552829541286434 6.3505541914339592  3.2363127557860616 6.3581545422244607  3.2173573963670208 6.3647206160220025  3.1984138612716939 6.3698926707278467  3.1794767695126618 6.373425039993859  3.1605390699915419 6.3751923190728084  3.1226462371882699 6.3751923190728084  3.1037085376669955 6.3734250399939114  3.0847714459077284 6.3698926707278325  3.0658279108123239 6.3647206160219154  3.0468725513934274 6.3581545422244066  3.0279023530510867 6.3505541914340133  3.0089174480353043 6.3423839640537665  2.9563983759403052 6.3197575127061887  2.9232783518267031 6.305461183268295  2.8901324278568521 6.2941809002594837  2.856701236488612 6.2894088081944126  2.8229221237299167 6.2958415104737746  2.7889088663772772 6.3199278913177954  2.7549748396206009 6.3701865399568556  2.718968707713763 6.4654261774244102  2.7160560120273791 6.4734374027360282  2.7131474041397845 6.4817546698925712  2.7102432960317233 6.4903873274869675  2.7073441414288619 6.4993450662306618  2.7044504358017902 6.5086379189536077  2.7015627163660212 6.5182762606042761  2.6986815620819899 6.528270808249645 
 0 9 0.21297985076709242 7 0.3275133282123931 7 0.49905001675689575 7 0.67058670529935949 7 0.97331828646120544 7 1 9
7 0 0  8 44 7  2.6173894946684708 -6.0000000000000008e-07  2.7117693444448832 0.29282960645340783  2.7973373180595269 0.59658593603020682  2.8751882043796337 0.90647700104082196  2.9461079385167692 1.2195817351993652  3.0107531885080925 1.5342423029667847  3.0697233037924643 1.8499778553112636  3.123547985618973 2.1676369218039233  3.1990001307832832 2.6625968330772505  3.2238947152623529 2.8361487168613522  3.2473178435944585 3.010103730611247  3.2692805292435096 3.1844158157517448  3.2897863166873704 3.3590511012092716  3.3088328495997046 3.5339879997797379  3.3264134390318336 3.7092173044964074  3.3666393643463413 4.1476258940841895  3.3874560722095071 4.4112356200924943  3.4049137296937717 4.6753677715693529  3.4189541929519809 4.9398734089064211  3.4295258367241117 5.2046482211291103  3.4365900877676951 5.4696223512769464  3.4401248547746697 5.7347501703755182  3.4401248547746697 6.2652498296213315  3.4365900877677893 6.530377648722137  3.4295258367240957 6.7953517788731785  3.4189541929518095 7.0601265910968669  3.4049137296936207 7.3246322284319492  3.3874560722095937 7.5887643799055509  3.3666393643466423 7.852374105912542  3.2999498515460974 8.5792002763135962  3.2476438313062834 9.0348408328264416  3.185805521391309 9.4874426329940498  3.1139353968916135 9.9398070070811677  3.031346828434589 10.391809364701622  2.9370533415094537 10.84087581912569  2.8298419634140251 11.281858202317652  2.6966556536642448 11.742193509795937  2.6857393555972466 11.779376627720996  2.6746919681274091 11.816451784735005  2.6635107872823416 11.85341352292976  2.6521929789172667 11.890255912129865  2.6407355787150255 11.926972549892705  2.6291354921860712 11.963556561508435  2.6173894946684726 12.000000600000003 
 0 9 0.21297985076709242 7 0.3275133282123931 7 0.49905001675689575 7 0.67058670529935949 7 0.97331828646120544 7 1 9
8 5.9599999999999937 10.040000000000006
1 3.5845036976634317 0 0 1 
8 5.9599999999999937 10.040000000000006
1 -8 0.85088935932648191 1 0 
7 0 0  7 8 2  3.4096557764122313 9.6999999999999993  3.4347185522901658 9.6999999999999993  3.4596359134586807 9.6940730619707658  3.4846355035370733 9.680069054290307  3.5097792990842045 9.6551844295317402  3.5349972826476463 9.6156296383350508  3.5600658156567291 9.5565028713497817  3.5845037450975985 9.4717291917503488 
 0 8 1 8
7 0 0  7 8 2  0 2.2919007564521694  0.054667800161280741 1.9535532821000554  0.11483704792931601 1.6198863253850031  0.18109999302398111 1.2881169934830641  0.25421289738396002 0.95782598629665128  0.33505568572651551 0.63039250105135336  0.4245736943908392 0.30911746637137288  0.52420315892132674 -5.9999999999999997e-07 
 0 8 1 8
8 0.79999999999999716 15.200000000000003
1 3.5067998748801599 0 0 1 
8 0.79999999999999716 15.200000000000003
1 -2 4.923303169377979 1 0 
1 0 14 1 0 
2 18 5 1 0 -0 1 14
8 -6.0000000701165845e-07 16.000000599999993
1 3.1630228652990136 0 0 1 
8 -6.0000000701165845e-07 16.000000599999993
1 4 16.003214654785907 1 0 
1 0 16 1 0 
2 0 0 1 0 -0 1 14
8 -6.0000000701165845e-07 16.000000599999993
1 6.2617550954703658 0 0 1 
8 -6.0000000701165845e-07 16.000000599999993
1 4 43.996785345214093 1 0 
1 0 14 1 0 
2 -9 5 1 0 -0 1 14
8 0.79999999999999716 15.200000000000003
1 5.917978085889219 0 0 1 
8 0.79999999999999716 15.200000000000003
1 -2 4.076696830622021 1 0 
1 0 5.6999999999999993 1 0 
2 12 43.5 1 0 -0 1 1.7
1 6.2831853071795862 -0 0 1 
1 0 -0 0 1 
1 0 1 1 0 
2 6 4.5 1 0 -0 1 1.7
1 0 0 1 0 
2 0 0 1 0 -0 1 1.7
1 0 1 1 0 
2 6 4.5 1 0 -0 1 1.7
1 0 0 0 1 
1 0 0 1 0 
1 0 9 1 0 
1 0 0 1 0 
1 12 0 0 1 
1 0 0 1 0 
8 -28.5 -23.576696830622019
1 -19.5 4.6999999999999993 -1 0 
8 -28.5 -23.576696830622019
1 6 19.5 0 -1 
1 9 0 0 1 
1 0 0 0 -1 
8 3 15
1 3 48 1 0 
8 3 15
1 -3 -4.6999999999999993 1 0 
8 -28.5 -23.576696830622019
1 18 19.5 0 -1 
8 -28.5 -23.576696830622019
1 -19.5 4.6999999999999993 -1 0 
8 -29 -1
1 20 15 0 -1 
8 -29 -1
1 -15 -0.30000000000000071 -1 0 
8 0.099999399999987304 16.100000599999987
1 3.9000000000000057 40.195587280779854 1 0 
8 0.099999399999987304 16.100000599999987
1 6.2537693003716539 0 0 1 
8 2.9999994000000072 15.000000599999993
1 3 40.195587280779854 1 0 
8 2.9999994000000072 15.000000599999993
1 6.2537693003716539 0 0 1 
8 0.099999399999987304 16.100000599999987
1 3.9000000000000057 40.195587280779854 1 0 
8 0.099999399999987304 16.100000599999987
1 6.2537693003716539 0 0 1 
8 -29 -1
1 4 15 0 -1 
8 -29 -1
1 -15 -0.30000000000000071 -1 0 
8 -29 -1
1 -15 -0.30000000000000071 -1 0 
8 -29 -1
1 4 15 0 -1 
2 0 0 1 0 -0 1 10.199999999999999
1 0 0.099999999999994316 1 0 
8 0.099999399999987304 16.100000599999987
1 3.9000000000000057 19.804412719220146 1 0 
8 0.099999399999987304 16.100000599999987
1 3.1710086603977259 0 0 1 
8 2.9999994000000072 15.000000599999993
1 3 19.804412719220146 1 0 
8 2.9999994000000072 15.000000599999993
1 3.1710086603977259 0 0 1 
8 0.099999399999987304 16.100000599999987
1 3.9000000000000057 19.804412719220146 1 0 
8 0.099999399999987304 16.100000599999987
1 3.1710086603977259 0 0 1 
8 -29 -1
1 20 15 0 -1 
8 -29 -1
1 -15 -0.30000000000000071 -1 0 
8 -10.923303169377981 -6
1 18 6 0 -1 
8 -10.923303169377981 -6
1 -6 4.6999999999999993 -1 0 
8 3 15
1 3 12 1 0 
8 3 15
1 -3 -4.6999999999999993 1 0 
8 -10.923303169377981 -6
1 6 6 0 -1 
8 -10.923303169377981 -6
1 -6 4.6999999999999993 -1 0 
2 12 16.5 1 0 -0 1 1.7
1 0 5.6999999999999993 1 0 
1 0 0 1 0 
1 0 0 0 1 
1 0 0 0 1 
1 0 0 0 -1 
2 6 4.5 1 0 -0 1 1.7
1 0 1 1 0 
2 6 4.5 1 0 -0 1 1.7
1 0 1 1 0 
1 12 0 0 1 
1 0 0 1 0 
1 0 0 1 0 
1 0 0 1 0 
1 6.2831853071795862 -0 0 1 
1 0 -0 0 1 
1 0 0 1 0 
2 0 0 1 0 -0 1 1.7
1 0 0 0 1 
1 12 0 0 -1 
2 0 0 1 0 -0 1 10.199999999999999
1 0 16.099999999999994 1 0 
1 9 0 0 1 
1 12 0 0 -1 
8 0.89999999999999147 15.299999999999997
1 5.7932279809258578 0 0 1 
1 5.7932279809258578 0.90000000000000568 0 1 
1 0 2.0999999999999943 1 0 
1 0 3 1 0 
1 0 2.0999999999999943 1 0 
1 0 3 1 0 
8 0.89999999999999147 15.299999999999997
1 3.6315499798435211 0 0 1 
1 3.6315499798435211 0.90000000000000568 0 1 
1 0 14.099999999999994 1 0 
1 0 15 1 0 
1 0 14.099999999999994 1 0 
1 0 15 1 0 
Curves 64
7 0 0  7 8 2  12.649110356068503 -6.0000006000000079 113.47172919175034  12.795730600848978 -5.6908980214665963 113.55649862390791  12.937329342136357 -5.369624568608458 113.61562787190654  13.070052398519977 -5.0421796337896616 113.65518530323145  13.192593758280511 -4.7118708978120427 113.68007076274472  13.304784953584338 -4.3800868388439529 113.69407403691871  13.407072501510616 -4.0464184597310551 113.7  13.5 -3.7080992435478355 113.7 
 0 8 1 8
1 12.649110640673518 -6 104 0 0 1 
7 0 0  8 23 4  14 -3.5527136788005009e-15 110.37519231907278  14 -0.26447326073147637 110.37519231907278  13.994290127795628 -0.52882882442330759 110.37343536582357  13.98287921490104 -0.7930340292611926 110.3699235681874  13.965767154359709 -1.0570425349470594 110.36478081967509  13.942947289798136 -1.3207841081047325 110.35824995932624  13.914411981112933 -1.584154457769438 110.35068669167249  13.880161346791263 -1.8470051209611535 110.34255026578495  13.769398205989756 -2.5738371479102482 110.31992592823435  13.681607988104961 -3.0301871993593958 110.3055785711602  13.576811698354554 -3.4834860218150014 110.29422574424713  13.454066045690212 -3.9365590648970437 110.28936813388844  13.312470208845271 -4.3892839829975081 110.2957164832371  13.151989586183316 -4.8390758467777388 110.31974298769204  12.974157509191471 -5.2807666645028606 110.36999819262134  12.7684497538529 -5.7418083333214138 110.46534320524918  12.751684949403357 -5.7790474363708988 110.47336356482928  12.734819624496764 -5.8161782996831946 110.48169080339983  12.717856999137769 -5.853195444366758 110.49033430932501  12.700800649410958 -5.8900929155591086 110.49930381480887  12.683654507480847 -5.9268642824268269 110.50860939589522  12.666422861591899 -5.9635026381655578 110.5182614724677  12.649110356068503 -6.0000006000000079 110.52827080824966 
 0 9 0.34140699140662512 7 0.94665687371960416 7 1 9
1 13.076696830622021 -5 104 0 0 1 
2 0 0 106 0 0 1 1 0 -0 -0 1 0 14
1 13.996785345214093 -0.30000000000000071 104 0 0 1 
2 0 0 104 0 0 1 1 0 -0 -0 1 0 14
1 -13.996785345214093 -0.30000000000000071 104 0 0 1 
2 0 0 106 0 0 1 1 0 -0 -0 1 0 14
1 -13.076696830622021 -5 104 0 0 1 
7 0 0  8 44 7  -12.649110356068508 -6.0000005999999999 110.52827080824964  -12.788011936097469 -5.7071703935465914 110.44796397147908  -12.922605373302456 -5.4034140639697696 110.39013810361706  -13.04979594399528 -5.0935229989592168 110.35005084185995  -13.168241506751091 -4.7804182648006339 110.32371717366196  -13.27752182654633 -4.465757697033176 110.30790460546991  -13.377751513076729 -4.1500221446887604 110.3000680407176  -13.469355738298171 -3.8323630781960771 110.29823076193583  -13.597562671875155 -3.3374031669227491 110.30220919496749  -13.639820948857707 -3.1638512831386478 110.3048735761347  -13.679498233632927 -2.989896269388753 110.30854408348802  -13.716595106040382 -2.8155841842482552 110.31297714402186  -13.751115664059766 -2.6409488987907297 110.3179511166514  -13.783065966563727 -2.4660120002202626 110.32326482529223  -13.812452476070622 -2.2907826955035921 110.32873609193979  -13.879460811608626 -1.8523741059158096 110.34238396405367  -13.913911800031908 -1.5887643799075053 110.35055419143393  -13.942613765142696 -1.3246322284306467 110.35815454222447  -13.965566818423994 -1.0601265910935787 110.36472061602198  -13.98277882470712 -0.7953517788708897 110.36989267072782  -13.994256547585302 -0.53037764872305337 110.37342503999382  -14 -0.26524982962448168 110.37519231907278  -14 0.26524982962133237 110.37519231907278  -13.994256547585461 0.53037764872213611 110.37342503999389  -13.982778824707093 0.7953517788731771 110.36989267072784  -13.965566818423712 1.0601265910968645 110.36472061602194  -13.942613765142445 1.3246322284319481 110.35815454222443  -13.91391180003205 1.5887643799055517 110.35055419143403  -13.879460811609121 1.852374105912544 110.34238396405379  -13.768369439175419 2.5792002763135962 110.31975751270619  -13.680537058937349 3.0348408328264416 110.30546118326826  -13.575746003449028 3.4874426329940498 110.29418090025953  -13.453058393137656 3.9398070070811677 110.28940880819437  -13.311580601510183 4.3918093647016221 110.29584151047379  -13.151280352751714 4.8408758191256904 110.3199278913178  -12.973687991810683 5.2818582023176521 110.37018653995685  -12.768276342852261 5.7421935097959382 110.46542617742438  -12.751535421285475 5.7793766277210006 110.473437402736  -12.734694300144586 5.8164517847350039 110.48175466989258  -12.717756187427023 5.8534135229297615 110.49038732748699  -12.70072464471107 5.8902559121298665 110.49934506623065  -12.68360358715586 5.9269725498927022 110.50863791895358  -12.666397283501391 5.9635565615084314 110.51827626060427  -12.649110356068517 6.0000005999999981 110.52827080824964 
 0 9 0.21297985076709242 7 0.3275133282123931 7 0.49905001675689575 7 0.67058670529935949 7 0.97331828646120544 7 1 9
1 -12.649110640673518 -6 104 0 0 1 
7 0 0  7 8 2  -13.5 -3.7080992435478306 113.7  -13.407064739725822 -4.0464467178999444 113.7  -13.30477582074602 -4.3801136746149449 113.6940730619707  -13.192588393663028 -4.7118830065170592 113.68006905429046  -13.07005358364912 -5.0421740137032307 113.65518442953159  -12.937336351513853 -5.3696074989486835 113.61562963833512  -12.795737947376479 -5.6908825336286322 113.55650287134978  -12.649110356068505 -6.0000006000000052 113.47172919175034 
 0 8 1 8
1 -13.076696830622021 -5 104 0 0 1 
2 0 0 118 0 0 1 1 0 -0 -0 1 0 14
1 -13.996785345214093 -0.30000000000000071 104 0 0 1 
2 0 0 120 0 0 1 1 0 -0 -0 1 0 14
1 13.996785345214093 -0.30000000000000071 104 0 0 1 
2 0 0 118 0 0 1 1 0 -0 -0 1 0 14
1 13.076696830622021 -5 104 0 0 1 
2 13.5 -0.30000000000000071 112 0 1 0 0 -0 1 1 0 -0 1.7
1 13.499999999999998 -6 113.7 0 1 0 
2 13.5 -5 112 0 1 0 0 -0 1 1 0 -0 1.7
2 13.5 -6 112 0 1 0 0 -0 1 1 0 -0 1.7
2 13.5 -5 112 0 1 0 0 -0 1 1 0 -0 1.7
1 9 -5 106 1 0 -0 
1 18 -5 106 0 0 1 
1 9 -5 118 1 0 -0 
1 -10.5 -0.30000000000000071 106 -1 -0 0 
1 18 -5 106 -0 1 0 
1 18 -0.30000000000000071 103 0 0 1 
1 -10.5 -0.30000000000000071 118 -1 -0 0 
1 -15 -0.30000000000000071 120 -1 -0 0 
1 10.195587280779856 -0.30000000000000071 103.90000000000001 0 0 1 
1 10.195587280779856 -0.30000000000000071 103 0 0 1 
1 10.195587280779856 -0.30000000000000071 103.90000000000001 0 0 1 
1 -15 -0.30000000000000071 104 -1 -0 0 
1 -15 -0.30000000000000071 104 -1 -0 0 
2 0 0 104 0 0 1 1 0 -0 -0 1 0 10.199999999999999
1 -10.195587280779856 -0.30000000000000071 103.90000000000001 0 0 1 
1 -10.195587280779856 -0.30000000000000071 103 0 0 1 
1 -10.195587280779856 -0.30000000000000071 103.90000000000001 0 0 1 
1 -15 -0.30000000000000071 120 -1 -0 0 
1 -24 -0.30000000000000071 118 -1 -0 0 
1 -18 -0.30000000000000071 103 0 0 1 
1 -24 -0.30000000000000071 106 -1 -0 0 
2 -13.5 -0.30000000000000071 112 0 1 0 0 -0 1 1 0 -0 1.7
1 -18 -5 106 1 0 -0 
1 -18 -5 106 -0 1 0 
2 -13.5 -5 112 0 1 0 0 -0 1 1 0 -0 1.7
2 -13.5 -5 112 0 1 0 0 -0 1 1 0 -0 1.7
1 -18 -5 118 1 0 -0 
1 -18 -5 106 0 0 1 
1 -13.500000000000002 -6 113.7 0 1 0 
2 -13.5 -6 112 0 1 0 0 -0 1 1 0 -0 1.7
1 -18 -5 118 -0 1 0 
2 0 0 120 0 0 1 1 0 -0 -0 1 0 10.199999999999999
1 18 -5 118 -0 1 0 
1 9 -4.7999999999999989 103.90000000000001 0 0 1 
2 0 0 106 0 0 1 1 0 -0 -0 1 0 10.199999999999999
2 0 0 106 0 0 1 1 0 -0 -0 1 0 10.199999999999999
1 -9 -4.7999999999999989 103.90000000000001 0 0 1 
2 0 0 118 0 0 1 1 0 -0 -0 1 0 10.199999999999999
2 0 0 118 0 0 1 1 0 -0 -0 1 0 10.199999999999999
Polygon3D 0
PolygonOnTriangulations 0
Surfaces 20
2 0 0 104 0 0 1 1 0 -0 -0 1 0 14
2 13.5 -6 112 0 1 0 0 -0 1 1 0 -0 1.7
1 13.5 -6 112 0 1 0 0 -0 1 1 0 -0 
1 9 -5 106 -0 1 0 0 0 1 1 0 -0 
1 9 -5 106 0 0 1 1 0 -0 -0 1 0 
1 -30 -0.30000000000000071 100 -0 1 0 0 0 1 1 0 -0 
1 0 0 104 0 0 1 1 0 -0 -0 1 0 
1 -30 -0.30000000000000071 100 -0 1 0 0 0 1 1 0 -0 
1 -18 -5 106 0 0 1 1 0 -0 -0 1 0 
1 -18 -5 106 -0 1 0 0 0 1 1 0 -0 
2 -13.5 -6 112 0 1 0 0 -0 1 1 0 -0 1.7
1 -13.5 -6 112 0 1 0 0 -0 1 1 0 -0 
1 -18 -5 118 0 0 1 1 0 -0 -0 1 0 
1 0 0 120 0 0 1 1 0 -0 -0 1 0 
1 9 -5 118 0 0 1 1 0 -0 -0 1 0 
1 18 -5 106 1 0 -0 0 0 1 0 -1 0 
2 0 0 103.90000000000001 0 0 1 1 0 -0 -0 1 0 10.199999999999999
2 0 0 103 0 0 1 1 0 -0 -0 1 0 10.199999999999999
2 0 0 103 0 0 1 1 0 -0 -0 1 0 10.199999999999999
1 -18 -5 106 1 0 -0 0 0 1 0 -1 0 
Triangulations 0

TShapes 153
Ve
1.00000005329071e-07
12.6491106406735 -6 113.471729356297
0 0

0101101
*
Ve
1.20167314343275e-07
13.076696830622 -5 113.646455109256
0 0

0101101
*
Ed
 1e-07 1 1 0
1  1 0 2.77300451824901e-07 0.445692209420521
2  1 1 0 2.77300451824901e-07 0.445692209420521
2  2 2 0 2.77300451824901e-07 0.445692209420521
0

0101000
+153 0 -152 0 *
Ve
1.0000001540932e-07
12.6491106406735 -6 110.528270643703
0 0

0101101
*
Ed
 1e-07 1 1 0
1  2 0 6.52827064370348 9.47172935629652
2  3 1 0 6.52827064370348 9.47172935629652
2  4 3 0 6.52827064370348 9.47172935629652
0

0101000
+150 0 -153 0 *
Ve
1.12001505161235e-07
13.076696830622 -5 110.353544890744
0 0

0101101
*
Ed
 1e-07 1 1 0
1  3 0 0.823837670215276 0.999999890384717
2  5 1 0 0.823837670215276 0.999999890384717
2  6 2 0 0.823837670215276 0.999999890384717
0

0101000
+148 0 -150 0 *
Ve
1.00000010395862e-07
13.076696830622 -5 106
0 0

0101101
*
Ed
 1e-07 1 1 0
1  4 0 2 6.35354489074406
2  7 1 0 2 6.35354489074406
2  8 4 0 2 6.35354489074406
0

0101000
+146 0 -148 0 *
Ve
1.50000001221245e-07
13.9967853452141 -0.300000000000002 106
0 0

0101101
*
Ed
 1e-07 1 1 0
1  5 0 5.91797808588922 6.26175509547037
2  9 1 0 5.91797808588922 6.26175509547037
2  10 5 0 5.91797808588922 6.26175509547037
0

0101000
+146 0 -144 0 *
Ve
1.50000001221245e-07
13.9967853452141 -0.300000000000002 104
0 0

0101101
*
Ed
 1e-07 1 1 0
1  6 0 0 2
2  11 1 0 0 2
2  12 6 0 0 2
0

0101000
+142 0 -144 0 *
Ve
1.50000003885781e-07
-13.9967853452141 -0.299999999999997 104
0 0

0101101
*
Ed
 1e-07 1 1 0
1  7 0 3.16302286529901 6.26175509547037
2  13 1 0 3.16302286529901 6.26175509547037
2  14 7 0 3.16302286529901 6.26175509547037
0

0101000
+140 0 -142 0 *
Ve
1.50000003885781e-07
-13.9967853452141 -0.299999999999997 106
0 0

0101101
*
Ed
 1e-07 1 1 0
1  8 0 0 2
2  15 1 0 0 2
2  16 8 0 0 2
0

0101000
+140 0 -138 0 *
Ve
1.00000002512148e-07
-13.076696830622 -5 106
0 0

0101101
*
Ed
 1e-07 1 1 0
1  9 0 3.16302286529901 3.50679987488016
2  17 1 0 3.16302286529901 3.50679987488016
2  18 9 0 3.16302286529901 3.50679987488016
0

0101000
+138 0 -136 0 *
Ve
1.03067333120781e-07
-13.076696830622 -5 110.353544890744
0 0

0101101
*
Ed
 1e-07 1 1 0
1  10 0 2 6.35354489074406
2  19 1 0 2 6.35354489074406
2  20 10 0 2 6.35354489074406
0

0101000
+136 0 -134 0 *
Ve
1.00849157591187e-07
-12.6491106406735 -6 110.528270643703
0 0

0101101
*
Ed
 1.00849153619132e-07 1 1 0
1  11 0 5.45486358989565e-08 0.0875964675325184
2  21 1 0 5.45486358989565e-08 0.0875964675325184
2  22 11 0 5.45486358989565e-08 0.0875964675325184
0

0101000
+132 0 -134 0 *
Ve
1.00000005329071e-07
-12.6491106406735 -6 113.471729356297
0 0

0101101
*
Ed
 1e-07 1 1 0
1  12 0 6.52827064370348 9.47172935629652
2  23 1 0 6.52827064370348 9.47172935629652
2  24 12 0 6.52827064370348 9.47172935629652
0

0101000
+132 0 -130 0 *
Ve
1.20224779585515e-07
-13.076696830622 -5 113.646455109256
0 0

0101101
*
Ed
 1e-07 1 1 0
1  13 0 0.55430779895545 0.999999722713443
2  25 1 0 0.55430779895545 0.999999722713443
2  26 11 0 0.55430779895545 0.999999722713443
0

0101000
+128 0 -130 0 *
Ve
1.00000002512148e-07
-13.076696830622 -5 118
0 0

0101101
*
Ed
 1e-07 1 1 0
1  14 0 9.64645510925594 14
2  27 1 0 9.64645510925594 14
2  28 10 0 9.64645510925594 14
0

0101000
+128 0 -126 0 *
Ve
1.50000003885781e-07
-13.9967853452141 -0.299999999999997 118
0 0

0101101
*
Ed
 1e-07 1 1 0
1  15 0 3.16302286529901 3.50679987488016
2  29 1 0 3.16302286529901 3.50679987488016
2  30 13 0 3.16302286529901 3.50679987488016
0

0101000
+124 0 -126 0 *
Ve
1.50000003885781e-07
-13.9967853452141 -0.299999999999997 120
0 0

0101101
*
Ed
 1e-07 1 1 0
1  16 0 14 16
2  31 1 0 14 16
2  32 8 0 14 16
0

0101000
+124 0 -122 0 *
Ve
1.50000001221245e-07
13.9967853452141 -0.300000000000002 120
0 0

0101101
*
Ed
 1e-07 1 1 0
1  17 0 3.16302286529901 6.26175509547037
2  33 1 0 3.16302286529901 6.26175509547037
2  34 14 0 3.16302286529901 6.26175509547037
0

0101000
+122 0 -120 0 *
Ve
1.50000001221245e-07
13.9967853452141 -0.300000000000002 118
0 0

0101101
*
Ed
 1e-07 1 1 0
1  18 0 14 16
2  35 1 0 14 16
2  36 6 0 14 16
0

0101000
+118 0 -120 0 *
Ve
1.00000010395862e-07
13.076696830622 -5 118
0 0

0101101
*
Ed
 1e-07 1 1 0
1  19 0 5.91797808588922 6.26175509547037
2  37 1 0 5.91797808588922 6.26175509547037
2  38 15 0 5.91797808588922 6.26175509547037
0

0101000
+116 0 -118 0 *
Ed
 1e-07 1 1 0
1  20 0 9.64645510925594 14
2  39 1 0 9.64645510925594 14
2  40 4 0 9.64645510925594 14
0

0101000
+152 0 -116 0 *
Wi

0101100
+151 0 +149 0 +147 0 +145 0 -143 0 +141 0 +139 0 -137 0 -135 0 -133 0 
+131 0 -129 0 +127 0 -125 0 +123 0 -121 0 -119 0 +117 0 +115 0 +114 0 
*
Fa
0  1e-07 1 0

0101000
+113 0 *
Ve
1.00000001776357e-07
13.5 -0.300000000000001 113.7
0 0

0101101
*
Ed
 1e-07 1 1 0
1  21 0 0 6.28318530717959
2  41 2 0 0 6.28318530717959
2  42 6 0 0 6.28318530717959
0

0101000
+111 0 -111 0 *
Ve
1.00000001776357e-07
13.5 -5 113.7
0 0

0101101
*
Ed
 1e-07 1 1 0
1  22 0 1 5.7
3  43 44CN 2 0 1 5.7
0

0101000
+109 0 -111 0 *
Ed
 1e-07 1 1 0
1  23 0 6.03153578514034 6.28318530717959
2  45 2 0 6.03153578514034 6.28318530717959
2  46 4 0 6.03153578514034 6.28318530717959
0

0101000
+152 0 -109 0 *
Ed
 1e-07 1 1 0
1  24 0 3.66579561912976 5.75898234163962
2  47 2 0 3.66579561912976 5.75898234163962
2  48 3 0 3.66579561912976 5.75898234163962
0

0101000
+150 0 -153 0 *
Ed
 1e-07 1 1 0
1  25 0 0 3.39324217562904
2  49 2 0 0 3.39324217562904
2  50 4 0 0 3.39324217562904
0

0101000
+109 0 -148 0 *
Wi

0101100
-110 0 +108 0 +107 0 +151 0 +106 0 +147 0 +105 0 -108 0 *
Fa
0  1e-07 2 0

0101000
+104 0 *
Wi

0101100
-149 0 +106 0 *
Fa
0  1e-07 3 0

0101000
+102 0 *
Ve
1e-07
18 -5 106
0 0

0101101
*
Ed
 1e-07 1 1 0
1  26 0 4.07669683062202 9
2  51 4 0 4.07669683062202 9
2  52 5 0 4.07669683062202 9
0

0101000
+146 0 -100 0 *
Ve
1e-07
18 -5 118
0 0

0101101
*
Ed
 1e-07 1 1 0
1  27 0 0 12
2  53 4 0 0 12
2  54 16 0 0 12
0

0101000
-98 0 +100 0 *
Ed
 1e-07 1 1 0
1  28 0 4.07669683062202 9
2  55 4 0 4.07669683062202 9
2  56 15 0 4.07669683062202 9
0

0101000
+116 0 -98 0 *
Wi

0101100
-99 0 -97 0 +96 0 +114 0 -107 0 -105 0 +145 0 *
Fa
0  1e-07 4 0

0101000
+95 0 *
Ve
1.5e-07
18 -0.300000000000001 106
0 0

0101101
*
Ed
 1.5e-07 1 1 0
1  29 0 -28.5 -24.4967853452141
2  57 5 0 -28.5 -24.4967853452141
2  58 6 0 -28.5 -24.4967853452141
0

0101000
+93 0 -144 0 *
Ed
 1e-07 1 1 0
1  30 0 0 4.7
2  59 5 0 0 4.7
2  60 16 0 0 4.7
0

0101000
+100 0 -93 0 *
Wi

0101100
-143 0 +92 0 +91 0 +99 0 *
Fa
0  1e-07 5 0

0101000
+90 0 *
Ve
1.5e-07
18 -0.300000000000001 118
0 0

0101101
*
Ed
 1.5e-07 1 1 0
1  31 0 3 15
2  61 6 0 3 15
2  62 16 0 3 15
0

0101000
+93 0 -88 0 *
Ed
 1.5e-07 1 1 0
1  32 0 -28.5 -24.4967853452141
2  63 6 0 -28.5 -24.4967853452141
2  64 15 0 -28.5 -24.4967853452141
0

0101000
+88 0 -118 0 *
Ve
1.50000002551702e-07
10.1955872807799 -0.299999999999999 120
0 0

0101101
*
Ed
 1.5e-07 1 1 0
1  33 0 -28.9967853452141 -25.1955872807799
2  65 6 0 -28.9967853452141 -25.1955872807799
2  66 14 0 -28.9967853452141 -25.1955872807799
0

0101000
+120 0 -85 0 *
Ve
1.00000009048318e-07
10.1955872807799 -0.299999999999999 118
0 0

0101101
*
Ed
 1e-07 1 1 0
1  34 0 14.1 16.1
2  67 6 0 14.1 16.1
2  68 17 0 14.1 16.1
0

0101000
+83 0 -85 0 *
Ve
1.00000009048318e-07
10.1955872807799 -0.299999999999999 106
0 0

0101101
*
Ed
 1e-07 1 1 0
1  35 0 3 15
2  69 6 0 3 15
2  70 18 0 3 15
0

0101000
+81 0 -83 0 *
Ve
1.50000002551702e-07
10.1955872807799 -0.299999999999999 104
0 0

0101101
*
Ed
 1e-07 1 1 0
1  36 0 0.0999999999999943 2.09999999999999
2  71 6 0 0.0999999999999943 2.09999999999999
2  72 17 0 0.0999999999999943 2.09999999999999
0

0101000
+79 0 -81 0 *
Ed
 1.5e-07 1 1 0
1  37 0 -28.9967853452141 -25.1955872807799
2  73 6 0 -28.9967853452141 -25.1955872807799
2  74 7 0 -28.9967853452141 -25.1955872807799
0

0101000
+142 0 -79 0 *
Wi

0101100
-141 0 +92 0 -87 0 -86 0 -117 0 -84 0 +82 0 +80 0 +78 0 +77 0 
*
Wi

0101100
-110 0 *
Fa
0  1e-07 6 0

0101000
+76 0 +75 0 *
Ve
1.50000001054712e-07
-10.1955872807799 -0.3 104
0 0

0101101
*
Ed
 1.5e-07 1 1 0
1  38 0 -4.80441271922014 -1.00321465478591
2  75 7 0 -4.80441271922014 -1.00321465478591
2  76 8 0 -4.80441271922014 -1.00321465478591
0

0101000
+73 0 -140 0 *
Ed
 1.00000008747543e-07 1 1 0
1  39 0 3.17100866039773 6.25376930037165
2  77 7 0 3.17100866039773 6.25376930037165
2  78 17 0 3.17100866039773 6.25376930037165
0

0101000
+73 0 -79 0 *
Wi

0101100
+72 0 -71 0 +77 0 +139 0 *
Fa
0  1e-07 7 0

0101000
+70 0 *
Ve
1.00000001054712e-07
-10.1955872807799 -0.3 106
0 0

0101101
*
Ed
 1e-07 1 1 0
1  40 0 0.0999999999999943 2.09999999999999
2  79 8 0 0.0999999999999943 2.09999999999999
2  80 17 0 0.0999999999999943 2.09999999999999
0

0101000
+73 0 -68 0 *
Ve
1.00000001054712e-07
-10.1955872807799 -0.3 118
0 0

0101101
*
Ed
 1e-07 1 1 0
1  41 0 3 15
2  81 8 0 3 15
2  82 19 0 3 15
0

0101000
+68 0 -66 0 *
Ve
1.50000001054712e-07
-10.1955872807799 -0.3 120
0 0

0101101
*
Ed
 1e-07 1 1 0
1  42 0 14.1 16.1
2  83 8 0 14.1 16.1
2  84 17 0 14.1 16.1
0

0101000
+66 0 -64 0 *
Ed
 1.5e-07 1 1 0
1  43 0 -4.80441271922014 -1.00321465478591
2  85 8 0 -4.80441271922014 -1.00321465478591
2  86 14 0 -4.80441271922014 -1.00321465478591
0

0101000
+64 0 -122 0 *
Ve
1.5e-07
-18 -0.300000000000001 118
0 0

0101101
*
Ed
 1.5e-07 1 1 0
1  44 0 -10.0032146547859 -6
2  87 8 0 -10.0032146547859 -6
2  88 13 0 -10.0032146547859 -6
0

0101000
+124 0 -61 0 *
Ve
1.5e-07
-18 -0.300000000000001 106
0 0

0101101
*
Ed
 1.5e-07 1 1 0
1  45 0 3 15
2  89 8 0 3 15
2  90 20 0 3 15
0

0101000
+59 0 -61 0 *
Ed
 1.5e-07 1 1 0
1  46 0 -10.0032146547859 -6
2  91 8 0 -10.0032146547859 -6
2  92 9 0 -10.0032146547859 -6
0

0101000
+138 0 -59 0 *
Wi

0101100
+72 0 -67 0 -65 0 -63 0 -62 0 +121 0 -60 0 +58 0 +57 0 +137 0 
*
Ve
1.00000001776357e-07
-13.5 -0.300000000000001 113.7
0 0

0101101
*
Ed
 1e-07 1 1 0
1  47 0 0 6.28318530717959
2  93 8 0 0 6.28318530717959
2  94 11 0 0 6.28318530717959
0

0101000
+55 0 -55 0 *
Wi

0101100
-54 0 *
Fa
0  1e-07 8 0

0101000
+56 0 +53 0 *
Ve
1e-07
-18 -5 106
0 0

0101101
*
Ed
 1e-07 1 1 0
1  48 0 0 4.92330316937798
2  95 9 0 0 4.92330316937798
2  96 10 0 0 4.92330316937798
0

0101000
+51 0 -136 0 *
Ed
 1e-07 1 1 0
1  49 0 0 4.7
2  97 9 0 0 4.7
2  98 20 0 0 4.7
0

0101000
+51 0 -59 0 *
Wi

0101100
+57 0 -135 0 +50 0 -49 0 *
Fa
0  1e-07 9 0

0101000
+48 0 *
Ve
1.00000001776357e-07
-13.5 -5 113.7
0 0

0101101
*
Ed
 1e-07 1 1 0
1  50 0 2.88994313155055 6.28318530717959
2  99 10 0 2.88994313155055 6.28318530717959
2  100 11 0 2.88994313155055 6.28318530717959
0

0101000
+134 0 -46 0 *
Ed
 1e-07 1 1 0
1  51 0 0 0.251649522039244
2  101 10 0 0 0.251649522039244
2  102 11 0 0 0.251649522039244
0

0101000
+46 0 -128 0 *
Ve
1e-07
-18 -5 118
0 0

0101101
*
Ed
 1e-07 1 1 0
1  52 0 0 4.92330316937798
2  103 10 0 0 4.92330316937798
2  104 13 0 0 4.92330316937798
0

0101000
+43 0 -126 0 *
Ed
 1e-07 1 1 0
1  53 0 0 12
2  105 10 0 0 12
2  106 20 0 0 12
0

0101000
-43 0 +51 0 *
Wi

0101100
-50 0 -133 0 -45 0 -44 0 -125 0 +42 0 +41 0 *
Fa
0  1e-07 10 0

0101000
+40 0 *
Ed
 1e-07 1 1 0
1  54 0 1 5.7
3  107 108CN 11 0 1 5.7
0

0101000
+46 0 -55 0 *
Ed
 1e-07 1 1 0
1  55 0 0.524202965539963 2.61738968804983
2  109 11 0 0.524202965539963 2.61738968804983
2  110 12 0 0.524202965539963 2.61738968804983
0

0101000
+130 0 -132 0 *
Wi

0101100
-54 0 +38 0 +45 0 +131 0 +37 0 +127 0 +44 0 -38 0 *
Fa
0  1e-07 11 0

0101000
+36 0 *
Wi

0101100
+129 0 +37 0 *
Fa
0  1e-07 12 0

0101000
+34 0 *
Ed
 1e-07 1 1 0
1  56 0 0 4.7
2  111 13 0 0 4.7
2  112 20 0 0 4.7
0

0101000
+43 0 -61 0 *
Wi

0101100
+60 0 -123 0 +42 0 -32 0 *
Fa
0  1e-07 13 0

0101000
+31 0 *
Ed
 1.00000008747543e-07 1 1 0
1  57 0 3.17100866039773 6.25376930037165
2  113 14 0 3.17100866039773 6.25376930037165
2  114 17 0 3.17100866039773 6.25376930037165
0

0101000
+64 0 -85 0 *
Wi

0101100
+62 0 -29 0 +84 0 +119 0 *
Fa
0  1e-07 14 0

0101000
+28 0 *
Ed
 1e-07 1 1 0
1  58 0 0 4.7
2  115 15 0 0 4.7
2  116 16 0 0 4.7
0

0101000
+98 0 -88 0 *
Wi

0101100
-115 0 +86 0 +26 0 +96 0 *
Fa
0  1e-07 15 0

0101000
+25 0 *
Wi

0101100
-26 0 +87 0 +91 0 -97 0 *
Fa
0  1e-07 16 0

0101000
+23 0 *
Ve
1.00000004782987e-07
9 -4.8 106
0 0

0101101
*
Ve
1.00000004782987e-07
9 -4.8 118
0 0

0101101
*
Ed
 1.00000004782987e-07 1 1 0
1  59 0 2.09999999999999 14.1
2  117 17 0 2.09999999999999 14.1
2  118 18 0 2.09999999999999 14.1
0

0101000
+21 0 -20 0 *
Ed
 1e-07 1 1 0
1  60 0 5.79322798092586 6.25376930037165
2  119 17 0 5.79322798092586 6.25376930037165
2  120 18 0 5.79322798092586 6.25376930037165
0

0101000
+21 0 -81 0 *
Ve
1.00000010357851e-07
-9 -4.8 106
0 0

0101101
*
Ed
 1e-07 1 1 0
1  61 0 3.17100866039773 3.63154997984352
2  121 17 0 3.17100866039773 3.63154997984352
2  122 19 0 3.17100866039773 3.63154997984352
0

0101000
+68 0 -17 0 *
Ve
1.00000010357851e-07
-9 -4.8 118
0 0

0101101
*
Ed
 1.00000001986027e-07 1 1 0
1  62 0 2.09999999999999 14.1
2  123 17 0 2.09999999999999 14.1
2  124 19 0 2.09999999999999 14.1
0

0101000
+17 0 -15 0 *
Ed
 1e-07 1 1 0
1  63 0 3.17100866039773 3.63154997984352
2  125 17 0 3.17100866039773 3.63154997984352
2  126 19 0 3.17100866039773 3.63154997984352
0

0101000
+66 0 -15 0 *
Ed
 1e-07 1 1 0
1  64 0 5.79322798092586 6.25376930037165
2  127 17 0 5.79322798092586 6.25376930037165
2  128 18 0 5.79322798092586 6.25376930037165
0

0101000
+20 0 -83 0 *
Wi

0101100
+19 0 -18 0 +78 0 +71 0 -67 0 -16 0 -14 0 +13 0 -63 0 -29 0 
+82 0 +12 0 *
Fa
0  1e-07 17 0

0101000
+11 0 *
Wi

0101100
+18 0 -19 0 -12 0 +80 0 *
Fa
0  1e-07 18 0

0101000
+9 0 *
Wi

0101100
-65 0 -13 0 +14 0 +16 0 *
Fa
0  1e-07 19 0

0101000
+7 0 *
Wi

0101100
-32 0 +58 0 +49 0 -41 0 *
Fa
0  1e-07 20 0

0101000
+5 0 *
Sh

0101100
+112 0 -103 0 +101 0 -94 0 -89 0 +74 0 -69 0 +52 0 -47 0 -39 0 
-35 0 +33 0 +30 0 +27 0 +24 0 +22 0 -10 0 -8 0 -6 0 -4 0 
*
So

0100000
+3 0 *
Co

0100000
+2 0 *

+1 1 