ISO-10303-21;
HEADER;
FILE_DESCRIPTION(('FreeCAD Model'),'2;1');
FILE_NAME('Open CASCADE Shape Model','2026-09-22T15:14:12',('FreeCAD'),(
    'FreeCAD'),'Open CASCADE STEP processor 7.8','FreeCAD','Unknown');
FILE_SCHEMA(('AUTOMOTIVE_DESIGN { 1 0 10303 214 1 1 1 1 }'));
ENDSEC;
DATA;
#1 = APPLICATION_PROTOCOL_DEFINITION('international standard',
  'automotive_design',2000,#2);
#2 = APPLICATION_CONTEXT(
  'core data for automotive mechanical design processes');
#3 = SHAPE_DEFINITION_REPRESENTATION(#4,#10);
#4 = PRODUCT_DEFINITION_SHAPE('','',#5);
#5 = PRODUCT_DEFINITION('design','',#6,#9);
#6 = PRODUCT_DEFINITION_FORMATION('','',#7);
#7 = PRODUCT('Open CASCADE STEP translator 7.8 1',
  'Open CASCADE STEP translator 7.8 1','',(#8));
#8 = PRODUCT_CONTEXT('',#2,'mechanical');
#9 = PRODUCT_DEFINITION_CONTEXT('part definition',#2,'design');
#10 = ADVANCED_BREP_SHAPE_REPRESENTATION('',(#11,#15),#639);
#11 = AXIS2_PLACEMENT_3D('',#12,#13,#14);
#12 = CARTESIAN_POINT('',(0.,0.,0.));
#13 = DIRECTION('',(0.,0.,1.));
#14 = DIRECTION('',(1.,0.,-0.));
#15 = MANIFOLD_SOLID_BREP('',#16);
#16 = CLOSED_SHELL('',(#17,#91,#133,#173,#197,#231,#266,#297,#330,#369,
    #394,#411,#437,#462,#489,#532,#575,#587,#624));
#17 = ADVANCED_FACE('',(#18),#86,.T.);
#18 = FACE_BOUND('',#19,.T.);
#19 = EDGE_LOOP('',(#20,#30,#38,#46,#55,#63,#72,#80));
#20 = ORIENTED_EDGE('',*,*,#21,.F.);
#21 = EDGE_CURVE('',#22,#24,#26,.T.);
#22 = VERTEX_POINT('',#23);
#23 = CARTESIAN_POINT('',(80.,2.,86.));
#24 = VERTEX_POINT('',#25);
#25 = CARTESIAN_POINT('',(56.,2.,86.));
#26 = LINE('',#27,#28);
#27 = CARTESIAN_POINT('',(80.,2.,86.));
#28 = VECTOR('',#29,1.);
#29 = DIRECTION('',(-1.,0.,0.));
#30 = ORIENTED_EDGE('',*,*,#31,.T.);
#31 = EDGE_CURVE('',#22,#32,#34,.T.);
#32 = VERTEX_POINT('',#33);
#33 = CARTESIAN_POINT('',(80.,8.,86.));
#34 = LINE('',#35,#36);
#35 = CARTESIAN_POINT('',(80.,2.,86.));
#36 = VECTOR('',#37,1.);
#37 = DIRECTION('',(0.,1.,-2.210223024625E-16));
#38 = ORIENTED_EDGE('',*,*,#39,.T.);
#39 = EDGE_CURVE('',#32,#40,#42,.T.);
#40 = VERTEX_POINT('',#41);
#41 = CARTESIAN_POINT('',(78.497999199359,8.,86.));
#42 = LINE('',#43,#44);
#43 = CARTESIAN_POINT('',(80.,8.,86.));
#44 = VECTOR('',#45,1.);
#45 = DIRECTION('',(-1.,0.,0.));
#46 = ORIENTED_EDGE('',*,*,#47,.F.);
#47 = EDGE_CURVE('',#48,#40,#50,.T.);
#48 = VERTEX_POINT('',#49);
#49 = CARTESIAN_POINT('',(73.502000800641,8.,86.));
#50 = CIRCLE('',#51,3.2);
#51 = AXIS2_PLACEMENT_3D('',#52,#53,#54);
#52 = CARTESIAN_POINT('',(76.,10.,86.));
#53 = DIRECTION('',(-0.,1.110223024625E-16,1.));
#54 = DIRECTION('',(1.,0.,0.));
#55 = ORIENTED_EDGE('',*,*,#56,.T.);
#56 = EDGE_CURVE('',#48,#57,#59,.T.);
#57 = VERTEX_POINT('',#58);
#58 = CARTESIAN_POINT('',(62.497999199359,8.,86.));
#59 = LINE('',#60,#61);
#60 = CARTESIAN_POINT('',(80.,8.,86.));
#61 = VECTOR('',#62,1.);
#62 = DIRECTION('',(-1.,0.,0.));
#63 = ORIENTED_EDGE('',*,*,#64,.F.);
#64 = EDGE_CURVE('',#65,#57,#67,.T.);
#65 = VERTEX_POINT('',#66);
#66 = CARTESIAN_POINT('',(57.502000800641,8.,86.));
#67 = CIRCLE('',#68,3.2);
#68 = AXIS2_PLACEMENT_3D('',#69,#70,#71);
#69 = CARTESIAN_POINT('',(60.,10.,86.));
#70 = DIRECTION('',(-0.,1.110223024625E-16,1.));
#71 = DIRECTION('',(1.,0.,0.));
#72 = ORIENTED_EDGE('',*,*,#73,.T.);
#73 = EDGE_CURVE('',#65,#74,#76,.T.);
#74 = VERTEX_POINT('',#75);
#75 = CARTESIAN_POINT('',(56.,8.,86.));
#76 = LINE('',#77,#78);
#77 = CARTESIAN_POINT('',(80.,8.,86.));
#78 = VECTOR('',#79,1.);
#79 = DIRECTION('',(-1.,0.,0.));
#80 = ORIENTED_EDGE('',*,*,#81,.F.);
#81 = EDGE_CURVE('',#24,#74,#82,.T.);
#82 = LINE('',#83,#84);
#83 = CARTESIAN_POINT('',(56.,2.,86.));
#84 = VECTOR('',#85,1.);
#85 = DIRECTION('',(0.,1.,-2.210223024625E-16));
#86 = PLANE('',#87);
#87 = AXIS2_PLACEMENT_3D('',#88,#89,#90);
#88 = CARTESIAN_POINT('',(80.,2.,86.));
#89 = DIRECTION('',(0.,2.210223024625E-16,1.));
#90 = DIRECTION('',(-1.,0.,0.));
#91 = ADVANCED_FACE('',(#92,#117),#128,.T.);
#92 = FACE_BOUND('',#93,.T.);
#93 = EDGE_LOOP('',(#94,#104,#110,#111));
#94 = ORIENTED_EDGE('',*,*,#95,.T.);
#95 = EDGE_CURVE('',#96,#98,#100,.T.);
#96 = VERTEX_POINT('',#97);
#97 = CARTESIAN_POINT('',(56.,2.,58.));
#98 = VERTEX_POINT('',#99);
#99 = CARTESIAN_POINT('',(80.,2.,58.));
#100 = LINE('',#101,#102);
#101 = CARTESIAN_POINT('',(56.,2.,58.));
#102 = VECTOR('',#103,1.);
#103 = DIRECTION('',(1.,0.,0.));
#104 = ORIENTED_EDGE('',*,*,#105,.T.);
#105 = EDGE_CURVE('',#98,#22,#106,.T.);
#106 = LINE('',#107,#108);
#107 = CARTESIAN_POINT('',(80.,2.,58.));
#108 = VECTOR('',#109,1.);
#109 = DIRECTION('',(0.,3.310223024625E-16,1.));
#110 = ORIENTED_EDGE('',*,*,#21,.T.);
#111 = ORIENTED_EDGE('',*,*,#112,.T.);
#112 = EDGE_CURVE('',#24,#96,#113,.T.);
#113 = LINE('',#114,#115);
#114 = CARTESIAN_POINT('',(56.,2.,86.));
#115 = VECTOR('',#116,1.);
#116 = DIRECTION('',(0.,-2.210223024625E-16,-1.));
#117 = FACE_BOUND('',#118,.T.);
#118 = EDGE_LOOP('',(#119));
#119 = ORIENTED_EDGE('',*,*,#120,.T.);
#120 = EDGE_CURVE('',#121,#121,#123,.T.);
#121 = VERTEX_POINT('',#122);
#122 = CARTESIAN_POINT('',(71.5,2.,78.));
#123 = CIRCLE('',#124,3.5);
#124 = AXIS2_PLACEMENT_3D('',#125,#126,#127);
#125 = CARTESIAN_POINT('',(68.,2.,78.));
#126 = DIRECTION('',(0.,1.,-2.210223024625E-16));
#127 = DIRECTION('',(1.,0.,0.));
#128 = PLANE('',#129);
#129 = AXIS2_PLACEMENT_3D('',#130,#131,#132);
#130 = CARTESIAN_POINT('',(68.,2.,72.));
#131 = DIRECTION('',(0.,-1.,1.110223024625E-16));
#132 = DIRECTION('',(1.,0.,0.));
#133 = ADVANCED_FACE('',(#134),#168,.T.);
#134 = FACE_BOUND('',#135,.T.);
#135 = EDGE_LOOP('',(#136,#137,#138,#146,#154,#162));
#136 = ORIENTED_EDGE('',*,*,#112,.F.);
#137 = ORIENTED_EDGE('',*,*,#81,.T.);
#138 = ORIENTED_EDGE('',*,*,#139,.T.);
#139 = EDGE_CURVE('',#74,#140,#142,.T.);
#140 = VERTEX_POINT('',#141);
#141 = CARTESIAN_POINT('',(56.,8.,80.));
#142 = LINE('',#143,#144);
#143 = CARTESIAN_POINT('',(56.,8.,86.));
#144 = VECTOR('',#145,1.);
#145 = DIRECTION('',(0.,-1.110223024625E-16,-1.));
#146 = ORIENTED_EDGE('',*,*,#147,.F.);
#147 = EDGE_CURVE('',#148,#140,#150,.T.);
#148 = VERTEX_POINT('',#149);
#149 = CARTESIAN_POINT('',(56.,13.,62.));
#150 = LINE('',#151,#152);
#151 = CARTESIAN_POINT('',(56.,13.,62.));
#152 = VECTOR('',#153,1.);
#153 = DIRECTION('',(0.,-0.267643863786,0.96351790963));
#154 = ORIENTED_EDGE('',*,*,#155,.T.);
#155 = EDGE_CURVE('',#148,#156,#158,.T.);
#156 = VERTEX_POINT('',#157);
#157 = CARTESIAN_POINT('',(56.,13.,58.));
#158 = LINE('',#159,#160);
#159 = CARTESIAN_POINT('',(56.,13.,62.));
#160 = VECTOR('',#161,1.);
#161 = DIRECTION('',(0.,-1.110223024625E-16,-1.));
#162 = ORIENTED_EDGE('',*,*,#163,.F.);
#163 = EDGE_CURVE('',#96,#156,#164,.T.);
#164 = LINE('',#165,#166);
#165 = CARTESIAN_POINT('',(56.,2.,58.));
#166 = VECTOR('',#167,1.);
#167 = DIRECTION('',(0.,1.,-3.310223024625E-16));
#168 = PLANE('',#169);
#169 = AXIS2_PLACEMENT_3D('',#170,#171,#172);
#170 = CARTESIAN_POINT('',(56.,6.306276675228,71.040715760435));
#171 = DIRECTION('',(-1.,-3.7E-16,4.107825191113E-32));
#172 = DIRECTION('',(-3.7E-16,1.,-1.110223024625E-16));
#173 = ADVANCED_FACE('',(#174),#192,.T.);
#174 = FACE_BOUND('',#175,.T.);
#175 = EDGE_LOOP('',(#176,#177,#185,#191));
#176 = ORIENTED_EDGE('',*,*,#73,.F.);
#177 = ORIENTED_EDGE('',*,*,#178,.F.);
#178 = EDGE_CURVE('',#179,#65,#181,.T.);
#179 = VERTEX_POINT('',#180);
#180 = CARTESIAN_POINT('',(57.502000800641,8.,80.));
#181 = LINE('',#182,#183);
#182 = CARTESIAN_POINT('',(57.502000800641,8.,86.));
#183 = VECTOR('',#184,1.);
#184 = DIRECTION('',(0.,1.110223024625E-16,1.));
#185 = ORIENTED_EDGE('',*,*,#186,.F.);
#186 = EDGE_CURVE('',#140,#179,#187,.T.);
#187 = LINE('',#188,#189);
#188 = CARTESIAN_POINT('',(56.,8.,80.));
#189 = VECTOR('',#190,1.);
#190 = DIRECTION('',(1.,-1.1E-16,1.1E-16));
#191 = ORIENTED_EDGE('',*,*,#139,.F.);
#192 = PLANE('',#193);
#193 = AXIS2_PLACEMENT_3D('',#194,#195,#196);
#194 = CARTESIAN_POINT('',(68.,8.,72.));
#195 = DIRECTION('',(0.,1.,-1.110223024625E-16));
#196 = DIRECTION('',(0.,1.110223024625E-16,1.));
#197 = ADVANCED_FACE('',(#198),#226,.F.);
#198 = FACE_BOUND('',#199,.F.);
#199 = EDGE_LOOP('',(#200,#201,#202,#211,#220));
#200 = ORIENTED_EDGE('',*,*,#64,.F.);
#201 = ORIENTED_EDGE('',*,*,#178,.F.);
#202 = ORIENTED_EDGE('',*,*,#203,.T.);
#203 = EDGE_CURVE('',#179,#204,#206,.T.);
#204 = VERTEX_POINT('',#205);
#205 = CARTESIAN_POINT('',(58.886447127434,13.,62.));
#206 = ELLIPSE('',#207,11.956186683052,3.2);
#207 = AXIS2_PLACEMENT_3D('',#208,#209,#210);
#208 = CARTESIAN_POINT('',(60.,10.,72.8));
#209 = DIRECTION('',(-8.E-17,-0.96351790963,-0.267643863786));
#210 = DIRECTION('',(-2.222222222222E-17,-0.267643863786,0.96351790963)
  );
#211 = ORIENTED_EDGE('',*,*,#212,.T.);
#212 = EDGE_CURVE('',#204,#213,#215,.T.);
#213 = VERTEX_POINT('',#214);
#214 = CARTESIAN_POINT('',(62.497999199359,8.,62.));
#215 = CIRCLE('',#216,3.2);
#216 = AXIS2_PLACEMENT_3D('',#217,#218,#219);
#217 = CARTESIAN_POINT('',(60.,10.,62.));
#218 = DIRECTION('',(-0.,1.110223024625E-16,1.));
#219 = DIRECTION('',(1.,0.,0.));
#220 = ORIENTED_EDGE('',*,*,#221,.T.);
#221 = EDGE_CURVE('',#213,#57,#222,.T.);
#222 = LINE('',#223,#224);
#223 = CARTESIAN_POINT('',(62.497999199359,8.,86.));
#224 = VECTOR('',#225,1.);
#225 = DIRECTION('',(0.,1.110223024625E-16,1.));
#226 = CYLINDRICAL_SURFACE('',#227,3.2);
#227 = AXIS2_PLACEMENT_3D('',#228,#229,#230);
#228 = CARTESIAN_POINT('',(60.,10.,86.));
#229 = DIRECTION('',(0.,1.110223024625E-16,1.));
#230 = DIRECTION('',(1.,0.,0.));
#231 = ADVANCED_FACE('',(#232,#250),#261,.T.);
#232 = FACE_BOUND('',#233,.T.);
#233 = EDGE_LOOP('',(#234,#235,#243,#249));
#234 = ORIENTED_EDGE('',*,*,#56,.F.);
#235 = ORIENTED_EDGE('',*,*,#236,.F.);
#236 = EDGE_CURVE('',#237,#48,#239,.T.);
#237 = VERTEX_POINT('',#238);
#238 = CARTESIAN_POINT('',(73.502000800641,8.,62.));
#239 = LINE('',#240,#241);
#240 = CARTESIAN_POINT('',(73.502000800641,8.,86.));
#241 = VECTOR('',#242,1.);
#242 = DIRECTION('',(0.,1.110223024625E-16,1.));
#243 = ORIENTED_EDGE('',*,*,#244,.T.);
#244 = EDGE_CURVE('',#237,#213,#245,.T.);
#245 = LINE('',#246,#247);
#246 = CARTESIAN_POINT('',(74.,8.,62.));
#247 = VECTOR('',#248,1.);
#248 = DIRECTION('',(-1.,0.,0.));
#249 = ORIENTED_EDGE('',*,*,#221,.T.);
#250 = FACE_BOUND('',#251,.T.);
#251 = EDGE_LOOP('',(#252));
#252 = ORIENTED_EDGE('',*,*,#253,.T.);
#253 = EDGE_CURVE('',#254,#254,#256,.T.);
#254 = VERTEX_POINT('',#255);
#255 = CARTESIAN_POINT('',(73.5,8.,78.));
#256 = CIRCLE('',#257,5.5);
#257 = AXIS2_PLACEMENT_3D('',#258,#259,#260);
#258 = CARTESIAN_POINT('',(68.,8.,78.));
#259 = DIRECTION('',(0.,-1.,1.110223024625E-16));
#260 = DIRECTION('',(1.,0.,0.));
#261 = PLANE('',#262);
#262 = AXIS2_PLACEMENT_3D('',#263,#264,#265);
#263 = CARTESIAN_POINT('',(68.,8.,72.));
#264 = DIRECTION('',(0.,1.,-1.110223024625E-16));
#265 = DIRECTION('',(0.,1.110223024625E-16,1.));
#266 = ADVANCED_FACE('',(#267),#292,.T.);
#267 = FACE_BOUND('',#268,.T.);
#268 = EDGE_LOOP('',(#269,#277,#285,#291));
#269 = ORIENTED_EDGE('',*,*,#270,.F.);
#270 = EDGE_CURVE('',#271,#32,#273,.T.);
#271 = VERTEX_POINT('',#272);
#272 = CARTESIAN_POINT('',(80.,8.,80.));
#273 = LINE('',#274,#275);
#274 = CARTESIAN_POINT('',(80.,8.,58.));
#275 = VECTOR('',#276,1.);
#276 = DIRECTION('',(0.,1.110223024625E-16,1.));
#277 = ORIENTED_EDGE('',*,*,#278,.F.);
#278 = EDGE_CURVE('',#279,#271,#281,.T.);
#279 = VERTEX_POINT('',#280);
#280 = CARTESIAN_POINT('',(78.497999199359,8.,80.));
#281 = LINE('',#282,#283);
#282 = CARTESIAN_POINT('',(76.,8.,80.));
#283 = VECTOR('',#284,1.);
#284 = DIRECTION('',(1.,-1.1E-16,1.1E-16));
#285 = ORIENTED_EDGE('',*,*,#286,.T.);
#286 = EDGE_CURVE('',#279,#40,#287,.T.);
#287 = LINE('',#288,#289);
#288 = CARTESIAN_POINT('',(78.497999199359,8.,86.));
#289 = VECTOR('',#290,1.);
#290 = DIRECTION('',(0.,1.110223024625E-16,1.));
#291 = ORIENTED_EDGE('',*,*,#39,.F.);
#292 = PLANE('',#293);
#293 = AXIS2_PLACEMENT_3D('',#294,#295,#296);
#294 = CARTESIAN_POINT('',(68.,8.,72.));
#295 = DIRECTION('',(0.,1.,-1.110223024625E-16));
#296 = DIRECTION('',(0.,1.110223024625E-16,1.));
#297 = ADVANCED_FACE('',(#298),#325,.T.);
#298 = FACE_BOUND('',#299,.T.);
#299 = EDGE_LOOP('',(#300,#301,#309,#317,#323,#324));
#300 = ORIENTED_EDGE('',*,*,#105,.F.);
#301 = ORIENTED_EDGE('',*,*,#302,.T.);
#302 = EDGE_CURVE('',#98,#303,#305,.T.);
#303 = VERTEX_POINT('',#304);
#304 = CARTESIAN_POINT('',(80.,13.,58.));
#305 = LINE('',#306,#307);
#306 = CARTESIAN_POINT('',(80.,2.,58.));
#307 = VECTOR('',#308,1.);
#308 = DIRECTION('',(0.,1.,-3.310223024625E-16));
#309 = ORIENTED_EDGE('',*,*,#310,.T.);
#310 = EDGE_CURVE('',#303,#311,#313,.T.);
#311 = VERTEX_POINT('',#312);
#312 = CARTESIAN_POINT('',(80.,13.,62.));
#313 = LINE('',#314,#315);
#314 = CARTESIAN_POINT('',(80.,13.,58.));
#315 = VECTOR('',#316,1.);
#316 = DIRECTION('',(0.,1.110223024625E-16,1.));
#317 = ORIENTED_EDGE('',*,*,#318,.T.);
#318 = EDGE_CURVE('',#311,#271,#319,.T.);
#319 = LINE('',#320,#321);
#320 = CARTESIAN_POINT('',(80.,13.,62.));
#321 = VECTOR('',#322,1.);
#322 = DIRECTION('',(0.,-0.267643863786,0.96351790963));
#323 = ORIENTED_EDGE('',*,*,#270,.T.);
#324 = ORIENTED_EDGE('',*,*,#31,.F.);
#325 = PLANE('',#326);
#326 = AXIS2_PLACEMENT_3D('',#327,#328,#329);
#327 = CARTESIAN_POINT('',(80.,6.306276675228,71.040715760435));
#328 = DIRECTION('',(1.,0.,0.));
#329 = DIRECTION('',(0.,-1.,1.110223024625E-16));
#330 = ADVANCED_FACE('',(#331,#342,#353),#364,.T.);
#331 = FACE_BOUND('',#332,.T.);
#332 = EDGE_LOOP('',(#333,#334,#335,#341));
#333 = ORIENTED_EDGE('',*,*,#95,.F.);
#334 = ORIENTED_EDGE('',*,*,#163,.T.);
#335 = ORIENTED_EDGE('',*,*,#336,.T.);
#336 = EDGE_CURVE('',#156,#303,#337,.T.);
#337 = LINE('',#338,#339);
#338 = CARTESIAN_POINT('',(56.,13.,58.));
#339 = VECTOR('',#340,1.);
#340 = DIRECTION('',(1.,0.,0.));
#341 = ORIENTED_EDGE('',*,*,#302,.F.);
#342 = FACE_BOUND('',#343,.T.);
#343 = EDGE_LOOP('',(#344));
#344 = ORIENTED_EDGE('',*,*,#345,.T.);
#345 = EDGE_CURVE('',#346,#346,#348,.T.);
#346 = VERTEX_POINT('',#347);
#347 = CARTESIAN_POINT('',(61.8,10.,58.));
#348 = CIRCLE('',#349,1.8);
#349 = AXIS2_PLACEMENT_3D('',#350,#351,#352);
#350 = CARTESIAN_POINT('',(60.,10.,58.));
#351 = DIRECTION('',(-0.,1.110223024625E-16,1.));
#352 = DIRECTION('',(1.,0.,0.));
#353 = FACE_BOUND('',#354,.T.);
#354 = EDGE_LOOP('',(#355));
#355 = ORIENTED_EDGE('',*,*,#356,.T.);
#356 = EDGE_CURVE('',#357,#357,#359,.T.);
#357 = VERTEX_POINT('',#358);
#358 = CARTESIAN_POINT('',(77.8,10.,58.));
#359 = CIRCLE('',#360,1.8);
#360 = AXIS2_PLACEMENT_3D('',#361,#362,#363);
#361 = CARTESIAN_POINT('',(76.,10.,58.));
#362 = DIRECTION('',(-0.,1.110223024625E-16,1.));
#363 = DIRECTION('',(1.,0.,0.));
#364 = PLANE('',#365);
#365 = AXIS2_PLACEMENT_3D('',#366,#367,#368);
#366 = CARTESIAN_POINT('',(68.,7.5,58.));
#367 = DIRECTION('',(-0.,-1.110223024625E-16,-1.));
#368 = DIRECTION('',(0.,1.,-1.110223024625E-16));
#369 = ADVANCED_FACE('',(#370),#389,.F.);
#370 = FACE_BOUND('',#371,.T.);
#371 = EDGE_LOOP('',(#372,#381,#387,#388));
#372 = ORIENTED_EDGE('',*,*,#373,.T.);
#373 = EDGE_CURVE('',#374,#374,#376,.T.);
#374 = VERTEX_POINT('',#375);
#375 = CARTESIAN_POINT('',(71.5,4.,78.));
#376 = CIRCLE('',#377,3.5);
#377 = AXIS2_PLACEMENT_3D('',#378,#379,#380);
#378 = CARTESIAN_POINT('',(68.,4.,78.));
#379 = DIRECTION('',(0.,1.,-2.210223024625E-16));
#380 = DIRECTION('',(1.,0.,0.));
#381 = ORIENTED_EDGE('',*,*,#382,.T.);
#382 = EDGE_CURVE('',#374,#121,#383,.T.);
#383 = LINE('',#384,#385);
#384 = CARTESIAN_POINT('',(71.5,8.,78.));
#385 = VECTOR('',#386,1.);
#386 = DIRECTION('',(0.,-1.,2.210223024625E-16));
#387 = ORIENTED_EDGE('',*,*,#120,.F.);
#388 = ORIENTED_EDGE('',*,*,#382,.F.);
#389 = CYLINDRICAL_SURFACE('',#390,3.5);
#390 = AXIS2_PLACEMENT_3D('',#391,#392,#393);
#391 = CARTESIAN_POINT('',(68.,8.,78.));
#392 = DIRECTION('',(0.,1.,-2.210223024625E-16));
#393 = DIRECTION('',(1.,0.,0.));
#394 = ADVANCED_FACE('',(#395),#406,.F.);
#395 = FACE_BOUND('',#396,.F.);
#396 = EDGE_LOOP('',(#397,#403,#404,#405));
#397 = ORIENTED_EDGE('',*,*,#398,.F.);
#398 = EDGE_CURVE('',#204,#148,#399,.T.);
#399 = LINE('',#400,#401);
#400 = CARTESIAN_POINT('',(80.,13.,62.));
#401 = VECTOR('',#402,1.);
#402 = DIRECTION('',(-1.,0.,0.));
#403 = ORIENTED_EDGE('',*,*,#203,.F.);
#404 = ORIENTED_EDGE('',*,*,#186,.F.);
#405 = ORIENTED_EDGE('',*,*,#147,.F.);
#406 = PLANE('',#407);
#407 = AXIS2_PLACEMENT_3D('',#408,#409,#410);
#408 = CARTESIAN_POINT('',(56.,13.,62.));
#409 = DIRECTION('',(-8.E-17,-0.96351790963,-0.267643863786));
#410 = DIRECTION('',(-1.1E-16,-0.267643863786,0.96351790963));
#411 = ADVANCED_FACE('',(#412),#432,.T.);
#412 = FACE_BOUND('',#413,.F.);
#413 = EDGE_LOOP('',(#414,#415,#416,#424,#430,#431));
#414 = ORIENTED_EDGE('',*,*,#336,.T.);
#415 = ORIENTED_EDGE('',*,*,#310,.T.);
#416 = ORIENTED_EDGE('',*,*,#417,.T.);
#417 = EDGE_CURVE('',#311,#418,#420,.T.);
#418 = VERTEX_POINT('',#419);
#419 = CARTESIAN_POINT('',(77.113552872566,13.,62.));
#420 = LINE('',#421,#422);
#421 = CARTESIAN_POINT('',(80.,13.,62.));
#422 = VECTOR('',#423,1.);
#423 = DIRECTION('',(-1.,0.,0.));
#424 = ORIENTED_EDGE('',*,*,#425,.T.);
#425 = EDGE_CURVE('',#418,#204,#426,.T.);
#426 = LINE('',#427,#428);
#427 = CARTESIAN_POINT('',(80.,13.,62.));
#428 = VECTOR('',#429,1.);
#429 = DIRECTION('',(-1.,0.,0.));
#430 = ORIENTED_EDGE('',*,*,#398,.T.);
#431 = ORIENTED_EDGE('',*,*,#155,.T.);
#432 = PLANE('',#433);
#433 = AXIS2_PLACEMENT_3D('',#434,#435,#436);
#434 = CARTESIAN_POINT('',(68.,13.,60.));
#435 = DIRECTION('',(0.,1.,-1.110223024625E-16));
#436 = DIRECTION('',(0.,1.110223024625E-16,1.));
#437 = ADVANCED_FACE('',(#438),#457,.F.);
#438 = FACE_BOUND('',#439,.T.);
#439 = EDGE_LOOP('',(#440,#448,#455,#456));
#440 = ORIENTED_EDGE('',*,*,#441,.T.);
#441 = EDGE_CURVE('',#254,#442,#444,.T.);
#442 = VERTEX_POINT('',#443);
#443 = CARTESIAN_POINT('',(73.5,4.,78.));
#444 = LINE('',#445,#446);
#445 = CARTESIAN_POINT('',(73.5,8.,78.));
#446 = VECTOR('',#447,1.);
#447 = DIRECTION('',(0.,-1.,2.210223024625E-16));
#448 = ORIENTED_EDGE('',*,*,#449,.T.);
#449 = EDGE_CURVE('',#442,#442,#450,.T.);
#450 = CIRCLE('',#451,5.5);
#451 = AXIS2_PLACEMENT_3D('',#452,#453,#454);
#452 = CARTESIAN_POINT('',(68.,4.,78.));
#453 = DIRECTION('',(0.,-1.,1.110223024625E-16));
#454 = DIRECTION('',(1.,0.,0.));
#455 = ORIENTED_EDGE('',*,*,#441,.F.);
#456 = ORIENTED_EDGE('',*,*,#253,.F.);
#457 = CYLINDRICAL_SURFACE('',#458,5.5);
#458 = AXIS2_PLACEMENT_3D('',#459,#460,#461);
#459 = CARTESIAN_POINT('',(68.,8.,78.));
#460 = DIRECTION('',(0.,1.,-2.210223024625E-16));
#461 = DIRECTION('',(1.,0.,0.));
#462 = ADVANCED_FACE('',(#463),#484,.F.);
#463 = FACE_BOUND('',#464,.F.);
#464 = EDGE_LOOP('',(#465,#466,#467,#468,#477));
#465 = ORIENTED_EDGE('',*,*,#417,.F.);
#466 = ORIENTED_EDGE('',*,*,#318,.T.);
#467 = ORIENTED_EDGE('',*,*,#278,.F.);
#468 = ORIENTED_EDGE('',*,*,#469,.F.);
#469 = EDGE_CURVE('',#470,#279,#472,.T.);
#470 = VERTEX_POINT('',#471);
#471 = CARTESIAN_POINT('',(79.2,10.,72.8));
#472 = ELLIPSE('',#473,11.956186683052,3.2);
#473 = AXIS2_PLACEMENT_3D('',#474,#475,#476);
#474 = CARTESIAN_POINT('',(76.,10.,72.8));
#475 = DIRECTION('',(-8.E-17,-0.96351790963,-0.267643863786));
#476 = DIRECTION('',(-2.222222222222E-17,-0.267643863786,0.96351790963)
  );
#477 = ORIENTED_EDGE('',*,*,#478,.F.);
#478 = EDGE_CURVE('',#418,#470,#479,.T.);
#479 = ELLIPSE('',#480,11.956186683052,3.2);
#480 = AXIS2_PLACEMENT_3D('',#481,#482,#483);
#481 = CARTESIAN_POINT('',(76.,10.,72.8));
#482 = DIRECTION('',(-8.E-17,-0.96351790963,-0.267643863786));
#483 = DIRECTION('',(-2.222222222222E-17,-0.267643863786,0.96351790963)
  );
#484 = PLANE('',#485);
#485 = AXIS2_PLACEMENT_3D('',#486,#487,#488);
#486 = CARTESIAN_POINT('',(76.,13.,62.));
#487 = DIRECTION('',(-8.E-17,-0.96351790963,-0.267643863786));
#488 = DIRECTION('',(-1.1E-16,-0.267643863786,0.96351790963));
#489 = ADVANCED_FACE('',(#490),#527,.F.);
#490 = FACE_BOUND('',#491,.F.);
#491 = EDGE_LOOP('',(#492,#500,#509,#518,#525,#526));
#492 = ORIENTED_EDGE('',*,*,#493,.F.);
#493 = EDGE_CURVE('',#494,#346,#496,.T.);
#494 = VERTEX_POINT('',#495);
#495 = CARTESIAN_POINT('',(61.8,10.,62.));
#496 = LINE('',#497,#498);
#497 = CARTESIAN_POINT('',(61.8,10.,62.));
#498 = VECTOR('',#499,1.);
#499 = DIRECTION('',(-0.,-1.022302462516E-18,-1.));
#500 = ORIENTED_EDGE('',*,*,#501,.F.);
#501 = EDGE_CURVE('',#502,#494,#504,.T.);
#502 = VERTEX_POINT('',#503);
#503 = CARTESIAN_POINT('',(60.,8.2,62.));
#504 = CIRCLE('',#505,1.8);
#505 = AXIS2_PLACEMENT_3D('',#506,#507,#508);
#506 = CARTESIAN_POINT('',(60.,10.,62.));
#507 = DIRECTION('',(-0.,1.110223024625E-16,1.));
#508 = DIRECTION('',(1.,0.,0.));
#509 = ORIENTED_EDGE('',*,*,#510,.F.);
#510 = EDGE_CURVE('',#511,#502,#513,.T.);
#511 = VERTEX_POINT('',#512);
#512 = CARTESIAN_POINT('',(60.,11.8,62.));
#513 = CIRCLE('',#514,1.8);
#514 = AXIS2_PLACEMENT_3D('',#515,#516,#517);
#515 = CARTESIAN_POINT('',(60.,10.,62.));
#516 = DIRECTION('',(-0.,1.110223024625E-16,1.));
#517 = DIRECTION('',(1.,0.,0.));
#518 = ORIENTED_EDGE('',*,*,#519,.F.);
#519 = EDGE_CURVE('',#494,#511,#520,.T.);
#520 = CIRCLE('',#521,1.8);
#521 = AXIS2_PLACEMENT_3D('',#522,#523,#524);
#522 = CARTESIAN_POINT('',(60.,10.,62.));
#523 = DIRECTION('',(-0.,1.110223024625E-16,1.));
#524 = DIRECTION('',(1.,0.,0.));
#525 = ORIENTED_EDGE('',*,*,#493,.T.);
#526 = ORIENTED_EDGE('',*,*,#345,.T.);
#527 = CYLINDRICAL_SURFACE('',#528,1.8);
#528 = AXIS2_PLACEMENT_3D('',#529,#530,#531);
#529 = CARTESIAN_POINT('',(60.,10.,62.));
#530 = DIRECTION('',(0.,1.022302462516E-18,1.));
#531 = DIRECTION('',(1.,0.,0.));
#532 = ADVANCED_FACE('',(#533),#570,.F.);
#533 = FACE_BOUND('',#534,.F.);
#534 = EDGE_LOOP('',(#535,#543,#552,#561,#568,#569));
#535 = ORIENTED_EDGE('',*,*,#536,.F.);
#536 = EDGE_CURVE('',#537,#357,#539,.T.);
#537 = VERTEX_POINT('',#538);
#538 = CARTESIAN_POINT('',(77.8,10.,62.));
#539 = LINE('',#540,#541);
#540 = CARTESIAN_POINT('',(77.8,10.,62.));
#541 = VECTOR('',#542,1.);
#542 = DIRECTION('',(-0.,-1.022302462516E-18,-1.));
#543 = ORIENTED_EDGE('',*,*,#544,.F.);
#544 = EDGE_CURVE('',#545,#537,#547,.T.);
#545 = VERTEX_POINT('',#546);
#546 = CARTESIAN_POINT('',(76.,8.2,62.));
#547 = CIRCLE('',#548,1.8);
#548 = AXIS2_PLACEMENT_3D('',#549,#550,#551);
#549 = CARTESIAN_POINT('',(76.,10.,62.));
#550 = DIRECTION('',(-0.,1.110223024625E-16,1.));
#551 = DIRECTION('',(1.,0.,0.));
#552 = ORIENTED_EDGE('',*,*,#553,.F.);
#553 = EDGE_CURVE('',#554,#545,#556,.T.);
#554 = VERTEX_POINT('',#555);
#555 = CARTESIAN_POINT('',(76.,11.8,62.));
#556 = CIRCLE('',#557,1.8);
#557 = AXIS2_PLACEMENT_3D('',#558,#559,#560);
#558 = CARTESIAN_POINT('',(76.,10.,62.));
#559 = DIRECTION('',(-0.,1.110223024625E-16,1.));
#560 = DIRECTION('',(1.,0.,0.));
#561 = ORIENTED_EDGE('',*,*,#562,.F.);
#562 = EDGE_CURVE('',#537,#554,#563,.T.);
#563 = CIRCLE('',#564,1.8);
#564 = AXIS2_PLACEMENT_3D('',#565,#566,#567);
#565 = CARTESIAN_POINT('',(76.,10.,62.));
#566 = DIRECTION('',(-0.,1.110223024625E-16,1.));
#567 = DIRECTION('',(1.,0.,0.));
#568 = ORIENTED_EDGE('',*,*,#536,.T.);
#569 = ORIENTED_EDGE('',*,*,#356,.T.);
#570 = CYLINDRICAL_SURFACE('',#571,1.8);
#571 = AXIS2_PLACEMENT_3D('',#572,#573,#574);
#572 = CARTESIAN_POINT('',(76.,10.,62.));
#573 = DIRECTION('',(0.,1.022302462516E-18,1.));
#574 = DIRECTION('',(1.,0.,0.));
#575 = ADVANCED_FACE('',(#576,#579),#582,.T.);
#576 = FACE_BOUND('',#577,.T.);
#577 = EDGE_LOOP('',(#578));
#578 = ORIENTED_EDGE('',*,*,#449,.F.);
#579 = FACE_BOUND('',#580,.T.);
#580 = EDGE_LOOP('',(#581));
#581 = ORIENTED_EDGE('',*,*,#373,.F.);
#582 = PLANE('',#583);
#583 = AXIS2_PLACEMENT_3D('',#584,#585,#586);
#584 = CARTESIAN_POINT('',(68.,4.,78.));
#585 = DIRECTION('',(0.,1.,-1.110223024625E-16));
#586 = DIRECTION('',(0.,1.110223024625E-16,1.));
#587 = ADVANCED_FACE('',(#588,#609,#614),#619,.T.);
#588 = FACE_BOUND('',#589,.T.);
#589 = EDGE_LOOP('',(#590,#591,#592,#601,#608));
#590 = ORIENTED_EDGE('',*,*,#212,.T.);
#591 = ORIENTED_EDGE('',*,*,#244,.F.);
#592 = ORIENTED_EDGE('',*,*,#593,.T.);
#593 = EDGE_CURVE('',#237,#594,#596,.T.);
#594 = VERTEX_POINT('',#595);
#595 = CARTESIAN_POINT('',(79.2,10.,62.));
#596 = CIRCLE('',#597,3.2);
#597 = AXIS2_PLACEMENT_3D('',#598,#599,#600);
#598 = CARTESIAN_POINT('',(76.,10.,62.));
#599 = DIRECTION('',(-0.,1.110223024625E-16,1.));
#600 = DIRECTION('',(1.,0.,0.));
#601 = ORIENTED_EDGE('',*,*,#602,.T.);
#602 = EDGE_CURVE('',#594,#418,#603,.T.);
#603 = CIRCLE('',#604,3.2);
#604 = AXIS2_PLACEMENT_3D('',#605,#606,#607);
#605 = CARTESIAN_POINT('',(76.,10.,62.));
#606 = DIRECTION('',(-0.,1.110223024625E-16,1.));
#607 = DIRECTION('',(1.,0.,0.));
#608 = ORIENTED_EDGE('',*,*,#425,.T.);
#609 = FACE_BOUND('',#610,.T.);
#610 = EDGE_LOOP('',(#611,#612,#613));
#611 = ORIENTED_EDGE('',*,*,#510,.F.);
#612 = ORIENTED_EDGE('',*,*,#519,.F.);
#613 = ORIENTED_EDGE('',*,*,#501,.F.);
#614 = FACE_BOUND('',#615,.T.);
#615 = EDGE_LOOP('',(#616,#617,#618));
#616 = ORIENTED_EDGE('',*,*,#553,.F.);
#617 = ORIENTED_EDGE('',*,*,#562,.F.);
#618 = ORIENTED_EDGE('',*,*,#544,.F.);
#619 = PLANE('',#620);
#620 = AXIS2_PLACEMENT_3D('',#621,#622,#623);
#621 = CARTESIAN_POINT('',(68.11614486775,10.251829404354,62.));
#622 = DIRECTION('',(0.,2.22044604925E-16,1.));
#623 = DIRECTION('',(0.,-1.,2.22044604925E-16));
#624 = ADVANCED_FACE('',(#625),#634,.F.);
#625 = FACE_BOUND('',#626,.F.);
#626 = EDGE_LOOP('',(#627,#628,#629,#630,#631,#632,#633));
#627 = ORIENTED_EDGE('',*,*,#478,.T.);
#628 = ORIENTED_EDGE('',*,*,#469,.T.);
#629 = ORIENTED_EDGE('',*,*,#286,.T.);
#630 = ORIENTED_EDGE('',*,*,#47,.F.);
#631 = ORIENTED_EDGE('',*,*,#236,.F.);
#632 = ORIENTED_EDGE('',*,*,#593,.T.);
#633 = ORIENTED_EDGE('',*,*,#602,.T.);
#634 = CYLINDRICAL_SURFACE('',#635,3.2);
#635 = AXIS2_PLACEMENT_3D('',#636,#637,#638);
#636 = CARTESIAN_POINT('',(76.,10.,86.));
#637 = DIRECTION('',(0.,1.110223024625E-16,1.));
#638 = DIRECTION('',(1.,0.,0.));
#639 = ( GEOMETRIC_REPRESENTATION_CONTEXT(3) 
GLOBAL_UNCERTAINTY_ASSIGNED_CONTEXT((#643)) GLOBAL_UNIT_ASSIGNED_CONTEXT
((#640,#641,#642)) REPRESENTATION_CONTEXT('Context #1',
  '3D Context with UNIT and UNCERTAINTY') );
#640 = ( LENGTH_UNIT() NAMED_UNIT(*) SI_UNIT(.MILLI.,.METRE.) );
#641 = ( NAMED_UNIT(*) PLANE_ANGLE_UNIT() SI_UNIT($,.RADIAN.) );
#642 = ( NAMED_UNIT(*) SI_UNIT($,.STERADIAN.) SOLID_ANGLE_UNIT() );
#643 = UNCERTAINTY_MEASURE_WITH_UNIT(LENGTH_MEASURE(1.E-05),#640,
  'distance_accuracy_value','confusion accuracy');
#644 = PRODUCT_RELATED_PRODUCT_CATEGORY('part',$,(#7));
ENDSEC;
END-ISO-10303-21;
